<?xml version="1.0" standalone="no"?>
<!DOCTYPE svg PUBLIC "-//W3C//DTD SVG 1.1//EN" "http://www.w3.org/Graphics/SVG/1.1/DTD/svg11.dtd" >
<svg xmlns="http://www.w3.org/2000/svg">
<metadata>Generated by IcoMoon</metadata>
<defs>
<font id="icomoon" horiz-adv-x="1024">
<font-face units-per-em="1024" ascent="960" descent="-64" />
<missing-glyph horiz-adv-x="1024" />
<glyph unicode="&#x20;" horiz-adv-x="512" d="" />
<glyph unicode="&#xe900;" glyph-name="add-to-calender" horiz-adv-x="922" d="M665.6 960h102.4v-102.4h51.2c56.554 0 102.4-45.846 102.4-102.4v-716.8c0-56.554-45.846-102.4-102.4-102.4h-716.8c-0.98-0.035-2.132-0.055-3.289-0.055-27.87 0-53.030 11.598-70.92 30.23-17.474 18.36-28.205 43.214-28.205 70.575 0 0.58 0.005 1.159 0.014 1.737l-0.001 716.713c-0.022 0.783-0.034 1.705-0.034 2.63 0 27.632 10.944 52.707 28.734 71.128 18.363 17.732 43.438 28.676 71.069 28.676 0.925 0 1.847-0.012 2.766-0.037l51.064 0.003v102.4h102.4v-102.4h409.6zM819.2 38.4v614.4h-716.8v-614.4zM409.6 550.4h102.4v-153.6h153.6v-102.4h-153.6v-153.6h-102.4v153.6h-153.6v102.4h153.6z" />
<glyph unicode="&#xe901;" glyph-name="arrow-left" d="M1024 511.354v-129.293h-775.758l354.263-357.495-90.505-88.566-512 512 512 512 91.152-91.152-354.909-357.495z" />
<glyph unicode="&#xe902;" glyph-name="arrow-right" d="M775.758 511.354l-354.263 357.495 90.505 91.152 512-512-512-512-90.505 90.505 354.263 357.495h-775.758v129.293z" />
<glyph unicode="&#xe903;" glyph-name="close" d="M615.131 448l408.869-408.869-103.131-103.131-408.869 408.869-408.869-408.869-103.131 103.131 408.869 408.869-408.869 408.869 103.131 103.131 408.869-408.869 408.869 408.869 103.131-103.131z" />
<glyph unicode="&#xe904;" glyph-name="download" horiz-adv-x="840" d="M421.152 177.861l-421.152 421.152h240.658v360.987h360.987v-360.987h240.658zM0 57.532h842.303v-120.329h-842.303z" />
<glyph unicode="&#xe905;" glyph-name="employee" d="M1024 448c0 0.187 0 0.409 0 0.631 0 282.77-229.23 512-512 512s-512-229.23-512-512c0-272.764 213.294-495.71 482.19-511.147l1.365-1.485h56.889v1.422c270.043 15.487 483.209 238.082 483.556 510.543zM56.889 448c-0.001 0.258-0.001 0.564-0.001 0.871 0 251.351 203.76 455.111 455.111 455.111s455.111-203.76 455.111-455.111c0-133.461-57.447-253.505-148.963-336.753-82.97 67.502-189.756 108.624-306.147 108.624s-223.177-41.121-306.624-109.628c-90.999 83.943-148.453 203.702-148.488 336.881zM251.449 75.378c63.994 49.598 143.766 81.75 230.701 88.095l1.405-167.74c-87.341 5.005-167.012 34.074-233.567 80.612zM540.444 163.556c88.197-5.985 167.995-37.659 233.141-87.516-65.915-45.797-145.518-75.82-231.756-81.654zM512 277.333c125.675 0 227.556 101.88 227.556 227.556h85.333v56.889h-58.596c-15.298 128.114-123.307 226.489-254.293 226.489s-238.995-98.375-254.175-225.272l-58.714-1.217v-56.889h85.333c0-125.675 101.88-227.556 227.556-227.556zM512 334.222c-94.257 0-170.667 76.41-170.667 170.667h341.333c0-94.257-76.41-170.667-170.667-170.667zM483.556 730.169v-111.502h56.889v111.502c87.25-13.039 155.353-81.142 168.256-167.297l-393.536-1.094c13.039 87.25 81.142 155.353 167.297 168.256z" />
<glyph unicode="&#xe906;" glyph-name="extern-link" d="M909.312 448h114.688v-397.312c0.001-0.203 0.002-0.444 0.002-0.685 0-62.963-51.042-114.005-114.005-114.005-0.241 0-0.481 0.001-0.722 0.002h-794.587c-0.588-0.011-1.281-0.018-1.975-0.018-31.071 0-59.149 12.813-79.239 33.444-20.679 20.138-33.492 48.216-33.492 79.287 0 0.694 0.006 1.387 0.019 2.079l-0.002 794.52c-0.047 1.215-0.074 2.641-0.074 4.074 0 30.601 12.277 58.334 32.174 78.543 20.181 19.868 47.914 32.145 78.515 32.145 1.433 0 2.859-0.027 4.279-0.080l397.107 0.006v-114.688h-397.312v-794.624h794.624zM1024 960v-397.312h-114.688v204.8l-557.056-558.421-79.189 79.189 557.056 557.056h-204.8v114.688z" />
<glyph unicode="&#xe907;" glyph-name="information" d="M438.857 764.952h146.286v-146.286h-146.286zM438.857 521.143h146.286v-390.095h-146.286zM874.789 810.789c-92.136 92.192-219.45 149.219-360.084 149.219-0.951 0-1.901-0.003-2.851-0.008-0.725 0.006-1.756 0.009-2.788 0.009-281.154 0-509.074-227.92-509.074-509.074 0-1.032 0.003-2.063 0.009-3.093-0.006-0.713-0.009-1.743-0.009-2.775 0-281.154 227.92-509.074 509.074-509.074 1.032 0 2.063 0.003 3.093 0.009 0.713-0.006 1.743-0.009 2.775-0.009 281.154 0 509.074 227.92 509.074 509.074 0 1.032-0.003 2.063-0.009 3.093 0.005 0.644 0.008 1.594 0.008 2.545 0 140.634-57.026 267.948-149.216 360.082zM804.084 155.916c-73.874-72.687-175.3-117.566-287.207-117.566-226.216 0-409.6 183.384-409.6 409.6s183.384 409.6 409.6 409.6c226.027 0 409.294-183.078 409.6-409.034-0.313-114.453-47.052-217.898-122.364-292.573z" />
<glyph unicode="&#xe908;" glyph-name="pause" d="M341.333 228.571v438.857h146.286v-438.857zM536.381 228.571v438.857h146.286v-438.857zM874.789 810.789c-92.136 92.192-219.45 149.219-360.084 149.219-0.951 0-1.901-0.003-2.851-0.008-0.725 0.006-1.756 0.009-2.788 0.009-281.154 0-509.074-227.92-509.074-509.074 0-1.032 0.003-2.063 0.009-3.093-0.006-0.713-0.009-1.743-0.009-2.775 0-281.154 227.92-509.074 509.074-509.074 1.032 0 2.063 0.003 3.093 0.009 0.713-0.006 1.743-0.009 2.775-0.009 281.154 0 509.074 227.92 509.074 509.074 0 1.032-0.003 2.063-0.009 3.093 0.005 0.644 0.008 1.594 0.008 2.545 0 140.634-57.026 267.948-149.216 360.082zM804.084 155.916c-73.874-72.687-175.3-117.566-287.207-117.566-226.216 0-409.6 183.384-409.6 409.6s183.384 409.6 409.6 409.6c226.027 0 409.294-183.078 409.6-409.034-0.313-114.453-47.052-217.898-122.364-292.573z" />
<glyph unicode="&#xe909;" glyph-name="pin" horiz-adv-x="716" d="M615.323 857.446c63.429-63.925 102.627-151.973 102.627-249.176 0-2.534-0.027-5.063-0.080-7.584-20.843-165.439-84.898-313.301-180.409-435.362-59.071-85.748-118.181-161.63-181.208-234.012-57.278 72.048-116.053 147.596-170.61 226.292-100.264 128.945-164.694 277.177-185.193 439.105-0.485 6.201-0.504 8.379-0.504 10.562 0 194.838 157.947 352.785 352.785 352.785 2.183 0 4.361-0.020 6.534-0.059 1.819 0.051 4.348 0.078 6.882 0.078 97.203 0 185.251-39.198 249.199-102.649zM449.699 510.301c22.215 22.338 35.947 53.132 35.947 87.134 0 1.275-0.019 2.546-0.058 3.812 0.060 1.203 0.092 2.833 0.092 4.47 0 68.25-55.327 123.577-123.577 123.577-1.113 0-2.222-0.015-3.328-0.044-1.24 0.060-2.887 0.093-4.541 0.093-68.25 0-123.577-55.327-123.577-123.577 0-1.655 0.033-3.301 0.097-4.94-0.033-0.707-0.048-1.816-0.048-2.929 0-68.25 55.327-123.577 123.577-123.577 1.637 0 3.267 0.032 4.889 0.095 0.847-0.041 2.118-0.060 3.393-0.060 34.001 0 64.796 13.732 87.139 35.953z" />
<glyph unicode="&#xe90a;" glyph-name="play" d="M874.789 810.789c-92.136 92.192-219.45 149.219-360.084 149.219-0.951 0-1.901-0.003-2.851-0.008-0.725 0.006-1.756 0.009-2.788 0.009-281.154 0-509.074-227.92-509.074-509.074 0-1.032 0.003-2.063 0.009-3.093-0.006-0.713-0.009-1.743-0.009-2.775 0-281.154 227.92-509.074 509.074-509.074 1.032 0 2.063 0.003 3.093 0.009 0.713-0.006 1.743-0.009 2.775-0.009 281.154 0 509.074 227.92 509.074 509.074 0 1.032-0.003 2.063-0.009 3.093 0.005 0.644 0.008 1.594 0.008 2.545 0 140.634-57.026 267.948-149.216 360.082zM804.084 155.916c-73.874-72.687-175.3-117.566-287.207-117.566-226.216 0-409.6 183.384-409.6 409.6s183.384 409.6 409.6 409.6c226.027 0 409.294-183.078 409.6-409.034-0.313-114.453-47.052-217.898-122.364-292.573zM390.095 663.528l341.333-219.429-341.333-219.429z" />
<glyph unicode="&#xe90b;" glyph-name="publication" horiz-adv-x="1006" d="M432.534-57.965c-110.808 100.317-253.050 167.801-410.3 186.098-14.099 1.706-22.235 10.712-22.235 21.618 0 0.059 0 0.118 0.001 0.177v788.612c-0.008 0.215-0.013 0.467-0.013 0.72 0 5.862 2.593 11.118 6.696 14.683 3.244 3.851 8.038 6.269 13.397 6.269 0.96 0 1.903-0.078 2.821-0.227 57.284-6.234 109.551-17.802 159.526-34.396 106.089-31.826 201.947-88.45 280.598-163.040l6.392-16.47v-788.621c-0.189-8.967-5.24-16.712-12.615-20.725-1.437-0.309-2.945-0.449-4.486-0.449s-3.048 0.14-4.511 0.409c-5.686 0.081-11.037 2.081-15.333 5.387zM549.889-62.659c-7.781 3.574-13.144 11.188-13.411 20.084l-0.001 788.655 6.706 16.765c78.34 74.684 174.507 131.385 281.43 163.048 49.005 16.094 100.792 27.648 154.23 33.774 9.934 0.033 15.717-2.187 20.42-5.756 4.051-3.531 6.644-8.787 6.644-14.649 0-0.253-0.005-0.505-0.014-0.756l0.001-788.585c0-0.012 0-0.027 0-0.042 0-11.38-8.858-20.69-20.055-21.414-160.266-18.433-302.076-85.7-413.103-186.315-3.547-2.941-8.887-5.17-14.736-5.476-0.81-0.082-1.675-0.128-2.55-0.128-2.215 0-4.362 0.29-6.405 0.835z" />
<glyph unicode="&#xe90c;" glyph-name="repeating-date" horiz-adv-x="1346" d="M1345.629 461.498l-65.629 66.095-83.782-83.782s0 2.793 0 4.189c-1.988 281.258-230.451 508.494-511.988 508.494-235.331 0-433.58-158.769-493.475-375.034l-190.756-193.503 65.629-65.629 107.52 107.52c11.694-273.493 236.251-490.786 511.56-490.786 223.515 0 413.578 143.225 483.419 342.905zM684.684 29.091c-0.149 0-0.325 0-0.501 0-224.154 0-407.188 176.055-418.368 397.431l106.549-104.659 65.629 65.629-158.72 160.582c50.81 178.228 212.199 306.532 403.554 306.532 231.357 0 418.909-187.552 418.909-418.909 0-12.052-0.509-23.986-1.507-35.78l-126.964 127.677-65.629-66.095 166.633-166.633c-62.818-156.841-213.479-265.631-389.568-265.775z" />
<glyph unicode="&#xe90d;" glyph-name="search" d="M1024 576c0-212.077-171.923-384-384-384-0.555-0.003-1.212-0.005-1.868-0.005-75.375 0-145.565 22.198-204.39 60.413l-287.822-291.448c-15.715-15.275-37.131-24.757-60.761-24.96-47.266 0.181-85.481 38.507-85.481 85.759 0 23.444 9.407 44.69 24.652 60.171l291.189 289.269c-37.327 57.367-59.525 127.557-59.525 202.932 0 0.657 0.002 1.314 0.005 1.97 0 211.976 171.922 383.898 384 383.898s384-171.923 384-384zM896 576c0 141.385-114.615 256-256 256s-256-114.615-256-256c0-141.385 114.615-256 256-256s256 114.615 256 256z" />
<glyph unicode="&#xe90e;" glyph-name="search-arrow" horiz-adv-x="1620" d="M1620.423 867.596v-504.020h-1296.171l308.292-308.292-120.125-119.285-512.42 511.58 512.42 512.42 119.285-120.125-307.452-308.292h1128.164v336.013z" />
<glyph unicode="&#xe90f;" glyph-name="user" d="M1024-42.24c0.006-0.194 0.010-0.421 0.010-0.65 0-11.664-9.456-21.12-21.12-21.12-0.229 0-0.456 0.004-0.683 0.011l-980.447-0.001c-0.194-0.006-0.421-0.010-0.65-0.010-11.664 0-21.12 9.456-21.12 21.12 0 0.229 0.004 0.456 0.011 0.683l-0.001 42.207c0 213.76 384 170.24 384 341.76-79.692 92.785-128.21 214.359-128.21 347.265 0 5.266 0.076 10.514 0.227 15.744-0.018 140.616 114.598 255.232 255.982 255.232s256-114.615 256-256c0.134-4.461 0.21-9.709 0.21-14.975 0-132.906-48.517-254.48-128.807-347.977 0.597-170.168 384.597-127.288 384.597-341.048z" />
<glyph unicode="&#xe910;" glyph-name="map" d="M512 960c-282.77 0-512-229.23-512-512s229.23-512 512-512c282.77 0 512 229.23 512 512s-229.23 512-512 512zM512 903.111c0.471 0.002 1.028 0.003 1.586 0.003 250.408 0 453.404-202.996 453.404-453.404 0-41.057-5.457-80.84-15.686-118.662l-255.269 3.175c40.676 67.698 71.964 139.378 71.964 199.111 0 141.385-114.615 256-256 256v0c-141.385 0-256-114.615-256-256 0-60.871 30.72-132.267 70.542-199.111h-256c-9.499 34.65-14.956 74.435-14.956 115.494 0 250.408 202.996 453.404 453.404 453.404 1.058 0 2.116-0.004 3.173-0.011zM512 732.444c109.966 0 199.111-89.145 199.111-199.111 0-92.16-102.969-243.769-199.111-355.556-96.142 110.649-199.111 261.404-199.111 355.556 0 109.966 89.145 199.111 199.111 199.111zM512-7.111c-189.702 0.152-352.227 116.344-420.44 281.422l271.392 3.023c41.891-60.299 83.832-112.896 128.899-162.605l20.15-21.999 21.049 23.609c43.32 48.226 84.979 100.722 123.35 155.683l277.148 5.312c-69.32-168.1-231.845-284.293-421.527-284.444zM512 391.111c70.692 0 128 57.308 128 128s-57.308 128-128 128c-70.692 0-128-57.308-128-128s57.308-128 128-128zM512 590.222c39.274 0 71.111-31.838 71.111-71.111s-31.838-71.111-71.111-71.111c-39.274 0-71.111 31.838-71.111 71.111s31.838 71.111 71.111 71.111z" />
<glyph unicode="&#xe911;" glyph-name="RSS" d="M0 960c1.639 0.010 3.578 0.015 5.519 0.015 281.172 0 535.659-114.252 719.569-298.863l0.032-0.032c184.643-183.941 298.895-438.428 298.895-719.601 0-1.941-0.005-3.88-0.016-5.819l0.001 0.299h-184.96c0.001 0.53 0.002 1.158 0.002 1.787 0 231.216-93.668 440.554-245.128 592.139l0.006-0.006c-151.579 151.454-360.918 245.122-592.133 245.122-0.628 0-1.256-0.001-1.884-0.002h0.098zM0 590.080c179.967-1.127 342.635-74.266 460.82-192.020l-0.020 0.020c117.734-118.165 190.873-280.833 191.999-460.584l0.001-0.216h-186.88c0.014 1.328 0.022 2.898 0.022 4.469 0 127.361-51.886 242.603-135.673 325.742l-0.029 0.029c-83.044 83.061-197.778 134.436-324.51 134.436-2.015 0-4.027-0.013-6.035-0.039l0.305 0.003zM145.28 223.36c2.851 0.204 6.177 0.32 9.53 0.32 78.469 0 142.080-63.611 142.080-142.080s-63.611-142.080-142.080-142.080c-3.353 0-6.679 0.116-9.975 0.345l0.444-0.025c-2.851-0.204-6.177-0.32-9.53-0.32-78.469 0-142.080 63.611-142.080 142.080s63.611 142.080 142.080 142.080c3.353 0 6.679-0.116 9.975-0.345l-0.444 0.025z" />
<glyph unicode="&#xe912;" glyph-name="reset" horiz-adv-x="820" d="M700.092 635.067c74.101-74.181 119.928-176.619 119.928-289.759 0-226.442-183.568-410.010-410.010-410.010-226.329 0-409.826 183.384-410.010 409.67v0.018h102.503c-0.014-1.067-0.021-2.327-0.021-3.589 0-84.001 34.311-159.989 89.682-214.713l0.029-0.029c55.609-55.415 132.328-89.676 217.049-89.676s161.44 34.261 217.058 89.685l-0.009-0.009c55.415 55.609 89.676 132.328 89.676 217.049s-34.261 161.44-89.685 217.058l0.009-0.009c-55.556 55.375-131.709 90.115-215.973 91.735l-0.307 0.005v-205.005l-256.256 256.256 256.256 256.256v-205.005c1.422 0.018 3.102 0.029 4.784 0.029 111.743 0 212.764-45.906 285.232-119.889l0.066-0.068z" />
<glyph unicode="&#xe913;" glyph-name="employee_01" d="M512 960c-282.77 0-512-229.23-512-512s229.23-512 512-512c282.77 0 512 229.23 512 512v0c0 282.77-229.23 512-512 512v0zM512-7.111c-0.044 0-0.096 0-0.148 0-97.563 0-187.911 30.893-261.795 83.429l1.393-0.94c71.39 55.031 162.097 88.201 260.551 88.201s189.161-33.17 261.555-88.944l-1.004 0.743c-72.492-51.596-162.839-82.489-260.403-82.489-0.052 0-0.104 0-0.157 0h0.008zM817.778 111.787c-82.601 67.833-189.387 108.955-305.778 108.955s-223.177-41.121-306.624-109.628l0.846 0.674c-91.885 83.578-149.333 203.623-149.333 337.085 0 251.351 203.76 455.111 455.111 455.111s455.111-203.76 455.111-455.111c0-133.462-57.448-253.506-148.964-336.753l-0.369-0.331zM512 789.333c-131.312-0.064-239.5-98.984-254.182-226.37l-0.111-1.186h-58.596v-56.889h85.333c0-125.675 101.88-227.556 227.556-227.556s227.556 101.88 227.556 227.556v0h85.333v56.889h-58.596c-14.793 128.572-122.981 227.491-254.287 227.556h-0.007zM512 334.222c-94.257 0-170.667 76.41-170.667 170.667v0h341.333c0-94.257-76.41-170.667-170.667-170.667v0zM315.164 561.778c13.039 87.25 81.142 155.353 167.297 168.256l1.094 0.135v-111.502h56.889v111.502c87.25-13.039 155.353-81.142 168.256-167.297l0.135-1.094z" />
<glyph unicode="&#xe93e;" glyph-name="arrow-left3" d="M1024 511.354v-129.293h-775.758l354.263-357.495-90.505-88.566-512 512 512 512 91.152-91.152-354.909-357.495z" />
<glyph unicode="&#xe93f;" glyph-name="arrow-right3" d="M775.758 511.354l-354.263 357.495 90.505 91.152 512-512-512-512-90.505 90.505 354.263 357.495h-775.758v129.293z" />
<glyph unicode="&#xe940;" glyph-name="breadcrumb-arrow" horiz-adv-x="632" d="M0 56.32l391.68 391.68-391.68 391.68 120.32 120.32 512-512-512-512z" />
<glyph unicode="&#xe941;" glyph-name="calendar" horiz-adv-x="927" d="M503.172 469.363h-53.76c-15.272-14.301-46.698-21.274-73.092-22.157v-47.669c25.899 0.714 50.282 6.425 72.474 16.198l-1.235-242.273h-72.21v-46.257h193.324v46.257h-65.501zM890.262 828.204c-22.061 21.472-52.227 34.713-85.485 34.713-0.795 0-1.588-0.008-2.379-0.023l-25.57 0.002v39.812c-0.050 31.621-25.67 57.241-57.286 57.291h-35.315c-0.026 0-0.057 0-0.088 0-31.659 0-57.329-25.639-57.379-57.286v-39.817h-335.448v39.812c-0.050 31.621-25.67 57.241-57.286 57.291h-35.315c-0.026 0-0.057 0-0.088 0-31.659 0-57.329-25.639-57.379-57.286v-39.817h-16.861c-1.342 0.054-2.916 0.084-4.498 0.084-66.256 0-119.967-53.711-119.967-119.967 0-1.582 0.031-3.157 0.091-4.724l-0.007-677.998c-0.012-0.643-0.019-1.402-0.019-2.162 0-33.729 13.858-64.222 36.192-86.094 21.9-22.374 52.38-36.233 86.098-36.233 0.773 0 1.544 0.007 2.314 0.022l677.932-0.002c0.237-0.002 0.518-0.003 0.798-0.003 68.255 0 123.586 55.331 123.586 123.586 0 0.342-0.001 0.684-0.004 1.026v678.083c0.035 1.072 0.054 2.333 0.054 3.598 0 33.81-14.059 64.336-36.649 86.052zM72.474 790.422c12.492 12.125 29.555 19.599 48.364 19.599 1.246 0 2.484-0.033 3.714-0.098l69.654 0.007v92.778c0 2.389 1.937 4.326 4.326 4.326h35.31c2.389 0 4.326-1.937 4.326-4.326v-92.778h441.556v92.778c0 2.389 1.937 4.326 4.326 4.326h35.31c2.389 0 4.326-1.937 4.326-4.326v-92.778h78.654c0.564 0.016 1.228 0.025 1.894 0.025 19.146 0 36.513-7.619 49.234-19.991 12.661-12.262 20.53-29.439 20.53-48.454 0-1.054-0.024-2.101-0.072-3.143l0.005-113.816h-820.966v113.964c-0.058 1.058-0.090 2.296-0.090 3.542 0 18.809 7.475 35.873 19.616 48.382zM853.186 9.71c-12.42-12.813-29.79-20.765-49.017-20.765-0.581 0-1.161 0.007-1.739 0.022l-678.050-0.002c-0.506-0.013-1.102-0.021-1.7-0.021-19.196 0-36.544 7.916-48.955 20.663-12.829 12.449-20.781 29.831-20.781 49.071 0 0.599 0.008 1.196 0.023 1.791l-0.002 511.117h820.966v-511.206c0.014-0.507 0.021-1.104 0.021-1.703 0-19.24-7.952-36.622-20.749-49.039z" />
<glyph unicode="&#xe942;" glyph-name="check" horiz-adv-x="1281" d="M1103.448 960l-668.374-668.374-257.261 257.261-177.813-177.813 435.074-435.074 846.187 846.187-177.813 177.813z" />
<glyph unicode="&#xe943;" glyph-name="companies" d="M512 960c-282.77 0-512-229.23-512-512s229.23-512 512-512c282.77 0 512 229.23 512 512s-229.23 512-512 512zM853.333 147.911c-83.499-95.304-205.446-155.154-341.371-155.154-135.127 0-256.439 59.149-339.457 152.968l48.792 444.498h105.529l49.778-402.204 163.84 124.871v-128l170.667 124.302v-119.467l142.222 113.778zM768 308.053v111.502l-170.667-124.302v132.267l-176.64-134.258-43.52 353.849h-206.507l-48.356-432.924c-41.087 67.053-65.42 148.23-65.42 235.090 0 251.351 203.76 455.111 455.111 455.111s455.111-203.76 455.111-455.111c0-0.449-0.001-0.897-0.002-1.346 0-0.036 0-0.161 0-0.286 0-80.593-21.094-156.259-58.061-221.779l1.172 195.965z" />
<glyph unicode="&#xe944;" glyph-name="download2" horiz-adv-x="840" d="M421.152 177.861l-421.152 421.152h240.658v360.987h360.987v-360.987h240.658zM0 57.532h842.303v-120.329h-842.303z" />
<glyph unicode="&#xe945;" glyph-name="dropdown-arrow-down" horiz-adv-x="1658" d="M194.85 960l634.3-634.3 634.3 634.3 194.85-194.85-829.15-829.15-829.15 829.15z" />
<glyph unicode="&#xe946;" glyph-name="dropdown-arrow-up" horiz-adv-x="1658" d="M0 130.85l829.15 829.15 829.15-829.15-194.85-194.85-634.3 635.682-634.3-635.682z" />
<glyph unicode="&#xe947;" glyph-name="economy-work" d="M512 960c-282.77 0-512-229.23-512-512s229.23-512 512-512c282.77 0 512 229.23 512 512s-229.23 512-512 512zM483.556 901.689v-115.2c-65.381-13.696-113.778-70.87-113.778-139.349 0-0.010 0-0.020 0-0.031 0-32.176 10.686-61.859 28.704-85.69l45.252 34.491c-10.655 14.084-17.067 31.893-17.067 51.2 0 47.128 38.205 85.333 85.333 85.333s85.333-38.205 85.333-85.333c0-19.307-6.412-37.116-17.222-51.415l45.667-33.919c17.758 23.473 28.444 53.155 28.444 85.333 0 0.009 0 0.019 0 0.029 0 68.478-48.397 125.653-112.852 139.186l-0.926 115.363c238.622-15.623 426.253-212.998 426.253-454.195 0-50.669-8.28-99.405-23.562-144.927l-32.914 3.211v113.778c0 31.419-25.47 56.889-56.889 56.889h-113.778c-31.419 0-56.889-25.47-56.889-56.889v-113.778h-56.889v113.778c0 31.419-25.47 56.889-56.889 56.889h-113.778c-31.419 0-56.889-25.47-56.889-56.889v-113.778h-56.889v113.778c0 31.419-25.47 56.889-56.889 56.889h-113.778c-31.419 0-56.889-25.47-56.889-56.889v-113.778h-33.849c-14.346 42.311-22.627 91.047-22.627 141.716 0 241.198 187.631 438.572 424.895 454.124zM103.253 248.889h817.209c-10.731-22.089-21.615-40.723-33.722-58.457l-750.776 1.568c-11.095 16.165-21.98 34.8-31.523 54.213zM170.667 305.778v113.778h113.778v-113.778zM455.111 305.778v113.778h113.778v-113.778zM739.556 305.778v113.778h113.778v-113.778zM512-7.111c-129.791 0.026-246.834 54.583-329.47 142.007l659.141 0.215c-82.837-87.639-199.88-142.196-329.667-142.222z" />
<glyph unicode="&#xe948;" glyph-name="extern-link2" d="M909.312 448h114.688v-397.312c0.001-0.203 0.002-0.444 0.002-0.685 0-62.963-51.042-114.005-114.005-114.005-0.241 0-0.481 0.001-0.722 0.002h-794.587c-0.588-0.011-1.281-0.018-1.975-0.018-31.071 0-59.149 12.813-79.239 33.444-20.679 20.138-33.492 48.216-33.492 79.287 0 0.694 0.006 1.387 0.019 2.079l-0.002 794.52c-0.047 1.215-0.074 2.641-0.074 4.074 0 30.601 12.277 58.334 32.174 78.543 20.181 19.868 47.914 32.145 78.515 32.145 1.433 0 2.859-0.027 4.279-0.080l397.107 0.006v-114.688h-397.312v-794.624h794.624zM1024 960v-397.312h-114.688v204.8l-557.056-558.421-79.189 79.189 557.056 557.056h-204.8v114.688z" />
<glyph unicode="&#xe949;" glyph-name="list" horiz-adv-x="1261" d="M98.987 960c2.278 0.188 4.93 0.295 7.607 0.295 54.292 0 98.304-44.012 98.304-98.304 0-1.544-0.036-3.080-0.106-4.607 0.052-0.889 0.077-2.186 0.077-3.489 0-27.298-10.974-52.032-28.751-70.033-17.681-17.806-42.188-28.835-69.27-28.835-2.045 0-4.075 0.063-6.089 0.187-0.678-0.047-1.8-0.066-2.926-0.066-27.023 0-51.481 10.98-69.157 28.722-17.77 17.993-28.744 42.728-28.744 70.025 0 1.303 0.025 2.601 0.075 3.892-0.050 0.919-0.075 2.216-0.075 3.52 0 27.298 10.974 52.032 28.751 70.033 17.352 17.703 41.526 28.684 68.264 28.684 0.717 0 1.433-0.008 2.147-0.024zM98.987 550.4c2.278 0.188 4.93 0.295 7.607 0.295 54.292 0 98.304-44.012 98.304-98.304 0-1.544-0.036-3.080-0.106-4.607 0.052-0.889 0.077-2.186 0.077-3.489 0-27.298-10.974-52.032-28.751-70.033-17.681-17.806-42.188-28.835-69.27-28.835-2.045 0-4.075 0.063-6.089 0.187-0.678-0.047-1.8-0.066-2.926-0.066-27.023 0-51.481 10.98-69.157 28.722-17.77 17.993-28.744 42.728-28.744 70.025 0 1.303 0.025 2.601 0.075 3.892-0.050 0.919-0.075 2.216-0.075 3.52 0 27.298 10.974 52.032 28.751 70.033 17.352 17.703 41.526 28.684 68.264 28.684 0.717 0 1.433-0.008 2.147-0.024zM98.987 140.8c56.722-1.244 102.229-47.52 102.229-104.424 0-27.787-10.851-53.040-28.547-71.753-17.631-17.684-42.082-28.656-69.095-28.656-0.893 0-1.783 0.012-2.67 0.036-0.625-0.024-1.515-0.036-2.408-0.036-27.013 0-51.464 10.972-69.138 28.702-17.902 19.3-28.885 45.233-28.885 73.731s10.982 54.431 28.946 73.797c17.297 17.637 41.466 28.612 68.199 28.612 0.482 0 0.962-0.004 1.442-0.011zM303.787 924.501h955.733v-136.533h-955.733zM303.787 378.368v136.533h955.733v-136.533zM303.787-31.232v136.533h955.733v-136.533z" />
<glyph unicode="&#xe94a;" glyph-name="pin2" horiz-adv-x="716" d="M615.323 857.446c63.429-63.925 102.627-151.973 102.627-249.176 0-2.534-0.027-5.063-0.080-7.584-20.843-165.439-84.898-313.301-180.409-435.362-59.071-85.748-118.181-161.63-181.208-234.012-57.278 72.048-116.053 147.596-170.61 226.292-100.264 128.945-164.694 277.177-185.193 439.105-0.485 6.201-0.504 8.379-0.504 10.562 0 194.838 157.947 352.785 352.785 352.785 2.183 0 4.361-0.020 6.534-0.059 1.819 0.051 4.348 0.078 6.882 0.078 97.203 0 185.251-39.198 249.199-102.649zM449.699 510.301c22.215 22.338 35.947 53.132 35.947 87.134 0 1.275-0.019 2.546-0.058 3.812 0.060 1.203 0.092 2.833 0.092 4.47 0 68.25-55.327 123.577-123.577 123.577-1.113 0-2.222-0.015-3.328-0.044-1.24 0.060-2.887 0.093-4.541 0.093-68.25 0-123.577-55.327-123.577-123.577 0-1.655 0.033-3.301 0.097-4.94-0.033-0.707-0.048-1.816-0.048-2.929 0-68.25 55.327-123.577 123.577-123.577 1.637 0 3.267 0.032 4.889 0.095 0.847-0.041 2.118-0.060 3.393-0.060 34.001 0 64.796 13.732 87.139 35.953z" />
<glyph unicode="&#xe94b;" glyph-name="politic-society" d="M512 960c-282.77 0-512-229.23-512-512s229.23-512 512-512c282.77 0 512 229.23 512 512s-229.23 512-512 512zM512 903.111c251.111-0.318 454.552-203.956 454.552-455.111 0-54.238-9.488-106.26-26.894-154.497-33.448 26.642-75.979 40.647-121.782 40.647-41.503 0-80.321-11.499-113.441-31.485-53.409 38.051-120.733 60.446-193.289 60.446s-139.88-22.395-195.438-60.65c-31.255 20.795-70.524 32.732-112.569 32.899-44.795-0.227-86.383-13.565-121.22-36.364-14.928 44.778-24.049 95.826-24.049 149.005 0 251.005 203.2 454.551 454.075 455.11zM105.529 244.622c26.703 20.425 60.564 32.728 97.299 32.728 24.229 0 47.207-5.352 67.818-14.938-37.303-35.638-65.893-79.414-84.098-128.248-32.246 29.939-59.001 67.138-79.821 107.876zM231.822 90.169c33.768 125.377 146.445 216.139 280.32 216.139s246.552-90.762 279.854-214.11c-75.815-62.705-173.552-99.379-279.854-99.379s-204.038 36.674-281.245 98.060zM838.542 131.698c-19.361 51.597-48.429 95.571-85.27 131.636 18.585 7.677 40.223 12.098 62.894 12.098 37.826 0 72.778-12.306 101.070-33.132-22.050-42.179-48.135-78.707-78.849-110.765zM512 419.556c94.257 0 170.667 76.41 170.667 170.667s-76.41 170.667-170.667 170.667c-94.257 0-170.667-76.41-170.667-170.667s76.41-170.667 170.667-170.667zM512 704c62.838 0 113.778-50.94 113.778-113.778s-50.94-113.778-113.778-113.778c-62.838 0-113.778 50.94-113.778 113.778s50.94 113.778 113.778 113.778zM824.889 362.667c62.838 0 113.778 50.94 113.778 113.778s-50.94 113.778-113.778 113.778c-62.838 0-113.778-50.94-113.778-113.778s50.94-113.778 113.778-113.778zM824.889 533.333c31.419 0 56.889-25.47 56.889-56.889s-25.47-56.889-56.889-56.889c-31.419 0-56.889 25.47-56.889 56.889s25.47 56.889 56.889 56.889zM199.111 362.667c62.838 0 113.778 50.94 113.778 113.778s-50.94 113.778-113.778 113.778c-62.838 0-113.778-50.94-113.778-113.778s50.94-113.778 113.778-113.778zM199.111 533.333c31.419 0 56.889-25.47 56.889-56.889s-25.47-56.889-56.889-56.889c-31.419 0-56.889 25.47-56.889 56.889s25.47 56.889 56.889 56.889z" />
<glyph unicode="&#xe94c;" glyph-name="print" horiz-adv-x="1136" d="M1088.284 626.631c30.583-30.145 49.528-72.025 49.528-118.329 0-1.2-0.013-2.397-0.038-3.591l0.003-341.155h-227.556v-227.556h-682.667v227.556h-227.556v341.333c-0.079 1.904-0.124 4.137-0.124 6.382 0 90.801 73.608 164.409 164.409 164.409 2.244 0 4.478-0.045 6.701-0.134l796.125 0.010c1.014 0.022 2.209 0.035 3.407 0.035 46.023 0 87.675-18.716 117.759-48.952zM910.222 732.444h-682.667v227.556h682.667zM796.444 334.222h-455.111v-284.444h455.111zM1006.933 465.067c10.052 10.252 16.256 24.31 16.256 39.816 0 31.419-25.47 56.889-56.889 56.889s-56.889-25.47-56.889-56.889c0-31.419 25.47-56.889 56.889-56.889 0.285 0 0.569 0.002 0.853 0.006 14.804 0.371 28.179 6.375 38.089 15.944z" />
<glyph unicode="&#xe94d;" glyph-name="repeating-date2" horiz-adv-x="1346" d="M1345.629 461.498l-65.629 66.095-83.782-83.782s0 2.793 0 4.189c-1.988 281.258-230.451 508.494-511.988 508.494-235.331 0-433.58-158.769-493.475-375.034l-190.756-193.503 65.629-65.629 107.52 107.52c11.694-273.493 236.251-490.786 511.56-490.786 223.515 0 413.578 143.225 483.419 342.905zM684.684 29.091c-0.149 0-0.325 0-0.501 0-224.154 0-407.188 176.055-418.368 397.431l106.549-104.659 65.629 65.629-158.72 160.582c50.81 178.228 212.199 306.532 403.554 306.532 231.357 0 418.909-187.552 418.909-418.909 0-12.052-0.509-23.986-1.507-35.78l-126.964 127.677-65.629-66.095 166.633-166.633c-62.818-156.841-213.479-265.631-389.568-265.775z" />
<glyph unicode="&#xe94e;" glyph-name="search2" d="M1024 576c0-212.077-171.923-384-384-384-0.555-0.003-1.212-0.005-1.868-0.005-75.375 0-145.565 22.198-204.39 60.413l-287.822-291.448c-15.715-15.275-37.131-24.757-60.761-24.96-47.266 0.181-85.481 38.507-85.481 85.759 0 23.444 9.407 44.69 24.652 60.171l291.189 289.269c-37.327 57.367-59.525 127.557-59.525 202.932 0 0.657 0.002 1.314 0.005 1.97 0 211.976 171.922 383.898 384 383.898s384-171.923 384-384zM896 576c0 141.385-114.615 256-256 256s-256-114.615-256-256c0-141.385 114.615-256 256-256s256 114.615 256 256z" />
<glyph unicode="&#xe94f;" glyph-name="share" horiz-adv-x="923" d="M875.654 190.97c26.98-27.332 43.644-64.903 43.644-106.366s-16.664-79.035-43.66-106.382c-27.599-26.111-64.97-42.174-106.093-42.174s-78.494 16.063-106.181 42.258c-27.862 26.13-45.265 63.269-45.265 104.472 0 0.552 0.003 1.103 0.009 1.653-0.386 5.002-0.606 10.933-0.606 16.914s0.22 11.911 0.652 17.783l-360.61 212.978c-27.112-24.041-62.999-38.724-102.315-38.724-1.878 0-3.747 0.033-5.609 0.1-0.199-0.013-0.753-0.016-1.308-0.016-81.929 0-148.346 66.417-148.346 148.346 0 1.090 0.012 2.177 0.035 3.261-0.085 1.69-0.133 3.861-0.133 6.044 0 81.929 66.417 148.346 148.346 148.346 0.951 0 1.9-0.009 2.847-0.027 0.65 0.017 1.584 0.025 2.521 0.025 40.093 0 76.621-15.269 104.083-40.31l360.441 210.267c-0.7 5.413-1.1 11.674-1.1 18.028s0.4 12.615 1.175 18.759c-0.086-0.031-0.093 0.795-0.093 1.622 0 42.204 16.48 80.559 43.355 108.981 26.616 26.75 63.557 43.35 104.375 43.35 2.397 0 4.78-0.057 7.149-0.17 0.957 0.053 2.475 0.076 3.998 0.076 40.771 0 77.674-16.563 104.347-43.327 25.647-26.704 41.438-63.034 41.438-103.053 0-2.888-0.082-5.758-0.245-8.605 0.065-1.010 0.093-2.661 0.093-4.318 0-40.978-16.558-78.089-43.348-105.008-26.564-27.639-63.852-44.814-105.152-44.814-0.516 0-1.030 0.003-1.545 0.008-1.162-0.037-2.621-0.058-4.085-0.058-40.128 0-76.586 15.715-103.556 41.326l-360.498-212.794c3.087-10.889 4.862-23.394 4.862-36.314s-1.775-25.425-5.094-37.285l365.431-208.67c27.423 23.923 63.505 38.54 102.999 38.632 40.353-1.592 76.474-18.407 103.045-44.82z" />
<glyph unicode="&#xe950;" glyph-name="top" d="M576-64h-129.293v775.758l-355.556-354.909-91.152 91.152 512 512 512-512-90.505-91.152-357.495 354.909z" />
<glyph unicode="&#xe951;" glyph-name="youtube-play" horiz-adv-x="1446" d="M1446.343 448c0-512 0-512-723.119-512s-723.224 0-723.224 512 0 512 723.224 512 723.119 0 723.119-512zM994.393 448l-452.054 271.379v-542.548z" />
</font>
</defs>
</svg>
