<svg xmlns="http://www.w3.org/2000/svg" width="233.96" height="33.51" viewBox="0 0 233.96 33.51">
  <title>EFRE.NRW</title>
  <g id="Ebene_2" data-name="Ebene 2">
    <g id="Icons">
      <g>
        <path d="M38.85,26.83c-3.89,0-6.11-3.68-6.11-10.77s2.1-10.64,6.11-10.64S45,9,45,16.07s-2.1,10.77-6.11,10.77m0,5.3c8.18,0,12.83-6.39,12.83-16.07S47,0,38.85,0,26,6.39,26,16.07s4.78,16.07,12.87,16.07M0,31.57H22.78V26.22H8.09c.16-1.82,3.16-4.13,7.61-7,5.95-3.76,6.88-6.84,6.88-10.24,0-5.46-3.84-9-10.48-9C6.6,0,3,2.63.28,6.72l4.82,3.4c1.78-2.83,4.37-4.45,6.8-4.45,2.59,0,4,1.46,4,3.76,0,3.16-1.9,4.33-6.68,7.37C1.09,22.06,0,26.39,0,30.88Z" fill="#175798"/>
        <path d="M75.4,31.57a10.25,10.25,0,0,0,.69-4c0-5.46-3.8-9-10.44-9-5.46,0-9.11,2.63-11.82,6.72l4.82,3.4c1.78-2.83,4.37-4.45,6.8-4.45,2.59,0,4,1.46,4,3.76a4.79,4.79,0,0,1-1.34,3.52H75.4m29.67,0c-.93-7.89-5.42-13-12.67-13s-11.78,5.06-12.71,13h6.76Q87.3,24,92.39,24c3.28,0,5.34,2.51,5.95,7.53Z" fill="#009a51"/>
        <path d="M62,.57V10.72H56.34V16H74.1V10.77H68.52V.57H62m31.61,0V5.26h-8L88.83.61H82.16l-3.6,5.06V10.6h15v5.46h6.56V10.6h5.46V5.26h-5.46V.57Z" fill="#e1241c"/>
        <path d="M162.25,7.89h1.38l1.21-5.1L166,7.89h1.38l1.9-7.28h-1.5L167.06,4c-.12.61-.24.89-.32,1.54a10,10,0,0,0-.36-1.58L165.57.57h-1.5l-.73,3.32A15.47,15.47,0,0,0,163,5.46h0a10.46,10.46,0,0,0-.36-1.62L161.84.53h-1.62l2,7.37m-6.72-4v-2h1.09c.93,0,1.38.28,1.38,1s-.45,1-1.38,1Zm-1.58,4h1.58V5.14h.93L158,7.89h1.7l-1.62-3a2,2,0,0,0,1.54-2.06c0-1.62-1.09-2.27-2.87-2.27H154V7.89Zm-7.81,0h1.5V3.2l3.2,4.69h1.5V.61h-1.5V5.26L147.76.61h-1.62Zm-3.2,0h1.7V6.35h-1.7Zm-6.52,0h5.14V6.6H138V4.78h2.43V3.48H138V1.94h3.36V.57h-5V7.89Zm-5.42-4v-2h1.09c.93,0,1.38.28,1.38,1s-.45,1-1.38,1Zm-1.58,4H131V5.14h.93l1.54,2.75h1.7l-1.62-3a2,2,0,0,0,1.54-2.06c0-1.62-1.09-2.27-2.87-2.27h-2.75V7.89Zm-5.87,0h1.62V5h2.31V3.72h-2.31V1.94h3.24V.57H123.6V7.89Zm-6.35,0h5.14V6.6h-3.56V4.78h2.43V3.48h-2.43V1.94h3.36V.57h-5V7.89Z"/>
        <path d="M198.47,33.11c-1.38,0-2-.36-2-.93s.32-.85,1-1.05a.51.51,0,0,1,.24,0l1.05.08c1,.08,1.46.36,1.46.93s-.65.93-1.78.93m-.12-3.52a1.39,1.39,0,0,1-1.54-1.42,1.41,1.41,0,0,1,1.5-1.46,1.38,1.38,0,0,1,1.54,1.46,1.36,1.36,0,0,1-1.5,1.42m.12,3.93c1.34,0,2.27-.53,2.27-1.42s-.65-1.17-1.7-1.3l-1.21-.12c-.65,0-.81-.2-.81-.4s.2-.36.45-.49a2.18,2.18,0,0,0,.89.16,1.85,1.85,0,0,0,2-1.82A1.62,1.62,0,0,0,200,27a2.6,2.6,0,0,1,1-.2v-.53a2.73,2.73,0,0,0-1.17.45,2.1,2.1,0,0,0-1.42-.53,1.89,1.89,0,0,0-2,1.86,1.74,1.74,0,0,0,.77,1.5c-.36.16-.61.4-.61.69a.64.64,0,0,0,.49.65,1.27,1.27,0,0,0-1,1.21c0,.89.77,1.38,2.43,1.38m-7.61-1.94h.49V27.68a2.89,2.89,0,0,1,1.94-1c.77,0,1.13.36,1.13,1.17v3.68h.49V27.84a1.4,1.4,0,0,0-1.58-1.54,2.83,2.83,0,0,0-2,1v-.85h-.49Zm-4.17.08a2.83,2.83,0,0,0,2-1v.89h.49V26.39h-.49v3.89a2.89,2.89,0,0,1-1.94,1c-.77,0-1.13-.36-1.13-1.17V26.39h-.49v3.72a1.38,1.38,0,0,0,1.58,1.54m-5.22,1.46c-1.38,0-2-.36-2-.93s.32-.85,1-1.05a.51.51,0,0,1,.24,0l1.05.08c1,.08,1.46.36,1.46.93s-.65.93-1.78.93m-.12-3.52a1.39,1.39,0,0,1-1.54-1.42,1.41,1.41,0,0,1,1.5-1.46,1.44,1.44,0,1,1,0,2.87m.12,3.93c1.34,0,2.27-.53,2.27-1.42s-.65-1.17-1.7-1.3l-1.21-.12c-.65,0-.81-.2-.81-.4s.2-.36.45-.49a2.18,2.18,0,0,0,.89.16,1.85,1.85,0,0,0,2-1.82A1.62,1.62,0,0,0,183,27a2.6,2.6,0,0,1,1-.2v-.53a2.73,2.73,0,0,0-1.17.45,2.1,2.1,0,0,0-1.42-.53,1.89,1.89,0,0,0-2,1.86,1.74,1.74,0,0,0,.77,1.5c-.36.16-.61.4-.61.69a.64.64,0,0,0,.49.65,1.27,1.27,0,0,0-1,1.21c0,.89.77,1.38,2.43,1.38m-4.09-1.94h.49V26.39h-.49Zm0-6.48h.53v-.61h-.53Zm-1.86,6.52c.2,0,.4,0,.57,0v-.45a2.05,2.05,0,0,1-.53.08c-.65,0-.85-.32-.85-.85V26.83H176v-.4h-1.34V24.57h-.49v1.86h-.89v.4h.89v3.6c0,.85.45,1.17,1.3,1.17m-4.69,0h.49V26.83h1.13v-.4h-1.13V25.5c0-.57.36-.77.89-.77h.32v-.45h-.24c-.85,0-1.42.36-1.42,1.25v.89h-.89v.4h.89v4.74Zm-4.53-.32c-.65,0-1-.32-1-.89,0-.73.57-1.34,3.08-1.78v1.78a3.18,3.18,0,0,1-2.06.89m0,.4a3.32,3.32,0,0,0,2.1-.85,2.19,2.19,0,0,0,.12.77h.49a3.33,3.33,0,0,1-.16-1.3V27.84a1.43,1.43,0,0,0-1.58-1.58,3,3,0,0,0-2.27,1l.28.28a2.72,2.72,0,0,1,2-.85,1.05,1.05,0,0,1,1.13,1.17v.32c-2.71.45-3.56,1.17-3.56,2.19,0,.81.53,1.3,1.46,1.3m-.28-5.83h.65v-.65h-.65Zm1.62,0h.65v-.65h-.65Zm-8.18,5.75h.49V27.68a2.89,2.89,0,0,1,1.94-1c.77,0,1.13.36,1.13,1.17v3.68h.49V27.84a1.4,1.4,0,0,0-1.58-1.54,2.83,2.83,0,0,0-2,1v-3h-.49Zm-3.36.08a2.08,2.08,0,0,0,2-1.42l-.36-.2c-.4.77-.81,1.17-1.58,1.17-.93,0-1.7-.85-1.7-2.27,0-1.66.93-2.27,1.74-2.27a1.59,1.59,0,0,1,1.54,1.17l.4-.2a2,2,0,0,0-1.9-1.38c-1.17,0-2.23.89-2.23,2.67s.93,2.71,2.1,2.71m-5.26,0c1.17,0,1.94-.57,1.94-1.42s-.53-1.25-2-1.62c-1-.24-1.3-.49-1.3-1s.36-.85,1.21-.85a2,2,0,0,1,1.54.65l.32-.32a2.39,2.39,0,0,0-1.82-.77c-1.09,0-1.7.65-1.7,1.3,0,.81.45,1.13,1.74,1.46s1.54.53,1.54,1.17-.49,1-1.46,1a2,2,0,0,1-1.62-.81l-.32.28a2.24,2.24,0,0,0,1.9.93m-6.8-3c.12-1.3.89-1.9,1.7-1.9,1,0,1.5.85,1.58,1.9Zm1.7,3a2.12,2.12,0,0,0,2-1.25l-.32-.2a1.76,1.76,0,0,1-1.66,1.05c-1,0-1.74-.85-1.74-2.27h3.76V28.9c0-1.62-.81-2.63-2-2.63s-2.19.89-2.19,2.67,1,2.71,2.14,2.71m-8.05-.57V28h2c1.34,0,2.19.49,2.19,1.54s-.61,1.5-1.94,1.5H137.6Zm0-3.48V24.73h1.94c1.34,0,1.94.45,1.94,1.42s-.73,1.46-2,1.46Zm-.49,4h2.67c1.74,0,2.47-.89,2.47-2a1.84,1.84,0,0,0-1.66-1.78A1.67,1.67,0,0,0,142,26.14c0-1.09-.73-1.82-2.43-1.82h-2.43v7.24Zm-6.52-.32c-.89,0-1.7-.69-1.7-2.27s.77-2.27,1.66-2.27a2.5,2.5,0,0,1,1.78.93v2.67a2.43,2.43,0,0,1-1.74.93m0,.4a2.33,2.33,0,0,0,1.74-.85,2,2,0,0,0,.12.77h.53a3.33,3.33,0,0,1-.16-1.3v-6h-.45v2.87a2.41,2.41,0,0,0-1.74-.85c-1.21,0-2.19.89-2.19,2.67s1,2.67,2.14,2.67m-7.61-.08h.49V27.68a2.89,2.89,0,0,1,1.94-1c.77,0,1.13.36,1.13,1.17v3.68H127V27.84a1.4,1.4,0,0,0-1.58-1.54,2.83,2.83,0,0,0-2,1v-.85h-.49Zm-4.17.08a2.83,2.83,0,0,0,2-1v.89h.49V26.39h-.49v3.89a2.89,2.89,0,0,1-1.94,1c-.77,0-1.13-.36-1.13-1.17V26.39h-.49v3.72a1.38,1.38,0,0,0,1.58,1.54"/>
        <path d="M226.6,19.47h.49V15.58a2.81,2.81,0,0,1,1.9-1c.81,0,1.05.36,1.05,1.17v3.68h.49V15.58a2.81,2.81,0,0,1,1.9-1c.77,0,1.05.36,1.05,1.17v3.68H234V15.74a1.36,1.36,0,0,0-1.5-1.54,3.09,3.09,0,0,0-2,1,1.3,1.3,0,0,0-1.42-1,2.74,2.74,0,0,0-1.94,1v-.85h-.49v5.14h0m-4.17.12a2.83,2.83,0,0,0,2-1v.85h.49V14.33h-.49v3.89a2.89,2.89,0,0,1-1.94,1c-.77,0-1.13-.36-1.13-1.17V14.33h-.49V18a1.4,1.4,0,0,0,1.58,1.54m-3.4,0c.2,0,.4,0,.57,0v-.45a2.05,2.05,0,0,1-.53.08c-.65,0-.85-.32-.85-.85V14.77h1.34v-.4h-1.34V12.51h-.49v1.86h-.89v.4h.89v3.6c0,.81.45,1.17,1.3,1.17m-5.06,0c1.17,0,1.94-.57,1.94-1.42s-.53-1.25-1.94-1.62c-1-.24-1.3-.49-1.3-1s.36-.85,1.21-.85a2,2,0,0,1,1.54.65l.28-.32a2.39,2.39,0,0,0-1.82-.77c-1.09,0-1.7.65-1.7,1.3,0,.81.45,1.13,1.74,1.46s1.54.53,1.54,1.17-.49,1-1.46,1a2,2,0,0,1-1.62-.81l-.32.28a2.24,2.24,0,0,0,1.9.93m-7.24-.08h.49V15.58a2.89,2.89,0,0,1,1.94-1c.77,0,1.13.36,1.13,1.17v3.68h.49V15.74a1.4,1.4,0,0,0-1.58-1.54,2.83,2.83,0,0,0-2,1v-3h-.49Zm-3.36.12a2.08,2.08,0,0,0,2-1.42L205,18c-.4.77-.81,1.17-1.58,1.17-.93,0-1.7-.85-1.7-2.27,0-1.66.93-2.27,1.74-2.27A1.59,1.59,0,0,1,205,15.78l.4-.2a2,2,0,0,0-1.9-1.38c-1.17,0-2.23.89-2.23,2.67s.93,2.71,2.1,2.71m-6.07-.45c-.65,0-1-.32-1-.89,0-.73.57-1.34,3.08-1.78v1.78a3,3,0,0,1-2.06.89m0,.4a3.32,3.32,0,0,0,2.1-.85,2.19,2.19,0,0,0,.12.77H200a3.33,3.33,0,0,1-.16-1.3V15.74a1.43,1.43,0,0,0-1.58-1.58,3,3,0,0,0-2.27,1l.28.28a2.72,2.72,0,0,1,2-.85,1.05,1.05,0,0,1,1.13,1.17v.32c-2.71.45-3.56,1.17-3.56,2.19,0,.81.49,1.3,1.46,1.3m-8.42-.08h.49l1.66-6.6,1.62,6.6h.49L195,12.22h-.49L193.29,17c-.16.65-.32,1.21-.45,1.78-.08-.53-.28-1.13-.45-1.82l-1.17-4.69h-.57l-1.17,4.65c-.16.69-.32,1.42-.45,1.86-.12-.49-.28-1.17-.45-1.86l-1.21-4.65h-.49Zm-9.67,0h.49V15.58a2.89,2.89,0,0,1,1.94-1c.77,0,1.13.36,1.13,1.17v3.68h.49V15.74a1.4,1.4,0,0,0-1.58-1.54,2.83,2.83,0,0,0-2,1v-.85h-.49Zm-2.23,0h.49V14.33h-.49Zm0-6.48h.53v-.61h-.53Zm-8.18,6.48h.49V15.58a2.89,2.89,0,0,1,1.94-1c.77,0,1.13.36,1.13,1.17v3.68h.49V15.74a1.4,1.4,0,0,0-1.58-1.54,2.83,2.83,0,0,0-2,1v-.85h-.49Zm-5.22-3c.12-1.3.89-1.9,1.7-1.9,1,0,1.5.85,1.58,1.9Zm1.7,3.08a2.12,2.12,0,0,0,2-1.25l-.32-.2a1.76,1.76,0,0,1-1.66,1.05c-1,0-1.74-.85-1.74-2.27h3.76v-.08c0-1.62-.81-2.63-2-2.63s-2.19.89-2.19,2.67,1,2.71,2.14,2.71m-7.61-.12h.49V15.58a2.89,2.89,0,0,1,1.94-1c.77,0,1.13.36,1.13,1.17v3.68h.49V15.74a1.4,1.4,0,0,0-1.58-1.54,2.83,2.83,0,0,0-2,1v-.85h-.49Zm-3.72-.28c-1.17,0-1.78-1.05-1.78-2.27s.69-2.27,1.78-2.27,1.78,1.05,1.78,2.27-.69,2.27-1.78,2.27m0,.4a2.41,2.41,0,0,0,2.27-2.67,2.38,2.38,0,0,0-2.27-2.67c-1.3,0-2.27,1-2.27,2.67a2.41,2.41,0,0,0,2.27,2.67m-4.21-.12h.49V14.33h-.49Zm0-6.48h.53v-.61h-.53Zm-1.9,6.56c.2,0,.4,0,.57,0v-.45a2.05,2.05,0,0,1-.53.08c-.65,0-.85-.32-.85-.85V14.77h1.34v-.4H147V12.51h-.49v1.86h-.89v.4h.89v3.6c0,.81.45,1.17,1.3,1.17M144,19.47h.49V14.33H144ZM144,13h.53v-.61H144Zm-1.9,6.56c.2,0,.4,0,.57,0v-.45a2.05,2.05,0,0,1-.53.08c-.65,0-.85-.32-.85-.85V14.77h1.34v-.4h-1.34V12.51h-.49v1.86h-.89v.4h.89v3.6c0,.81.45,1.17,1.3,1.17m-5,0c1.17,0,1.94-.57,1.94-1.42s-.53-1.25-1.94-1.62c-1-.24-1.3-.49-1.3-1s.36-.85,1.21-.85a2,2,0,0,1,1.54.65l.32-.32a2.39,2.39,0,0,0-1.82-.77c-1.09,0-1.7.65-1.7,1.3,0,.81.45,1.13,1.74,1.46s1.54.53,1.54,1.17-.49,1-1.46,1a2,2,0,0,1-1.62-.81l-.32.28a2,2,0,0,0,1.86.93m-6.8-3c.12-1.3.89-1.9,1.7-1.9,1,0,1.5.85,1.58,1.9Zm1.7,3.08a2.12,2.12,0,0,0,2-1.25l-.32-.2A1.76,1.76,0,0,1,132,19.18c-1,0-1.74-.85-1.74-2.27H134v-.08c0-1.62-.81-2.63-2-2.63s-2.19.89-2.19,2.67,1,2.71,2.14,2.71m-5.34-.08h.49l1.9-5.18h-.53l-1.62,4.57-1.62-4.57h-.53Zm-7,0h.49V15.58a2.89,2.89,0,0,1,1.94-1c.77,0,1.13.36,1.13,1.17v3.68h.49V15.74a1.4,1.4,0,0,0-1.58-1.54,2.83,2.83,0,0,0-2,1v-.85h-.49Zm-2.43,0h.49V12.22h-.49Z"/>
      </g>
    </g>
  </g>
</svg>
