<svg xmlns="http://www.w3.org/2000/svg" width="209.73" height="43.39" viewBox="0 0 209.73 43.39">
  <title>EU Logo</title>
  <g id="Ebene_2" data-name="Ebene 2">
    <g id="Icons">
      <g>
        <g>
          <rect y="1.33" width="60" height="40" fill="#164194"/>
          <path d="M30.09,21.33" fill="#164194"/>
        </g>
        <g>
          <polygon points="28.78 10.51 30.01 9.62 31.24 10.51 30.77 9.06 32.02 8.17 30.48 8.17 30.01 6.7 29.54 8.17 28 8.17 29.25 9.06 28.78 10.51" fill="#ffe400"/>
          <polygon points="22.42 12.22 23.65 11.32 24.88 12.22 24.41 10.77 25.66 9.88 24.12 9.88 23.65 8.41 23.18 9.88 21.64 9.88 22.89 10.77 22.42 12.22" fill="#ffe400"/>
          <polygon points="19 13.07 18.53 14.54 16.99 14.54 18.24 15.43 17.77 16.88 19 15.99 20.23 16.88 19.76 15.43 21.01 14.54 19.47 14.54 19 13.07" fill="#ffe400"/>
          <polygon points="17.29 22.34 18.52 23.23 18.05 21.78 19.3 20.89 17.76 20.89 17.29 19.42 16.82 20.89 15.28 20.89 16.53 21.78 16.06 23.23 17.29 22.34" fill="#ffe400"/>
          <polygon points="19.47 27.26 19 25.79 18.53 27.26 16.99 27.26 18.24 28.15 17.77 29.6 19 28.7 20.23 29.6 19.76 28.15 21.01 27.26 19.47 27.26" fill="#ffe400"/>
          <polygon points="24.13 31.92 23.66 30.45 23.19 31.92 21.65 31.92 22.9 32.81 22.43 34.26 23.66 33.37 24.89 34.26 24.42 32.81 25.67 31.92 24.13 31.92" fill="#ffe400"/>
          <polygon points="30.48 33.61 30.01 32.14 29.54 33.61 28 33.61 29.25 34.5 28.78 35.95 30.01 35.06 31.24 35.95 30.77 34.5 32.02 33.61 30.48 33.61" fill="#ffe400"/>
          <polygon points="36.83 31.92 36.36 30.45 35.89 31.92 34.35 31.92 35.6 32.81 35.13 34.26 36.36 33.37 37.59 34.26 37.12 32.81 38.37 31.92 36.83 31.92" fill="#ffe400"/>
          <polygon points="41.49 27.26 41.02 25.79 40.55 27.26 39.01 27.26 40.26 28.15 39.79 29.6 41.02 28.7 42.25 29.6 41.78 28.15 43.03 27.26 41.49 27.26" fill="#ffe400"/>
          <polygon points="44.72 20.87 43.18 20.87 42.71 19.4 42.24 20.87 40.7 20.87 41.95 21.77 41.48 23.22 42.71 22.32 43.94 23.22 43.47 21.77 44.72 20.87" fill="#ffe400"/>
          <polygon points="39.79 16.86 41.02 15.97 42.25 16.86 41.78 15.41 43.03 14.52 41.49 14.52 41.02 13.05 40.55 14.52 39.01 14.52 40.26 15.41 39.79 16.86" fill="#ffe400"/>
          <polygon points="36.38 8.41 35.91 9.88 34.37 9.88 35.62 10.77 35.15 12.22 36.38 11.32 37.6 12.22 37.14 10.77 38.39 9.88 36.85 9.88 36.38 8.41" fill="#ffe400"/>
        </g>
        <g>
          <path d="M75,1.28h4.42v.66H75.7V4.45h2.77v.64H75.7V8h3.92v.65H75Z"/>
          <path d="M80.87,6.18V1.28h.71V6.06a1.87,1.87,0,0,0,2,2.11,1.84,1.84,0,0,0,2-2.09V1.28h.71V6.16a2.49,2.49,0,0,1-2.7,2.65A2.46,2.46,0,0,1,80.87,6.18Z"/>
          <path d="M88.15,1.28h2.48c1.65,0,2.57.7,2.57,2a1.9,1.9,0,0,1-1.77,2l1.87,3.4h-.8L90.69,5.36H88.85V8.67h-.7Zm2.43,3.45c1.22,0,1.91-.35,1.91-1.42s-.68-1.38-1.92-1.38H88.85v2.8Z"/>
          <path d="M94.47,5c0-2.32,1.31-3.84,3.12-3.84s3.12,1.52,3.12,3.84S99.4,8.81,97.59,8.81,94.47,7.29,94.47,5ZM100,5c0-2-1-3.19-2.41-3.19S95.18,3,95.18,5s1,3.2,2.41,3.2S100,7,100,5Z"/>
          <path d="M102.34,1.28h2.46c1.61,0,2.59.66,2.59,2s-1.1,2.1-2.66,2.1H103V8.67h-.71Zm2.44,3.49c1.22,0,1.9-.38,1.9-1.45s-.67-1.39-1.91-1.39H103V4.77Z"/>
          <path d="M110.27,1.25H111l2.62,7.43h-.74l-.79-2.28h-3l-.79,2.28h-.69Zm1.64,4.52-1.27-3.68h0l-1.27,3.68ZM109.38,0h.77V.82h-.77Zm1.76,0h.77V.82h-.77Z"/>
          <path d="M115.05,1.28h.71v7.4h-.71Z"/>
          <path d="M117.32,6.86l.63-.23a2.08,2.08,0,0,0,2.12,1.56c1.11,0,1.83-.51,1.83-1.34s-.37-1.16-1.94-1.66-2.4-.93-2.4-2.15a2.07,2.07,0,0,1,2.3-1.9,2.47,2.47,0,0,1,2.54,1.7l-.6.28a1.89,1.89,0,0,0-1.95-1.34c-1,0-1.59.53-1.59,1.21s.49,1.11,2,1.61,2.3,1,2.3,2.2-1.09,2-2.57,2A2.66,2.66,0,0,1,117.32,6.86Z"/>
          <path d="M123.82,4.95c0-2.24,1.23-3.81,3.08-3.81a2.62,2.62,0,0,1,2.68,2.26l-.68.17c-.33-1.17-.88-1.78-2-1.78-1.43,0-2.36,1.24-2.36,3.14s.94,3.25,2.38,3.25c1.1,0,1.79-.64,2.11-1.88l.68.15a2.78,2.78,0,0,1-2.8,2.37C125,8.81,123.82,7.31,123.82,4.95Z"/>
          <path d="M131.17,1.28h.71V4.45h4V1.28h.71v7.4h-.71V5.1h-4V8.67h-.71Z"/>
          <path d="M138.54,1.28H143v.66h-3.71V4.45H142v.64h-2.77V8h3.92v.65h-4.63Z"/>
          <path d="M146.77,6.18V1.28h.71V6.06a1.87,1.87,0,0,0,2,2.11,1.84,1.84,0,0,0,2-2.09V1.28h.71V6.16a2.49,2.49,0,0,1-2.7,2.65A2.46,2.46,0,0,1,146.77,6.18Z"/>
          <path d="M154.06,1.28h.76l4.08,6.1h0V1.28h.67v7.4H159l-4.21-6.29h0V8.67h-.67Z"/>
          <path d="M161.59,1.28h.71v7.4h-.71Z"/>
          <path d="M164,5c0-2.32,1.31-3.84,3.12-3.84s3.12,1.52,3.12,3.84-1.31,3.84-3.12,3.84S164,7.29,164,5Zm5.53,0c0-2-1-3.19-2.41-3.19S164.66,3,164.66,5s1,3.2,2.41,3.2S169.48,7,169.48,5Z"/>
          <path d="M171.81,1.28h.76l4.08,6.1h0V1.28h.67v7.4h-.63L172.5,2.39h0V8.67h-.67Z"/>
          <path d="M75.09,12.18h.71v7.4h-.71Z" fill="#164194"/>
          <path d="M77.63,14.31h.69v.83a2.89,2.89,0,0,1,2-.93,1.41,1.41,0,0,1,1.57,1.56v3.81h-.69V15.9c0-.74-.33-1.1-1-1.1a2.65,2.65,0,0,0-1.84.92v3.86h-.69Z" fill="#164194"/>
          <path d="M82.83,14.31h.74l1.56,4.45h0l1.55-4.45h.7l-1.94,5.29h-.69Z" fill="#164194"/>
          <path d="M88.05,16.94a2.43,2.43,0,0,1,2.31-2.73c1.23,0,2.15.94,2.15,2.74v.13H88.74c0,1.3.75,2,1.66,2a1.78,1.78,0,0,0,1.64-1l.43.34a2.32,2.32,0,0,1-2.11,1.2C89.13,19.68,88.05,18.74,88.05,16.94Zm3.79-.41c-.07-1-.55-1.74-1.49-1.74-.76,0-1.47.55-1.6,1.74Z" fill="#164194"/>
          <path d="M93.52,18.74l.44-.4a2.06,2.06,0,0,0,1.64.76c.9,0,1.37-.33,1.37-.92s-.42-.81-1.45-1c-1.21-.3-1.83-.62-1.83-1.54,0-.75.65-1.38,1.79-1.38a2.59,2.59,0,0,1,1.95.76l-.39.46a2.1,2.1,0,0,0-1.54-.65c-.82,0-1.14.38-1.14.78s.36.72,1.28.94c1.32.32,2,.64,2,1.67s-.86,1.51-2,1.51A2.53,2.53,0,0,1,93.52,18.74Z" fill="#164194"/>
          <path d="M99.42,18.35V14.9H98.5v-.59h.92V12.42h.69v1.89h1.37v.59H100.1v3.31c0,.56.18.86.83.86a1.84,1.84,0,0,0,.55-.07v.59a4,4,0,0,1-.68.06C99.79,19.64,99.42,19.25,99.42,18.35Z" fill="#164194"/>
          <path d="M102.69,12.35h.73v.74h-.73Zm0,2h.69v5.27h-.69Z" fill="#164194"/>
          <path d="M104.77,16.95a2.41,2.41,0,1,1,4.77,0,2.41,2.41,0,1,1-4.77,0Zm4.08,0c0-1.15-.58-2.14-1.69-2.14s-1.7.9-1.7,2.14.57,2.16,1.7,2.16S108.85,18.21,108.85,16.94Z" fill="#164194"/>
          <path d="M110.89,14.31h.69v.83a2.89,2.89,0,0,1,2-.93,1.41,1.41,0,0,1,1.57,1.56v3.81h-.69V15.9c0-.74-.33-1.1-1-1.1a2.65,2.65,0,0,0-1.84.92v3.86h-.69Z" fill="#164194"/>
          <path d="M116.49,16.94a2.43,2.43,0,0,1,2.31-2.73c1.23,0,2.15.94,2.15,2.74v.13h-3.77c0,1.3.75,2,1.66,2a1.78,1.78,0,0,0,1.64-1l.43.34a2.32,2.32,0,0,1-2.11,1.2C117.56,19.68,116.49,18.74,116.49,16.94Zm3.79-.41c-.07-1-.55-1.74-1.49-1.74-.76,0-1.47.55-1.6,1.74Z" fill="#164194"/>
          <path d="M122.3,14.31H123v.83a2.89,2.89,0,0,1,2-.93,1.41,1.41,0,0,1,1.57,1.56v3.81h-.69V15.9c0-.74-.33-1.1-1-1.1a2.65,2.65,0,0,0-1.84.92v3.86h-.69Z" fill="#164194"/>
          <path d="M130.41,12.35h.73v.74h-.73Zm0,2h.69v5.27h-.69Z" fill="#164194"/>
          <path d="M132.77,14.31h.69v.83a2.89,2.89,0,0,1,2-.93A1.41,1.41,0,0,1,137,15.77v3.81h-.69V15.9c0-.74-.33-1.1-1-1.1a2.65,2.65,0,0,0-1.84.92v3.86h-.69Z" fill="#164194"/>
          <path d="M140.79,18.12V14.31h.69V18c0,.74.32,1.1,1,1.1a2.7,2.7,0,0,0,1.83-.92V14.31h.7v5.27h-.7v-.83a2.89,2.89,0,0,1-2,.94A1.41,1.41,0,0,1,140.79,18.12Z" fill="#164194"/>
          <path d="M146.69,14.31h.69v.83a2.89,2.89,0,0,1,2-.93A1.41,1.41,0,0,1,151,15.77v3.81h-.69V15.9c0-.74-.33-1.1-1-1.1a2.65,2.65,0,0,0-1.84.92v3.86h-.69Z" fill="#164194"/>
          <path d="M152.15,18.74l.44-.4a2.06,2.06,0,0,0,1.64.76c.9,0,1.37-.33,1.37-.92s-.42-.81-1.45-1c-1.21-.3-1.83-.62-1.83-1.54,0-.75.65-1.38,1.79-1.38a2.59,2.59,0,0,1,1.95.76l-.39.46a2.1,2.1,0,0,0-1.54-.65c-.82,0-1.14.38-1.14.78s.36.72,1.28.94c1.32.32,2,.64,2,1.67s-.86,1.51-2,1.51A2.53,2.53,0,0,1,152.15,18.74Z" fill="#164194"/>
          <path d="M157.33,16.94a2.43,2.43,0,0,1,2.31-2.73c1.23,0,2.15.94,2.15,2.74v.13H158c0,1.3.75,2,1.66,2a1.78,1.78,0,0,0,1.64-1l.43.34a2.32,2.32,0,0,1-2.11,1.2C158.4,19.68,157.33,18.74,157.33,16.94Zm3.79-.41c-.07-1-.55-1.74-1.49-1.74-.76,0-1.47.55-1.6,1.74Z" fill="#164194"/>
          <path d="M163.14,14.31h.69v1h0a2.32,2.32,0,0,1,2.09-1.14h.12l-.07.64h-.21a2.13,2.13,0,0,0-1.95,1.31v3.43h-.69Z" fill="#164194"/>
          <path d="M166.67,16.94A2.43,2.43,0,0,1,169,14.21c1.23,0,2.15.94,2.15,2.74v.13h-3.77c0,1.3.75,2,1.66,2a1.78,1.78,0,0,0,1.64-1l.43.34a2.32,2.32,0,0,1-2.11,1.2C167.75,19.68,166.67,18.74,166.67,16.94Zm3.79-.41c-.07-1-.55-1.74-1.49-1.74-.76,0-1.47.55-1.6,1.74Z" fill="#164194"/>
          <path d="M174.31,19.06l4.44-6.29H174.6v-.6h5v.52L175.19,19h4.42v.6h-5.3Z" fill="#164194"/>
          <path d="M180.83,18.12V14.31h.69V18c0,.74.32,1.1,1,1.1a2.7,2.7,0,0,0,1.83-.92V14.31h.7v5.27h-.7v-.83a2.89,2.89,0,0,1-2,.94A1.41,1.41,0,0,1,180.83,18.12Z" fill="#164194"/>
          <path d="M186.73,12.18h.69v4.91l2.51-2.78h.81L189,16.17l1.93,3.41h-.75l-1.64-2.88-1.14,1.22v1.66h-.69Z" fill="#164194"/>
          <path d="M192,18.12V14.31h.69V18c0,.74.32,1.1,1,1.1a2.7,2.7,0,0,0,1.83-.92V14.31h.7v5.27h-.7v-.83a2.89,2.89,0,0,1-2,.94A1.41,1.41,0,0,1,192,18.12Z" fill="#164194"/>
          <path d="M197.85,14.31h.69v.83a2.89,2.89,0,0,1,2-.93,1.41,1.41,0,0,1,1.57,1.56v3.81h-.69V15.9c0-.74-.33-1.1-1-1.1a2.65,2.65,0,0,0-1.84.92v3.86h-.69Z" fill="#164194"/>
          <path d="M204.07,14.9h-.92v-.59h.92v-.79c0-.89.51-1.35,1.51-1.35l.4,0v.58l-.35,0c-.51,0-.87.19-.87.76v.8h1.16v.59h-1.16v4.68h-.69Z" fill="#164194"/>
          <path d="M207.66,18.35V14.9h-.92v-.59h.92V12.42h.69v1.89h1.37v.59h-1.37v3.31c0,.56.18.86.83.86a1.84,1.84,0,0,0,.55-.07v.59a4,4,0,0,1-.68.06C208,19.64,207.66,19.25,207.66,18.35Z" fill="#164194"/>
          <path d="M75,23.08h4.42v.66H75.7v2.51h2.77v.64H75.7v2.94h3.92v.65H75Z"/>
          <path d="M80.81,29V25.21h.69V28.9c0,.74.32,1.1,1,1.1a2.7,2.7,0,0,0,1.83-.92V25.21h.7v5.27h-.7v-.83a2.89,2.89,0,0,1-2,.94A1.41,1.41,0,0,1,80.81,29Z"/>
          <path d="M86.71,25.21h.69v1h0a2.32,2.32,0,0,1,2.09-1.14h.12l-.07.64h-.21A2.13,2.13,0,0,0,87.4,27v3.43h-.69Z"/>
          <path d="M90.24,27.85a2.41,2.41,0,1,1,4.77,0,2.41,2.41,0,1,1-4.77,0Zm4.08,0c0-1.15-.58-2.14-1.69-2.14s-1.7.9-1.7,2.14S91.5,30,92.63,30,94.31,29.11,94.31,27.84Z"/>
          <path d="M96.36,25.21H97V26a2.35,2.35,0,0,1,1.76-.85c1.21,0,2.17.89,2.17,2.73s-1,2.73-2.23,2.73a2.36,2.36,0,0,1-1.7-.81v2.72h-.69Zm3.93,2.64c0-1.46-.72-2.15-1.6-2.15a2.23,2.23,0,0,0-1.64.87v2.56a2.25,2.25,0,0,0,1.64.86C99.62,30,100.29,29.34,100.29,27.85Z"/>
          <path d="M102,29.25c0-1,.89-1.8,3.57-2.21v-.27a1,1,0,0,0-1.07-1.08,2.86,2.86,0,0,0-2,.83l-.37-.43a3.36,3.36,0,0,1,2.4-1,1.5,1.5,0,0,1,1.69,1.68v2.39a3.65,3.65,0,0,0,.15,1.3h-.71a2.34,2.34,0,0,1-.12-.75,3,3,0,0,1-2.08.84C102.56,30.56,102,30.06,102,29.25Zm3.57-.08V27.53c-2.26.38-2.89.94-2.89,1.63s.37.84,1,.84A2.75,2.75,0,0,0,105.57,29.17Zm-2.45-5.34h.77v.82h-.77Zm1.76,0h.77v.82h-.77Z"/>
          <path d="M107.87,23.25h.73V24h-.73Zm0,2h.69v5.27h-.69Z"/>
          <path d="M109.84,29.63l.44-.4a2.06,2.06,0,0,0,1.64.76c.9,0,1.37-.33,1.37-.92s-.42-.81-1.45-1c-1.21-.3-1.83-.62-1.83-1.54,0-.75.65-1.38,1.79-1.38a2.59,2.59,0,0,1,1.95.76l-.39.46a2.11,2.11,0,0,0-1.54-.65c-.82,0-1.14.38-1.14.78s.36.72,1.28.94c1.32.32,2,.64,2,1.67s-.86,1.51-2,1.51A2.53,2.53,0,0,1,109.84,29.63Z"/>
          <path d="M115,27.85c0-1.89,1.17-2.74,2.35-2.74a2.08,2.08,0,0,1,2,1.44l-.59.26a1.48,1.48,0,0,0-1.45-1.11c-.78,0-1.64.56-1.64,2.14,0,1.38.7,2.16,1.62,2.16.73,0,1.14-.34,1.51-1.12l.56.24a2.19,2.19,0,0,1-2.1,1.47C116.08,30.58,115,29.6,115,27.85Z"/>
          <path d="M120.64,23.08h.69v3a2.89,2.89,0,0,1,2-.93,1.41,1.41,0,0,1,1.57,1.56v3.81h-.69V26.8c0-.74-.33-1.1-1-1.1a2.65,2.65,0,0,0-1.84.92v3.86h-.69Z"/>
          <path d="M126.23,27.84a2.43,2.43,0,0,1,2.31-2.73c1.23,0,2.15.94,2.15,2.74V28h-3.77c0,1.3.75,2,1.66,2a1.78,1.78,0,0,0,1.64-1l.43.34a2.32,2.32,0,0,1-2.11,1.2C127.31,30.58,126.23,29.63,126.23,27.84Zm3.79-.41c-.07-1-.55-1.74-1.49-1.74-.76,0-1.47.55-1.6,1.74Z"/>
          <path d="M132,25.21h.69v1h0a2.32,2.32,0,0,1,2.09-1.14H135l-.07.64h-.21A2.13,2.13,0,0,0,132.73,27v3.43H132Z"/>
          <path d="M138.4,23.08h4.33v.66h-3.62v2.55h2.68v.64h-2.68v3.55h-.71Z"/>
          <path d="M143.31,27.85a2.41,2.41,0,1,1,4.77,0,2.41,2.41,0,1,1-4.77,0Zm4.08,0c0-1.15-.58-2.14-1.69-2.14s-1.7.9-1.7,2.14.57,2.16,1.7,2.16S147.39,29.11,147.39,27.84Z"/>
          <path d="M149.43,25.21h.69V26a2.89,2.89,0,0,1,2-.93,1.41,1.41,0,0,1,1.57,1.56v3.81H153V26.8c0-.74-.33-1.1-1-1.1a2.65,2.65,0,0,0-1.84.92v3.86h-.69Z"/>
          <path d="M155,27.85c0-1.84,1-2.74,2.23-2.74a2.33,2.33,0,0,1,1.7.82V23.08h.69v6.1a3.36,3.36,0,0,0,.16,1.3h-.73a2.68,2.68,0,0,1-.12-.77,2.34,2.34,0,0,1-1.76.86C156,30.56,155,29.69,155,27.85ZM159,29.12V26.56a2.23,2.23,0,0,0-1.64-.87c-.93,0-1.6.68-1.6,2.17s.72,2.12,1.6,2.12A2.22,2.22,0,0,0,159,29.12Z"/>
          <path d="M160.91,29.63l.44-.4A2.06,2.06,0,0,0,163,30c.9,0,1.37-.33,1.37-.92s-.42-.81-1.45-1c-1.21-.3-1.83-.62-1.83-1.54,0-.75.65-1.38,1.79-1.38a2.59,2.59,0,0,1,1.95.76l-.39.46a2.11,2.11,0,0,0-1.54-.65c-.82,0-1.14.38-1.14.78s.36.72,1.28.94c1.32.32,2,.64,2,1.67s-.86,1.51-2,1.51A2.53,2.53,0,0,1,160.91,29.63Z"/>
          <path d="M75.23,36.7h-.92v-.59h.92v-.79c0-.89.51-1.35,1.51-1.35l.4,0v.58l-.35,0c-.51,0-.87.19-.87.76v.8h1.16v.59H75.92v4.68h-.69Z"/>
          <path d="M78.17,39.92V36.11h.69V39.8c0,.74.32,1.1,1,1.1A2.7,2.7,0,0,0,81.74,40V36.11h.7v5.27h-.7v-.83a2.89,2.89,0,0,1-2,.94A1.41,1.41,0,0,1,78.17,39.92ZM79,34.73h.77v.82H79Zm1.76,0h.77v.82h-.77Z"/>
          <path d="M84.07,36.11h.69v1h0A2.32,2.32,0,0,1,86.86,36H87l-.07.64H86.7a2.13,2.13,0,0,0-1.95,1.31v3.43h-.69Z"/>
          <path d="M90.28,36.11H91v1h0A2.32,2.32,0,0,1,93.07,36h.12l-.07.64h-.21A2.13,2.13,0,0,0,91,37.95v3.43h-.69Z"/>
          <path d="M93.81,38.74A2.43,2.43,0,0,1,96.12,36c1.23,0,2.15.94,2.15,2.74v.13H94.5c0,1.3.75,2,1.66,2a1.78,1.78,0,0,0,1.64-1l.43.34a2.32,2.32,0,0,1-2.11,1.2C94.89,41.48,93.81,40.54,93.81,38.74Zm3.79-.41c-.07-1-.55-1.74-1.49-1.74-.76,0-1.47.55-1.6,1.74Z"/>
          <path d="M99,42.07a1.32,1.32,0,0,1,1-1.2.67.67,0,0,1-.47-.67c0-.32.26-.59.64-.79a1.74,1.74,0,0,1-.8-1.51,1.93,1.93,0,0,1,2.08-1.9,2.18,2.18,0,0,1,1.5.54,2.78,2.78,0,0,1,1.22-.48v.65a2.48,2.48,0,0,0-1,.18,1.64,1.64,0,0,1,.31,1,1.89,1.89,0,0,1-2.07,1.87,2.32,2.32,0,0,1-.85-.15c-.25.1-.42.25-.42.45s.19.34.78.4l1.15.09c1.22.1,1.86.52,1.86,1.34s-1,1.49-2.44,1.49C99.83,43.39,99,42.88,99,42.07Zm4.3-.11c0-.5-.4-.75-1.44-.83l-1-.08-.27,0c-.59.19-.88.56-.88,1,0,.55.58.87,1.91.87C102.69,42.85,103.34,42.49,103.34,42Zm-.46-4a1.28,1.28,0,0,0-1.42-1.36,1.35,1.35,0,1,0,1.42,1.36Z"/>
          <path d="M105.32,34.15H106v.74h-.73Zm0,2H106v5.27h-.69Z"/>
          <path d="M107.39,38.75a2.41,2.41,0,1,1,4.77,0,2.41,2.41,0,1,1-4.77,0Zm4.08,0c0-1.15-.58-2.14-1.69-2.14s-1.7.9-1.7,2.14.57,2.16,1.7,2.16S111.47,40,111.47,38.74Z"/>
          <path d="M113.52,36.11h.69v.83a2.89,2.89,0,0,1,2-.93,1.41,1.41,0,0,1,1.57,1.56v3.81h-.69V37.7c0-.74-.33-1.1-1-1.1a2.65,2.65,0,0,0-1.84.92v3.86h-.69Z"/>
          <path d="M119,40.15c0-1,.89-1.8,3.57-2.21v-.27a1,1,0,0,0-1.07-1.08,2.86,2.86,0,0,0-2,.83l-.37-.43a3.36,3.36,0,0,1,2.4-1,1.5,1.5,0,0,1,1.69,1.68v2.39a3.65,3.65,0,0,0,.15,1.3h-.71a2.34,2.34,0,0,1-.12-.75,3,3,0,0,1-2.08.84C119.6,41.46,119,41,119,40.15Zm3.57-.08V38.43c-2.26.38-2.89.94-2.89,1.63s.37.84,1,.84A2.75,2.75,0,0,0,122.62,40.07Z"/>
          <path d="M124.93,34h.69v7.4h-.69Z"/>
          <path d="M127,38.74A2.43,2.43,0,0,1,129.31,36c1.23,0,2.15.94,2.15,2.74v.13h-3.77c0,1.3.75,2,1.66,2a1.78,1.78,0,0,0,1.64-1l.43.34a2.32,2.32,0,0,1-2.11,1.2C128.08,41.48,127,40.54,127,38.74Zm3.79-.41c-.07-1-.55-1.74-1.49-1.74-.76,0-1.47.55-1.6,1.74Z"/>
          <path d="M135.17,34h4.42v.66h-3.71v2.51h2.77v.64h-2.77v2.94h3.92v.65h-4.63Z"/>
          <path d="M141.07,36.11h.69v.83a2.89,2.89,0,0,1,2-.93,1.41,1.41,0,0,1,1.57,1.56v3.81h-.69V37.7c0-.74-.33-1.1-1-1.1a2.65,2.65,0,0,0-1.84.92v3.86h-.69Z"/>
          <path d="M147.27,40.15V36.7h-.92v-.59h.92V34.22H148v1.89h1.37v.59H148V40c0,.56.18.86.83.86a1.82,1.82,0,0,0,.55-.07v.59a4.15,4.15,0,0,1-.68.06C147.65,41.45,147.27,41.05,147.27,40.15Z"/>
          <path d="M150.26,36.11H151l.74,2.61c.19.67.31,1.11.49,1.79h0c.19-.75.29-1.12.48-1.79l.72-2.61h.63l.73,2.66c.19.64.29,1,.46,1.74h0c.19-.71.29-1.08.48-1.72l.77-2.68h.67l-1.62,5.27h-.64L153.74,37h0l-1.21,4.33h-.63Z"/>
          <path d="M158.33,34.15h.73v.74h-.73Zm0,2H159v5.27h-.69Z"/>
          <path d="M160.41,38.75c0-1.89,1.17-2.74,2.35-2.74a2.08,2.08,0,0,1,2,1.44l-.59.26a1.48,1.48,0,0,0-1.45-1.11c-.78,0-1.64.56-1.64,2.14,0,1.38.7,2.16,1.62,2.16.73,0,1.14-.34,1.51-1.12l.56.24a2.19,2.19,0,0,1-2.1,1.47C161.48,41.48,160.41,40.5,160.41,38.75Z"/>
          <path d="M166,34h.69v4.91l2.51-2.78H170L168.32,38l1.93,3.41h-.75l-1.64-2.88-1.14,1.22v1.66H166Z"/>
          <path d="M171.41,34h.69v7.4h-.69Z"/>
          <path d="M173.73,39.92V36.11h.69V39.8c0,.74.32,1.1,1,1.1a2.7,2.7,0,0,0,1.83-.92V36.11h.7v5.27h-.7v-.83a2.89,2.89,0,0,1-2,.94A1.41,1.41,0,0,1,173.73,39.92Z"/>
          <path d="M179.62,36.11h.69v.83a2.89,2.89,0,0,1,2-.93,1.41,1.41,0,0,1,1.57,1.56v3.81h-.69V37.7c0-.74-.33-1.1-1-1.1a2.65,2.65,0,0,0-1.84.92v3.86h-.69Z"/>
          <path d="M184.92,42.07a1.32,1.32,0,0,1,1-1.2.67.67,0,0,1-.47-.67c0-.32.26-.59.64-.79a1.74,1.74,0,0,1-.8-1.51,1.93,1.93,0,0,1,2.08-1.9,2.18,2.18,0,0,1,1.5.54,2.78,2.78,0,0,1,1.22-.48v.65a2.48,2.48,0,0,0-1,.18,1.64,1.64,0,0,1,.31,1,1.89,1.89,0,0,1-2.07,1.87,2.32,2.32,0,0,1-.85-.15c-.25.1-.42.25-.42.45s.19.34.78.4l1.15.09c1.22.1,1.86.52,1.86,1.34s-1,1.49-2.44,1.49C185.71,43.39,184.92,42.88,184.92,42.07Zm4.3-.11c0-.5-.4-.75-1.44-.83l-1-.08-.27,0c-.59.19-.88.56-.88,1,0,.55.58.87,1.91.87C188.57,42.85,189.22,42.49,189.22,42Zm-.46-4a1.28,1.28,0,0,0-1.42-1.36,1.35,1.35,0,1,0,1.42,1.36Z"/>
        </g>
      </g>
    </g>
  </g>
</svg>
