<svg xmlns="http://www.w3.org/2000/svg" width="210.35" height="42.78" viewBox="0 0 210.35 42.78">
  <title>Eu_Logo_Header</title>
  <g id="Ebene_2" data-name="Ebene 2">
    <g id="Icons">
      <g>
        <g>
          <rect y="0.74" width="59.06" height="39.66" fill="#164194"/>
          <path d="M29.62,20.43" fill="#164194"/>
        </g>
        <g>
          <polygon points="28.33 9.93 29.54 9.04 30.75 9.93 30.29 8.5 31.52 7.62 30 7.62 29.54 6.17 29.08 7.62 27.56 7.62 28.79 8.5 28.33 9.93" fill="#ffe400"/>
          <polygon points="22.07 11.61 23.28 10.72 24.49 11.61 24.03 10.18 25.26 9.3 23.74 9.3 23.28 7.85 22.82 9.3 21.3 9.3 22.53 10.18 22.07 11.61" fill="#ffe400"/>
          <polygon points="18.7 12.44 18.24 13.89 16.73 13.89 17.95 14.77 17.49 16.2 18.7 15.31 19.91 16.2 19.45 14.77 20.68 13.89 19.16 13.89 18.7 12.44" fill="#ffe400"/>
          <polygon points="17.02 21.57 18.23 22.45 17.77 21.02 19 20.14 17.48 20.14 17.02 18.69 16.56 20.14 15.04 20.14 16.27 21.02 15.81 22.45 17.02 21.57" fill="#ffe400"/>
          <polygon points="19.16 26.41 18.7 24.96 18.24 26.41 16.73 26.41 17.95 27.29 17.49 28.72 18.7 27.83 19.91 28.72 19.45 27.29 20.68 26.41 19.16 26.41" fill="#ffe400"/>
          <polygon points="23.75 31 23.29 29.55 22.83 31 21.31 31 22.54 31.88 22.08 33.3 23.29 32.42 24.5 33.3 24.04 31.88 25.27 31 23.75 31" fill="#ffe400"/>
          <polygon points="30 32.66 29.54 31.21 29.08 32.66 27.56 32.66 28.79 33.54 28.33 34.97 29.54 34.09 30.75 34.97 30.29 33.54 31.52 32.66 30 32.66" fill="#ffe400"/>
          <polygon points="36.25 31 35.79 29.55 35.33 31 33.81 31 35.04 31.88 34.58 33.3 35.79 32.42 37 33.3 36.54 31.88 37.77 31 36.25 31" fill="#ffe400"/>
          <polygon points="40.84 26.41 40.38 24.96 39.91 26.41 38.4 26.41 39.63 27.29 39.17 28.72 40.38 27.83 41.59 28.72 41.13 27.29 42.36 26.41 40.84 26.41" fill="#ffe400"/>
          <polygon points="44.02 20.12 42.5 20.12 42.04 18.67 41.58 20.12 40.06 20.12 41.29 21 40.83 22.43 42.04 21.55 43.25 22.43 42.79 21 44.02 20.12" fill="#ffe400"/>
          <polygon points="39.17 16.18 40.38 15.29 41.59 16.18 41.13 14.75 42.36 13.87 40.84 13.87 40.38 12.42 39.91 13.87 38.4 13.87 39.63 14.75 39.17 16.18" fill="#ffe400"/>
          <polygon points="35.81 7.85 35.35 9.3 33.83 9.3 35.06 10.18 34.6 11.61 35.81 10.72 37.02 11.61 36.56 10.18 37.79 9.3 36.27 9.3 35.81 7.85" fill="#ffe400"/>
        </g>
        <g>
          <path d="M72.48,1.24h4.29v.64h-3.6V4.32h2.69v.62H73.17V7.79H77v.63H72.48Z"/>
          <path d="M78.45,6V1.24h.69V5.88a1.82,1.82,0,0,0,1.93,2A1.79,1.79,0,0,0,83,5.9V1.24h.69V6a2.42,2.42,0,0,1-2.62,2.57A2.39,2.39,0,0,1,78.45,6Z"/>
          <path d="M85.77,1.24h2.41c1.6,0,2.49.68,2.49,1.94A1.84,1.84,0,0,1,89,5.12l1.81,3.3H90L88.24,5.2H86.45V8.42h-.68Zm2.36,3.35c1.18,0,1.85-.34,1.85-1.38s-.66-1.34-1.86-1.34H86.45V4.59Z"/>
          <path d="M92.16,4.83c0-2.25,1.27-3.73,3-3.73s3,1.48,3,3.73-1.27,3.73-3,3.73S92.16,7.08,92.16,4.83Zm5.37,0c0-2-1-3.1-2.34-3.1s-2.34,1.15-2.34,3.1,1,3.11,2.34,3.11S97.53,6.78,97.53,4.83Z"/>
          <path d="M100.05,1.24h2.39c1.56,0,2.51.64,2.51,2s-1.07,2-2.58,2h-1.63V8.42h-.69Zm2.37,3.39c1.18,0,1.84-.37,1.84-1.41s-.65-1.35-1.85-1.35h-1.67V4.63Z"/>
          <path d="M108,1.21h.75l2.54,7.21h-.72l-.77-2.21H106.9l-.77,2.21h-.67ZM109.6,5.6,108.36,2h0L107.11,5.6ZM107.14,0h.75V.8h-.75Zm1.71,0h.75V.8h-.75Z"/>
          <path d="M112.91,1.24h.69V8.42h-.69Z"/>
          <path d="M115.36,6.66l.61-.22A2,2,0,0,0,118,7.95c1.08,0,1.78-.5,1.78-1.3s-.36-1.13-1.88-1.61S115.6,4.13,115.6,3a2,2,0,0,1,2.23-1.84,2.4,2.4,0,0,1,2.46,1.65l-.58.27a1.84,1.84,0,0,0-1.89-1.3c-1,0-1.54.51-1.54,1.17s.48,1.08,2,1.56,2.23,1,2.23,2.14-1.06,2-2.49,2A2.58,2.58,0,0,1,115.36,6.66Z"/>
          <path d="M121.92,4.8c0-2.17,1.19-3.7,3-3.7a2.55,2.55,0,0,1,2.6,2.19l-.66.17c-.32-1.14-.85-1.73-2-1.73-1.39,0-2.29,1.2-2.29,3s.91,3.15,2.31,3.15c1.07,0,1.74-.62,2-1.82l.66.15a2.7,2.7,0,0,1-2.72,2.3C123.1,8.56,121.92,7.09,121.92,4.8Z"/>
          <path d="M129.31,1.24H130V4.32h3.89V1.24h.69V8.42h-.69V4.95H130V8.42h-.69Z"/>
          <path d="M136.72,1.24H141v.64h-3.6V4.32h2.69v.62h-2.69V7.79h3.8v.63h-4.49Z"/>
          <path d="M145.19,6V1.24h.69V5.88a1.82,1.82,0,0,0,1.93,2,1.79,1.79,0,0,0,1.92-2V1.24h.69V6a2.42,2.42,0,0,1-2.62,2.57A2.39,2.39,0,0,1,145.19,6Z"/>
          <path d="M152.52,1.24h.74l4,5.92h0V1.24h.65V8.42h-.61l-4.09-6.1h0v6.1h-.65Z"/>
          <path d="M160.08,1.24h.69V8.42h-.69Z"/>
          <path d="M162.64,4.83c0-2.25,1.27-3.73,3-3.73s3,1.48,3,3.73-1.27,3.73-3,3.73S162.64,7.08,162.64,4.83Zm5.37,0c0-2-1-3.1-2.34-3.1s-2.34,1.15-2.34,3.1,1,3.11,2.34,3.11S168,6.78,168,4.83Z"/>
          <path d="M170.52,1.24h.74l4,5.92h0V1.24h.65V8.42h-.61l-4.09-6.1h0v6.1h-.65Z"/>
          <path d="M72.58,12h.69v7.18h-.69Z" fill="#164194"/>
          <path d="M75.31,14.11H76v.81a2.8,2.8,0,0,1,2-.9,1.37,1.37,0,0,1,1.52,1.51v3.7h-.67V15.65c0-.72-.32-1.07-1-1.07a2.58,2.58,0,0,0-1.79.89v3.75h-.67Z" fill="#164194"/>
          <path d="M80.61,14.11h.72l1.51,4.32h0l1.5-4.32H85l-1.88,5.13H82.5Z" fill="#164194"/>
          <path d="M85.94,16.66A2.36,2.36,0,0,1,88.18,14c1.19,0,2.09.91,2.09,2.66v.13H86.61c0,1.26.73,2,1.61,2a1.73,1.73,0,0,0,1.59-.93l.42.33a2.26,2.26,0,0,1-2,1.16C87,19.33,85.94,18.41,85.94,16.66Zm3.68-.4c-.07-1-.53-1.69-1.45-1.69-.74,0-1.43.53-1.55,1.69Z" fill="#164194"/>
          <path d="M91.5,18.41l.43-.39a2,2,0,0,0,1.59.74c.87,0,1.33-.32,1.33-.89s-.41-.79-1.41-1c-1.17-.29-1.78-.6-1.78-1.49,0-.73.63-1.34,1.74-1.34a2.51,2.51,0,0,1,1.89.74l-.38.45a2,2,0,0,0-1.49-.63c-.8,0-1.11.37-1.11.76s.35.7,1.24.91c1.28.31,1.94.62,1.94,1.62s-.83,1.47-2,1.47A2.45,2.45,0,0,1,91.5,18.41Z" fill="#164194"/>
          <path d="M97.48,18V14.68h-.89v-.57h.89V12.28h.67v1.83h1.33v.57H98.15v3.21c0,.54.17.83.81.83a1.77,1.77,0,0,0,.53-.07v.57a4,4,0,0,1-.66.06C97.84,19.29,97.48,18.91,97.48,18Z" fill="#164194"/>
          <path d="M100.91,12.21h.71v.72h-.71Zm0,1.9h.67v5.11h-.67Z" fill="#164194"/>
          <path d="M103.18,16.67a2.34,2.34,0,1,1,4.63,0,2.34,2.34,0,1,1-4.63,0Zm4,0c0-1.12-.56-2.08-1.64-2.08s-1.65.87-1.65,2.08.55,2.1,1.65,2.1S107.14,17.89,107.14,16.66Z" fill="#164194"/>
          <path d="M109.38,14.11h.67v.81a2.8,2.8,0,0,1,2-.9,1.37,1.37,0,0,1,1.52,1.51v3.7h-.67V15.65c0-.72-.32-1.07-1-1.07a2.58,2.58,0,0,0-1.79.89v3.75h-.67Z" fill="#164194"/>
          <path d="M115.07,16.66A2.36,2.36,0,0,1,117.31,14c1.19,0,2.09.91,2.09,2.66v.13h-3.66c0,1.26.73,2,1.61,2a1.73,1.73,0,0,0,1.59-.93l.42.33a2.26,2.26,0,0,1-2,1.16C116.12,19.33,115.07,18.41,115.07,16.66Zm3.68-.4c-.07-1-.53-1.69-1.45-1.69-.74,0-1.43.53-1.55,1.69Z" fill="#164194"/>
          <path d="M121,14.11h.67v.81a2.8,2.8,0,0,1,2-.9,1.37,1.37,0,0,1,1.52,1.51v3.7h-.67V15.65c0-.72-.32-1.07-1-1.07a2.58,2.58,0,0,0-1.79.89v3.75H121Z" fill="#164194"/>
          <path d="M129.32,12.21H130v.72h-.71Zm0,1.9H130v5.11h-.67Z" fill="#164194"/>
          <path d="M131.87,14.11h.67v.81a2.8,2.8,0,0,1,2-.9A1.37,1.37,0,0,1,136,15.53v3.7h-.67V15.65c0-.72-.32-1.07-1-1.07a2.58,2.58,0,0,0-1.79.89v3.75h-.67Z" fill="#164194"/>
          <path d="M140.13,17.81v-3.7h.67v3.58c0,.72.31,1.07,1,1.07a2.62,2.62,0,0,0,1.78-.89V14.11h.68v5.11h-.68v-.81a2.81,2.81,0,0,1-1.94.91A1.37,1.37,0,0,1,140.13,17.81Z" fill="#164194"/>
          <path d="M146.11,14.11h.67v.81a2.8,2.8,0,0,1,2-.9,1.37,1.37,0,0,1,1.52,1.51v3.7h-.67V15.65c0-.72-.32-1.07-1-1.07a2.58,2.58,0,0,0-1.79.89v3.75h-.67Z" fill="#164194"/>
          <path d="M151.68,18.41l.43-.39a2,2,0,0,0,1.59.74c.87,0,1.33-.32,1.33-.89s-.41-.79-1.41-1c-1.17-.29-1.78-.6-1.78-1.49,0-.73.63-1.34,1.74-1.34a2.51,2.51,0,0,1,1.89.74l-.38.45a2,2,0,0,0-1.49-.63c-.8,0-1.11.37-1.11.76s.35.7,1.24.91c1.28.31,1.94.62,1.94,1.62s-.83,1.47-2,1.47A2.45,2.45,0,0,1,151.68,18.41Z" fill="#164194"/>
          <path d="M157,16.66A2.36,2.36,0,0,1,159.19,14c1.19,0,2.09.91,2.09,2.66v.13h-3.66c0,1.26.73,2,1.61,2a1.73,1.73,0,0,0,1.59-.93l.42.33a2.26,2.26,0,0,1-2,1.16C158,19.33,157,18.41,157,16.66Zm3.68-.4c-.07-1-.53-1.69-1.45-1.69-.74,0-1.43.53-1.55,1.69Z" fill="#164194"/>
          <path d="M162.85,14.11h.67v1h0a2.25,2.25,0,0,1,2-1.11h.12l-.07.62h-.2a2.07,2.07,0,0,0-1.89,1.27v3.33h-.67Z" fill="#164194"/>
          <path d="M166.53,16.66A2.36,2.36,0,0,1,168.78,14c1.19,0,2.09.91,2.09,2.66v.13H167.2c0,1.26.73,2,1.61,2a1.73,1.73,0,0,0,1.59-.93l.42.33a2.26,2.26,0,0,1-2,1.16C167.58,19.33,166.53,18.41,166.53,16.66Zm3.68-.4c-.07-1-.53-1.69-1.45-1.69-.74,0-1.43.53-1.55,1.69Z" fill="#164194"/>
          <path d="M174.43,18.73l4.31-6.1h-4V12h4.86v.5l-4.29,6.09h4.29v.58h-5.14Z" fill="#164194"/>
          <path d="M181,17.81v-3.7h.67v3.58c0,.72.31,1.07,1,1.07a2.62,2.62,0,0,0,1.78-.89V14.11h.68v5.11h-.68v-.81a2.81,2.81,0,0,1-1.94.91A1.37,1.37,0,0,1,181,17.81Z" fill="#164194"/>
          <path d="M187,12h.67v4.77l2.44-2.7h.79l-1.67,1.81,1.87,3.31h-.73l-1.59-2.79-1.11,1.18v1.61H187Z" fill="#164194"/>
          <path d="M192.33,17.81v-3.7H193v3.58c0,.72.31,1.07,1,1.07a2.62,2.62,0,0,0,1.78-.89V14.11h.68v5.11h-.68v-.81a2.81,2.81,0,0,1-1.94.91A1.37,1.37,0,0,1,192.33,17.81Z" fill="#164194"/>
          <path d="M198.31,14.11H199v.81a2.8,2.8,0,0,1,2-.9,1.37,1.37,0,0,1,1.52,1.51v3.7h-.67V15.65c0-.72-.32-1.07-1-1.07a2.58,2.58,0,0,0-1.79.89v3.75h-.67Z" fill="#164194"/>
          <path d="M204.59,14.68h-.89v-.57h.89v-.77c0-.86.5-1.31,1.47-1.31l.39,0v.56l-.34,0c-.49,0-.84.18-.84.74v.78h1.13v.57h-1.13v4.54h-.67Z" fill="#164194"/>
          <path d="M208.34,18V14.68h-.89v-.57h.89V12.28H209v1.83h1.33v.57H209v3.21c0,.54.17.83.81.83a1.77,1.77,0,0,0,.53-.07v.57a4,4,0,0,1-.66.06C208.71,19.29,208.34,18.91,208.34,18Z" fill="#164194"/>
          <path d="M72.48,22.84h4.29v.64h-3.6v2.44h2.69v.62H73.17v2.85H77V30H72.48Z"/>
          <path d="M78.39,28.61v-3.7h.67v3.58c0,.72.31,1.07,1,1.07a2.62,2.62,0,0,0,1.78-.89V24.91h.68V30h-.68v-.81a2.81,2.81,0,0,1-1.94.91A1.37,1.37,0,0,1,78.39,28.61Z"/>
          <path d="M84.37,24.91H85v1h0a2.25,2.25,0,0,1,2-1.11h.12l-.07.62h-.2A2.07,2.07,0,0,0,85,26.7V30h-.67Z"/>
          <path d="M88.05,27.47a2.34,2.34,0,1,1,4.63,0,2.34,2.34,0,1,1-4.63,0Zm4,0c0-1.12-.56-2.08-1.64-2.08s-1.65.87-1.65,2.08.55,2.1,1.65,2.1S92,28.69,92,27.46Z"/>
          <path d="M94.25,24.91h.67v.73a2.28,2.28,0,0,1,1.71-.83c1.17,0,2.11.86,2.11,2.65s-.94,2.65-2.16,2.65a2.29,2.29,0,0,1-1.65-.79V32h-.67Zm3.81,2.56c0-1.42-.7-2.09-1.55-2.09a2.16,2.16,0,0,0-1.59.84v2.48a2.18,2.18,0,0,0,1.59.83C97.41,29.55,98.06,28.92,98.06,27.47Z"/>
          <path d="M100,28.83c0-1,.86-1.75,3.46-2.14v-.26a.93.93,0,0,0-1-1,2.78,2.78,0,0,0-1.91.81l-.36-.42a3.26,3.26,0,0,1,2.33-1,1.45,1.45,0,0,1,1.64,1.63v2.32a3.53,3.53,0,0,0,.15,1.26h-.69a2.29,2.29,0,0,1-.12-.73,2.92,2.92,0,0,1-2,.82C100.52,30.11,100,29.63,100,28.83Zm3.46-.08V27.16c-2.19.37-2.8.91-2.8,1.58s.36.81.93.81A2.67,2.67,0,0,0,103.45,28.75Zm-2.38-5.18h.75v.8h-.75Zm1.71,0h.75v.8h-.75Z"/>
          <path d="M105.93,23h.71v.72h-.71Zm0,1.9h.67V30H106Z"/>
          <path d="M108.1,29.21l.43-.39a2,2,0,0,0,1.59.74c.87,0,1.33-.32,1.33-.89s-.41-.79-1.41-1c-1.17-.29-1.78-.6-1.78-1.49,0-.73.63-1.34,1.74-1.34a2.51,2.51,0,0,1,1.89.74l-.38.45a2,2,0,0,0-1.49-.63c-.8,0-1.11.37-1.11.76s.35.7,1.24.91c1.28.31,1.94.62,1.94,1.62s-.83,1.47-2,1.47A2.45,2.45,0,0,1,108.1,29.21Z"/>
          <path d="M113.37,27.47a2.34,2.34,0,0,1,2.28-2.66,2,2,0,0,1,2,1.4l-.57.25a1.44,1.44,0,0,0-1.41-1.08c-.76,0-1.59.54-1.59,2.08,0,1.34.68,2.1,1.57,2.1.71,0,1.11-.33,1.47-1.09l.54.23a2.13,2.13,0,0,1-2,1.43C114.41,30.13,113.37,29.17,113.37,27.47Z"/>
          <path d="M119.09,22.84h.67v2.87a2.8,2.8,0,0,1,2-.9,1.37,1.37,0,0,1,1.52,1.51V30h-.67V26.45c0-.72-.32-1.07-1-1.07a2.58,2.58,0,0,0-1.79.89V30h-.67Z"/>
          <path d="M124.77,27.46A2.36,2.36,0,0,1,127,24.81c1.19,0,2.09.91,2.09,2.66v.13h-3.66c0,1.26.73,2,1.61,2a1.73,1.73,0,0,0,1.59-.93l.42.33a2.26,2.26,0,0,1-2,1.16C125.82,30.13,124.77,29.21,124.77,27.46Zm3.68-.4c-.07-1-.53-1.69-1.45-1.69-.74,0-1.43.53-1.55,1.69Z"/>
          <path d="M130.67,24.91h.67v1h0a2.25,2.25,0,0,1,2-1.11h.12l-.07.62h-.2a2.07,2.07,0,0,0-1.89,1.27V30h-.67Z"/>
          <path d="M137.33,22.84h4.2v.64H138V26h2.6v.62H138V30h-.69Z"/>
          <path d="M142.35,27.47a2.34,2.34,0,1,1,4.63,0,2.34,2.34,0,1,1-4.63,0Zm4,0c0-1.12-.56-2.08-1.64-2.08s-1.65.87-1.65,2.08.55,2.1,1.65,2.1S146.31,28.69,146.31,27.46Z"/>
          <path d="M148.55,24.91h.67v.81a2.8,2.8,0,0,1,2-.9,1.37,1.37,0,0,1,1.52,1.51V30H152V26.45c0-.72-.32-1.07-1-1.07a2.58,2.58,0,0,0-1.79.89V30h-.67Z"/>
          <path d="M154.25,27.47c0-1.79.94-2.66,2.16-2.66a2.26,2.26,0,0,1,1.65.8V22.84h.67v5.92a3.27,3.27,0,0,0,.16,1.26h-.71a2.63,2.63,0,0,1-.12-.75,2.27,2.27,0,0,1-1.71.83C155.18,30.11,154.25,29.26,154.25,27.47Zm3.81,1.23V26.22a2.16,2.16,0,0,0-1.59-.84c-.9,0-1.55.66-1.55,2.11s.7,2.06,1.55,2.06A2.15,2.15,0,0,0,158.06,28.7Z"/>
          <path d="M160.19,29.21l.43-.39a2,2,0,0,0,1.59.74c.87,0,1.33-.32,1.33-.89s-.41-.79-1.41-1c-1.17-.29-1.78-.6-1.78-1.49,0-.73.63-1.34,1.74-1.34a2.51,2.51,0,0,1,1.89.74l-.38.45a2,2,0,0,0-1.49-.63c-.8,0-1.11.37-1.11.76s.35.7,1.24.91c1.28.31,1.94.62,1.94,1.62s-.83,1.47-2,1.47A2.45,2.45,0,0,1,160.19,29.21Z"/>
          <path d="M72.72,36.28h-.89v-.57h.89v-.77c0-.86.5-1.31,1.47-1.31l.39,0v.56l-.34,0c-.49,0-.84.18-.84.74v.78h1.13v.57H73.39v4.54h-.67Z"/>
          <path d="M75.82,39.41v-3.7h.67v3.58c0,.72.31,1.07,1,1.07a2.62,2.62,0,0,0,1.78-.89V35.71H80v5.11h-.68V40a2.81,2.81,0,0,1-1.94.91A1.37,1.37,0,0,1,75.82,39.41Zm.85-5h.75v.8h-.75Zm1.71,0h.75v.8h-.75Z"/>
          <path d="M81.8,35.71h.67v1h0a2.25,2.25,0,0,1,2-1.11h.12l-.07.62h-.2a2.07,2.07,0,0,0-1.89,1.27v3.33H81.8Z"/>
          <path d="M88.32,35.71H89v1h0a2.25,2.25,0,0,1,2-1.11h.12l-.07.62h-.2A2.07,2.07,0,0,0,89,37.5v3.33h-.67Z"/>
          <path d="M92,38.26a2.36,2.36,0,0,1,2.24-2.65c1.19,0,2.09.91,2.09,2.66v.13H92.67c0,1.26.73,2,1.61,2a1.73,1.73,0,0,0,1.59-.93l.42.33a2.26,2.26,0,0,1-2,1.16C93,40.93,92,40,92,38.26Zm3.68-.4c-.07-1-.53-1.69-1.45-1.69-.74,0-1.43.53-1.55,1.69Z"/>
          <path d="M97.33,41.5a1.28,1.28,0,0,1,.94-1.16.65.65,0,0,1-.46-.65c0-.31.25-.57.62-.77a1.69,1.69,0,0,1-.78-1.47,1.87,1.87,0,0,1,2-1.84,2.12,2.12,0,0,1,1.46.52,2.72,2.72,0,0,1,1.18-.47v.63a2.41,2.41,0,0,0-.93.17,1.59,1.59,0,0,1,.3,1,1.83,1.83,0,0,1-2,1.81,2.27,2.27,0,0,1-.82-.15c-.24.1-.41.24-.41.44s.18.33.76.39l1.12.09c1.18.1,1.81.5,1.81,1.3s-1,1.45-2.37,1.45C98.1,42.78,97.33,42.29,97.33,41.5Zm4.17-.11c0-.49-.39-.73-1.4-.81l-1-.08-.26,0c-.57.18-.85.54-.85.93s.56.84,1.85.84C100.87,42.26,101.5,41.91,101.5,41.4Zm-.45-3.93a1.24,1.24,0,0,0-1.38-1.32,1.31,1.31,0,1,0,1.38,1.32Z"/>
          <path d="M103.68,33.81h.71v.72h-.71Zm0,1.9h.67v5.11h-.67Z"/>
          <path d="M106,38.27a2.34,2.34,0,1,1,4.63,0,2.34,2.34,0,1,1-4.63,0Zm4,0c0-1.12-.56-2.08-1.64-2.08s-1.65.87-1.65,2.08.55,2.1,1.65,2.1S109.91,39.49,109.91,38.26Z"/>
          <path d="M112.15,35.71h.67v.81a2.8,2.8,0,0,1,2-.9,1.37,1.37,0,0,1,1.52,1.51v3.7h-.67V37.25c0-.72-.32-1.07-1-1.07a2.58,2.58,0,0,0-1.79.89v3.75h-.67Z"/>
          <path d="M117.78,39.63c0-1,.86-1.75,3.46-2.14v-.26a.93.93,0,0,0-1-1,2.78,2.78,0,0,0-1.91.81l-.36-.42a3.26,3.26,0,0,1,2.33-1,1.45,1.45,0,0,1,1.64,1.63v2.32a3.53,3.53,0,0,0,.15,1.26h-.69a2.28,2.28,0,0,1-.12-.73,2.92,2.92,0,0,1-2,.82C118.31,40.91,117.78,40.43,117.78,39.63Zm3.46-.08V38c-2.19.37-2.8.91-2.8,1.58s.36.81.93.81A2.67,2.67,0,0,0,121.24,39.55Z"/>
          <path d="M123.74,33.64h.67v7.18h-.67Z"/>
          <path d="M126,38.26a2.36,2.36,0,0,1,2.24-2.65c1.19,0,2.09.91,2.09,2.66v.13h-3.66c0,1.26.73,2,1.61,2a1.73,1.73,0,0,0,1.59-.93l.42.33a2.26,2.26,0,0,1-2,1.16C127.05,40.93,126,40,126,38.26Zm3.68-.4c-.07-1-.53-1.69-1.45-1.69-.74,0-1.43.53-1.55,1.69Z"/>
          <path d="M134.42,33.64h4.29v.64h-3.6v2.44h2.69v.62h-2.69v2.85h3.8v.63h-4.49Z"/>
          <path d="M140.4,35.71h.67v.81a2.8,2.8,0,0,1,2-.9,1.37,1.37,0,0,1,1.52,1.51v3.7h-.67V37.25c0-.72-.32-1.07-1-1.07a2.58,2.58,0,0,0-1.79.89v3.75h-.67Z"/>
          <path d="M146.67,39.63V36.28h-.89v-.57h.89V33.88h.67v1.83h1.33v.57h-1.33v3.21c0,.54.17.83.81.83a1.77,1.77,0,0,0,.53-.07v.57a4.1,4.1,0,0,1-.66.06C147,40.89,146.67,40.51,146.67,39.63Z"/>
          <path d="M149.83,35.71h.7l.72,2.53c.18.65.3,1.08.48,1.74h0c.18-.73.28-1.09.47-1.74l.7-2.53h.61l.71,2.58c.18.62.28,1,.45,1.69h0c.18-.69.28-1,.47-1.67l.75-2.6h.65L155,40.82h-.62l-1.15-4.2h0L152,40.82h-.61Z"/>
          <path d="M157.92,33.81h.71v.72h-.71Zm0,1.9h.67v5.11h-.67Z"/>
          <path d="M160.19,38.27a2.34,2.34,0,0,1,2.28-2.66,2,2,0,0,1,2,1.4l-.57.25a1.44,1.44,0,0,0-1.41-1.08c-.76,0-1.59.54-1.59,2.08,0,1.34.68,2.1,1.57,2.1.71,0,1.11-.33,1.47-1.09l.54.23a2.13,2.13,0,0,1-2,1.43C161.23,40.93,160.19,40,160.19,38.27Z"/>
          <path d="M165.9,33.64h.67v4.76l2.44-2.7h.79l-1.67,1.81L170,40.82h-.73L167.68,38l-1.11,1.18v1.61h-.67Z"/>
          <path d="M171.38,33.64h.67v7.18h-.67Z"/>
          <path d="M173.88,39.41v-3.7h.67v3.58c0,.72.31,1.07,1,1.07a2.62,2.62,0,0,0,1.78-.89V35.71H178v5.11h-.68V40a2.81,2.81,0,0,1-1.94.91A1.37,1.37,0,0,1,173.88,39.41Z"/>
          <path d="M179.86,35.71h.67v.81a2.8,2.8,0,0,1,2-.9A1.37,1.37,0,0,1,184,37.13v3.7h-.67V37.25c0-.72-.32-1.07-1-1.07a2.58,2.58,0,0,0-1.79.89v3.75h-.67Z"/>
          <path d="M185.26,41.5a1.28,1.28,0,0,1,.94-1.16.65.65,0,0,1-.46-.65c0-.31.25-.57.62-.77a1.69,1.69,0,0,1-.78-1.47,1.87,1.87,0,0,1,2-1.84,2.12,2.12,0,0,1,1.46.52,2.72,2.72,0,0,1,1.18-.47v.63a2.41,2.41,0,0,0-.93.17,1.59,1.59,0,0,1,.3,1,1.83,1.83,0,0,1-2,1.81,2.27,2.27,0,0,1-.82-.15c-.24.1-.41.24-.41.44s.18.33.76.39l1.12.09c1.18.1,1.8.5,1.8,1.3s-1,1.45-2.37,1.45C186,42.78,185.26,42.29,185.26,41.5Zm4.17-.11c0-.49-.39-.73-1.4-.81l-1-.08-.26,0c-.57.18-.85.54-.85.93s.56.84,1.85.84C188.8,42.26,189.43,41.91,189.43,41.4ZM189,37.47a1.24,1.24,0,0,0-1.38-1.32A1.31,1.31,0,1,0,189,37.47Z"/>
        </g>
      </g>
    </g>
  </g>
</svg>
