<svg xmlns="http://www.w3.org/2000/svg" width="238.23" height="45.12" viewBox="0 0 238.23 45.12">
  <title>MWEI</title>
  <g id="Ebene_2" data-name="Ebene 2">
    <g id="Icons">
      <g>
        <path d="M.44,1.31H2.08L4,7.15h0L6,1.31H7.65V8.68H6.45V3.18h0A15,15,0,0,1,6,4.69l-1.43,4H3.45L2,4.69a12.62,12.62,0,0,1-.45-1.55h0V8.68H.44V1.31m8.76.1h1.25V2.48H9.2Zm0,2h1.23V8.68H9.21Zm2.63,0h1.23v.72A2.62,2.62,0,0,1,15,3.29a1.42,1.42,0,0,1,1.52,1.59V8.68H15.29V5.19c0-.59-.25-.86-.79-.86A2.14,2.14,0,0,0,13.07,5V8.68H11.84Zm6-2h1.25V2.48H17.88Zm0,2h1.23V8.68H17.89ZM20.1,8l.67-.75a2.6,2.6,0,0,0,1.66.63c.66,0,1.05-.17,1.05-.61s-.54-.56-1.17-.71c-.91-.21-2-.45-2-1.67,0-.93.8-1.55,2-1.55A3.1,3.1,0,0,1,24.45,4l-.59.8a2.65,2.65,0,0,0-1.49-.58c-.68,0-.9.24-.9.54s.53.56,1.15.7c.91.2,2,.43,2,1.66s-1,1.63-2.21,1.63A3.35,3.35,0,0,1,20.1,8Zm6.1-.66V4.37h-.92v-1h.92V1.55h1.22V3.39h1.36v1H27.43V7c0,.57.17.8.78.8a2,2,0,0,0,.53-.07v1a6,6,0,0,1-.9.07C26.49,8.75,26.21,8.25,26.21,7.29ZM29.41,6a2.51,2.51,0,0,1,2.52-2.75c1.18,0,2.32.71,2.32,2.86v.29H30.63A1.31,1.31,0,0,0,32,7.81a1.91,1.91,0,0,0,1.48-.62l.65.64a2.85,2.85,0,0,1-2.22,1A2.46,2.46,0,0,1,29.41,6Zm3.71-.52c-.07-.81-.47-1.23-1.2-1.23a1.24,1.24,0,0,0-1.26,1.23Zm2.25-2.13h1.22v.87h0a2.07,2.07,0,0,1,1.9-1h.08l0,1.12-.33,0a1.79,1.79,0,0,0-1.63.94V8.68H35.37Zm4.12-2h1.25V2.48H39.49Zm0,2h1.23V8.68H39.5Zm2.59,3.79V3.39h1.23V6.9c0,.59.25.86.79.86a2.14,2.14,0,0,0,1.43-.69V3.39h1.23V8.68H45.54V8a2.62,2.62,0,0,1-1.93.82A1.42,1.42,0,0,1,42.09,7.18Zm6.07-3.79h1.22v.73a2.4,2.4,0,0,1,1.81-.83,1.32,1.32,0,0,1,1.44.87,2.5,2.5,0,0,1,1.85-.87A1.41,1.41,0,0,1,56,4.89V8.68H54.8V5.19c0-.59-.17-.86-.75-.86A2.07,2.07,0,0,0,52.7,5V8.68H51.48V5.19c0-.59-.17-.86-.75-.86A2.09,2.09,0,0,0,49.38,5V8.68H48.15Zm12.64,1h-.92v-1h.92V2.86c0-.89.37-1.57,1.71-1.57.23,0,.64,0,.73,0v.95a2.28,2.28,0,0,0-.42,0c-.44,0-.8.12-.8.69v.47h1.15v1H62V8.68H60.8ZM64,7.18V3.39h1.23V6.9c0,.59.25.86.79.86a2.14,2.14,0,0,0,1.43-.69V3.39h1.23V8.68H67.49V8a2.62,2.62,0,0,1-1.93.82A1.42,1.42,0,0,1,64,7.18Zm.81-5.52H66v1.2H64.85Zm2,0h1.12v1.2H66.81Zm3.3,1.73h1.22v.87h0a2.07,2.07,0,0,1,1.9-1h.08l0,1.12L73,4.4a1.79,1.79,0,0,0-1.63.94V8.68H70.11Zm6.7-2.08h1.25L79,5.12c.15.59.29,1.13.39,1.71h0c.1-.57.23-1.11.38-1.7l.89-3.82h1.19l.92,3.84c.16.63.28,1.06.39,1.68h0c.11-.64.22-1,.36-1.65l.92-3.87h1.16L83.68,8.68H82.59L81.27,3h0L79.86,8.68H78.76Zm9.82.1h1.25V2.48H86.62Zm0,2h1.23V8.68H86.63Zm2.63,0h1.22v.87h0a2.07,2.07,0,0,1,1.9-1h.08l0,1.12-.33,0a1.79,1.79,0,0,0-1.63.94V8.68H89.26Zm4.8,3.9V4.37h-.92v-1h.92V1.55h1.22V3.39h1.36v1H95.29V7c0,.57.17.8.78.8a2,2,0,0,0,.53-.07v1a6,6,0,0,1-.9.07C94.35,8.75,94.06,8.25,94.06,7.29ZM97.38,8,98,7.2a2.6,2.6,0,0,0,1.66.63c.66,0,1.05-.17,1.05-.61s-.54-.56-1.17-.71c-.91-.21-2-.45-2-1.67,0-.93.8-1.55,2-1.55a3.1,3.1,0,0,1,2.17.75l-.59.8a2.65,2.65,0,0,0-1.49-.58c-.68,0-.9.24-.9.54s.53.56,1.15.7c.91.2,2,.43,2,1.66s-1,1.63-2.21,1.63A3.35,3.35,0,0,1,97.38,8ZM102.73,6a2.48,2.48,0,0,1,2.54-2.75,2.15,2.15,0,0,1,2.19,1.54l-1,.37a1.15,1.15,0,0,0-1.17-.89c-.7,0-1.28.46-1.28,1.72s.46,1.74,1.26,1.74a1.17,1.17,0,0,0,1.23-.92l1,.37a2.32,2.32,0,0,1-2.28,1.55A2.46,2.46,0,0,1,102.73,6Zm5.73-4.73h1.23v2.8a2.62,2.62,0,0,1,1.93-.82,1.42,1.42,0,0,1,1.52,1.59V8.68h-1.23V5.19c0-.59-.25-.86-.79-.86a2.14,2.14,0,0,0-1.43.69V8.68h-1.23Zm5.69,6.09c0-1.14,1-1.91,3.44-2.19V5.06c0-.53-.28-.76-.87-.76a2.87,2.87,0,0,0-1.78.72l-.6-.77a3.78,3.78,0,0,1,2.55-1c1.41,0,1.9.68,1.9,1.91V7.38a3.62,3.62,0,0,0,.15,1.29h-1.23a1.91,1.91,0,0,1-.12-.68,2.54,2.54,0,0,1-2,.76A1.33,1.33,0,0,1,114.15,7.4Zm3.44-.2V6c-1.46.2-2.24.56-2.24,1.13,0,.42.29.64.74.64A2.11,2.11,0,0,0,117.59,7.2Zm3-2.84h-.92v-1h.92V2.86c0-.89.37-1.57,1.71-1.57.23,0,.64,0,.73,0v.95a2.28,2.28,0,0,0-.42,0c-.44,0-.8.12-.8.69v.47h1.15v1h-1.15V8.68h-1.22Zm4,2.92V4.37h-.92v-1h.92V1.55h1.22V3.39h1.36v1h-1.36V7c0,.57.17.8.78.8a2,2,0,0,0,.53-.07v1a6,6,0,0,1-.9.07C124.81,8.75,124.52,8.25,124.52,7.29Zm4.2,1.38h-.53V7.38h1.37V8.51l-.63,1.28h-.57Zm5.36-7.36h4.76V2.47h-3.51V4.3h2.58V5.4h-2.58V7.54H139V8.68h-5Zm6,2.08h1.23v.72a2.62,2.62,0,0,1,1.93-.82,1.42,1.42,0,0,1,1.52,1.59V8.68h-1.23V5.19c0-.59-.25-.86-.79-.86A2.14,2.14,0,0,0,141.3,5V8.68h-1.23ZM145.83,6a2.51,2.51,0,0,1,2.52-2.75c1.18,0,2.32.71,2.32,2.86v.29h-3.61a1.31,1.31,0,0,0,1.41,1.37A1.91,1.91,0,0,0,150,7.19l.65.64a2.85,2.85,0,0,1-2.22,1A2.46,2.46,0,0,1,145.83,6Zm3.71-.52c-.07-.81-.47-1.23-1.2-1.23a1.24,1.24,0,0,0-1.26,1.23Zm2.25-2.13H153v.87h0a2.07,2.07,0,0,1,1.9-1H155l0,1.12-.33,0a1.79,1.79,0,0,0-1.63.94V8.68h-1.22Zm3.6,6a1.19,1.19,0,0,1,.87-1.11.69.69,0,0,1-.41-.65,1.23,1.23,0,0,1,.72-1,1.74,1.74,0,0,1-.84-1.52,2,2,0,0,1,2.22-1.89,2.38,2.38,0,0,1,1.62.56,2.71,2.71,0,0,1,1.31-.52v1a3.16,3.16,0,0,0-.93.14,1.34,1.34,0,0,1,.19.72c0,1.1-.83,1.88-2.2,1.88a2.48,2.48,0,0,1-.74-.11c-.16.09-.27.2-.27.34s.14.28.61.32l.94.06c1.56.1,2.18.52,2.18,1.44,0,1.08-1.09,1.61-2.73,1.61C156.12,10.73,155.39,10.2,155.39,9.43Zm4.19-.21c0-.38-.27-.52-1.34-.59l-.92-.06a1.72,1.72,0,0,1-.32,0,.73.73,0,0,0-.49.68c0,.47.54.62,1.61.62C159,9.84,159.58,9.6,159.58,9.22Zm-.55-4a.94.94,0,0,0-1.07-1,1,1,0,0,0-1.07,1,1,1,0,0,0,1.08,1A.94.94,0,0,0,159,5.22Zm2.78-3.81h1.25V2.48h-1.25Zm0,2H163V8.68h-1.23ZM164.17,6a2.51,2.51,0,0,1,2.52-2.75c1.18,0,2.32.71,2.32,2.86v.29H165.4a1.31,1.31,0,0,0,1.41,1.37,1.92,1.92,0,0,0,1.48-.62l.65.64a2.85,2.85,0,0,1-2.22,1A2.46,2.46,0,0,1,164.17,6Zm3.71-.52c-.07-.81-.47-1.23-1.2-1.23a1.24,1.24,0,0,0-1.26,1.23Zm2.74,3.15h-.53V7.38h1.37V8.51l-.63,1.28h-.57ZM.52,13.25H1.77v7.36H.52Zm2.8,2.08H4.55V16a2.62,2.62,0,0,1,1.93-.82A1.42,1.42,0,0,1,8,16.82v3.79H6.77V17.13c0-.59-.25-.86-.79-.86A2.14,2.14,0,0,0,4.55,17v3.65H3.32ZM9.11,18c0-1.83.91-2.76,2.26-2.76a2,2,0,0,1,1.51.67V13.25H14.1v6.07a3.36,3.36,0,0,0,.16,1.29H13a2,2,0,0,1-.12-.72,2.11,2.11,0,0,1-1.68.8C10,20.69,9.11,19.82,9.11,18Zm3.77,1V16.9a1.61,1.61,0,0,0-1.24-.66c-.93,0-1.3.6-1.3,1.77s.48,1.67,1.26,1.67A1.78,1.78,0,0,0,12.88,19Zm2.56.1V15.33h1.23v3.5c0,.59.25.86.79.86A2.14,2.14,0,0,0,18.89,19V15.33h1.23v5.28H18.89V19.9a2.62,2.62,0,0,1-1.93.82A1.42,1.42,0,0,1,15.44,19.12Zm5.65.77.67-.75a2.6,2.6,0,0,0,1.66.63c.66,0,1.05-.17,1.05-.61s-.54-.56-1.17-.71c-.91-.21-2-.45-2-1.67,0-.93.8-1.55,2-1.55a3.1,3.1,0,0,1,2.17.75l-.59.8a2.65,2.65,0,0,0-1.49-.58c-.68,0-.9.24-.9.54s.53.56,1.15.7c.91.2,2,.43,2,1.66s-1,1.63-2.21,1.63A3.35,3.35,0,0,1,21.08,19.89Zm6.1-.66V16.31h-.92v-1h.92V13.49h1.22v1.84h1.36v1H28.41v2.62c0,.57.17.8.78.8a2,2,0,0,0,.53-.07v1a6,6,0,0,1-.9.07C27.48,20.68,27.19,20.19,27.19,19.23Zm3.53-3.9h1.22v.87h0a2.07,2.07,0,0,1,1.9-1h.08l0,1.12-.33,0a1.79,1.79,0,0,0-1.63.94v3.34H30.72Zm4.12-2H36.1v1.06H34.84Zm0,2h1.23v5.28H34.85ZM37.21,18a2.51,2.51,0,0,1,2.52-2.75c1.18,0,2.32.71,2.32,2.86v.29H38.44a1.31,1.31,0,0,0,1.41,1.37,1.91,1.91,0,0,0,1.48-.62l.65.64a2.85,2.85,0,0,1-2.22,1A2.46,2.46,0,0,1,37.21,18Zm3.71-.52c-.07-.81-.47-1.23-1.2-1.23a1.24,1.24,0,0,0-1.26,1.23Zm2.74,3.15h-.53V19.32h1.37v1.12l-.63,1.28h-.57ZM49,13.25h1.64l2,5.84h0l1.91-5.84h1.67v7.36H55V15.12h0a15,15,0,0,1-.44,1.5l-1.43,4H52l-1.42-4a12.59,12.59,0,0,1-.45-1.55h0v5.54H49Zm8.76.1H59v1.06H57.78Zm0,2H59v5.28H57.79Zm3.05,3.9V16.31h-.92v-1h.92V13.49h1.22v1.84h1.36v1H62.07v2.62c0,.57.17.8.78.8a2,2,0,0,0,.53-.07v1a6,6,0,0,1-.9.07C61.14,20.68,60.85,20.19,60.85,19.23Zm4.22,0V16.31h-.92v-1h.92V13.49H66.3v1.84h1.36v1H66.3v2.62c0,.57.17.8.78.8a2,2,0,0,0,.53-.07v1a6,6,0,0,1-.9.07C65.36,20.68,65.07,20.19,65.07,19.23ZM68.27,18a2.51,2.51,0,0,1,2.52-2.75c1.18,0,2.32.71,2.32,2.86v.29H69.5a1.31,1.31,0,0,0,1.41,1.37,1.91,1.91,0,0,0,1.48-.62l.65.64a2.85,2.85,0,0,1-2.22,1A2.46,2.46,0,0,1,68.27,18ZM72,17.46c-.07-.81-.47-1.23-1.2-1.23a1.24,1.24,0,0,0-1.26,1.23Zm2.28-4.21H75.5v7.36H74.26Zm2.22,6.64.67-.75a2.6,2.6,0,0,0,1.66.63c.66,0,1.05-.17,1.05-.61s-.54-.56-1.17-.71c-.91-.21-2-.45-2-1.67,0-.93.8-1.55,2-1.55a3.1,3.1,0,0,1,2.17.75l-.59.8a2.65,2.65,0,0,0-1.49-.58c-.68,0-.9.24-.9.54s.53.56,1.15.7c.91.2,2,.43,2,1.66s-1,1.63-2.21,1.63A3.35,3.35,0,0,1,76.49,19.89Zm6.1-.66V16.31h-.92v-1h.92V13.49h1.22v1.84h1.36v1H83.82v2.62c0,.57.17.8.78.8a2,2,0,0,0,.53-.07v1a6,6,0,0,1-.9.07C82.88,20.68,82.59,20.19,82.59,19.23Zm3.34.11c0-1.14,1-1.91,3.44-2.19V17c0-.53-.28-.76-.87-.76a2.87,2.87,0,0,0-1.78.72l-.6-.77a3.78,3.78,0,0,1,2.55-1c1.41,0,1.9.68,1.9,1.91v2.18a3.62,3.62,0,0,0,.15,1.29H89.5a1.92,1.92,0,0,1-.12-.68,2.54,2.54,0,0,1-2,.76A1.33,1.33,0,0,1,85.93,19.34Zm3.44-.2V18c-1.46.2-2.24.56-2.24,1.13,0,.42.29.64.74.64A2.11,2.11,0,0,0,89.38,19.14Zm2.55-3.81h1.23V16a2.62,2.62,0,0,1,1.93-.82,1.42,1.42,0,0,1,1.52,1.59v3.79H95.38V17.13c0-.59-.25-.86-.79-.86a2.14,2.14,0,0,0-1.43.69v3.65H91.92ZM97.71,18c0-1.83.91-2.76,2.26-2.76a2,2,0,0,1,1.51.67V13.25h1.22v6.07a3.36,3.36,0,0,0,.16,1.29H101.6a2,2,0,0,1-.12-.72,2.11,2.11,0,0,1-1.68.8C98.6,20.69,97.71,19.82,97.71,18Zm3.77,1V16.9a1.61,1.61,0,0,0-1.24-.66c-.93,0-1.3.6-1.3,1.77s.48,1.67,1.26,1.67A1.78,1.78,0,0,0,101.48,19Zm5.53.1V15.33h1.23v3.5c0,.59.25.86.79.86a2.14,2.14,0,0,0,1.43-.69V15.33h1.23v5.28h-1.23V19.9a2.62,2.62,0,0,1-1.93.82A1.42,1.42,0,0,1,107,19.12Zm6.07-3.79h1.23V16a2.62,2.62,0,0,1,1.93-.82,1.42,1.42,0,0,1,1.52,1.59v3.79h-1.23V17.13c0-.59-.25-.86-.79-.86a2.14,2.14,0,0,0-1.43.69v3.65h-1.23ZM118.87,18c0-1.83.91-2.76,2.26-2.76a2,2,0,0,1,1.51.67V13.25h1.22v6.07a3.35,3.35,0,0,0,.16,1.29h-1.26a2,2,0,0,1-.12-.72,2.11,2.11,0,0,1-1.68.8C119.76,20.69,118.87,19.82,118.87,18Zm3.77,1V16.9a1.61,1.61,0,0,0-1.24-.66c-.93,0-1.3.6-1.3,1.77s.48,1.67,1.26,1.67A1.78,1.78,0,0,0,122.64,19Zm5.74-5.77h1.24v2.93H133V13.25h1.24v7.36H133V17.34h-3.34v3.27h-1.24Zm7,6.09c0-1.14,1-1.91,3.44-2.19V17c0-.53-.28-.76-.87-.76a2.87,2.87,0,0,0-1.78.72l-.6-.77a3.78,3.78,0,0,1,2.55-1c1.41,0,1.9.68,1.9,1.91v2.18a3.62,3.62,0,0,0,.15,1.29H139a1.94,1.94,0,0,1-.12-.68,2.54,2.54,0,0,1-2,.76A1.33,1.33,0,0,1,135.41,19.34Zm3.44-.2V18c-1.46.2-2.24.56-2.24,1.13,0,.42.29.64.74.64A2.11,2.11,0,0,0,138.85,19.14Zm2.55-3.81h1.23V16a2.62,2.62,0,0,1,1.93-.82,1.42,1.42,0,0,1,1.52,1.59v3.79h-1.23V17.13c0-.59-.25-.86-.79-.86a2.14,2.14,0,0,0-1.43.69v3.65H141.4ZM147.19,18c0-1.83.91-2.76,2.26-2.76a2,2,0,0,1,1.51.67V13.25h1.22v6.07a3.33,3.33,0,0,0,.16,1.29h-1.26a2,2,0,0,1-.12-.72,2.11,2.11,0,0,1-1.68.8C148.07,20.69,147.19,19.82,147.19,18ZM151,19V16.9a1.61,1.61,0,0,0-1.24-.66c-.93,0-1.3.6-1.3,1.77s.48,1.67,1.26,1.67A1.78,1.78,0,0,0,151,19ZM153,15.33h1.24l.58,2.19c.16.6.26,1,.4,1.68h0c.16-.72.25-1.09.42-1.7l.56-2.17h1l.59,2.21c.17.59.26,1,.41,1.66h0c.16-.69.25-1.06.42-1.64l.6-2.23h1.11l-1.57,5.28h-1.14l-1-3.67h0l-1,3.67h-1.13ZM160.82,18a2.51,2.51,0,0,1,2.52-2.75c1.18,0,2.32.71,2.32,2.86v.29H162a1.31,1.31,0,0,0,1.41,1.37,1.91,1.91,0,0,0,1.48-.62l.65.64a2.85,2.85,0,0,1-2.22,1A2.46,2.46,0,0,1,160.82,18Zm3.71-.52c-.07-.81-.47-1.23-1.2-1.23a1.24,1.24,0,0,0-1.26,1.23Zm2.25-2.13H168v.87h0a2.07,2.07,0,0,1,1.9-1H170l0,1.12-.33,0a1.79,1.79,0,0,0-1.63.94v3.34h-1.22Zm4.11-2.08h1.22v4.39l2-2.31h1.34l-1.72,1.93,1.87,3.35h-1.28L173,18.17l-.85.93v1.52H170.9ZM0,29.93c0-1.83.91-2.76,2.26-2.76a2,2,0,0,1,1.51.67V25.19H5v6.07a3.36,3.36,0,0,0,.16,1.29H3.89a2,2,0,0,1-.12-.72,2.11,2.11,0,0,1-1.68.8C.89,32.63,0,31.76,0,29.93Zm3.77,1V28.84a1.61,1.61,0,0,0-1.24-.66c-.93,0-1.3.6-1.3,1.77s.48,1.67,1.26,1.67A1.78,1.78,0,0,0,3.77,31Zm2.32-1a2.51,2.51,0,0,1,2.52-2.75c1.18,0,2.32.71,2.32,2.86v.29H7.31a1.31,1.31,0,0,0,1.41,1.37,1.91,1.91,0,0,0,1.48-.62l.65.64a2.85,2.85,0,0,1-2.22,1A2.46,2.46,0,0,1,6.09,29.92ZM9.8,29.4c-.07-.81-.47-1.23-1.2-1.23A1.24,1.24,0,0,0,7.33,29.4Zm1.89,2.43.67-.75a2.6,2.6,0,0,0,1.66.63c.66,0,1.05-.17,1.05-.61s-.54-.56-1.17-.71c-.91-.21-2-.45-2-1.67,0-.93.8-1.55,2-1.55a3.1,3.1,0,0,1,2.17.75l-.59.8A2.65,2.65,0,0,0,14,28.14c-.68,0-.9.24-.9.54s.53.56,1.15.7c.91.2,2,.43,2,1.66s-1,1.63-2.21,1.63A3.35,3.35,0,0,1,11.69,31.83Zm8.74-6.64h1.24v6.23h3.39v1.13H20.43Zm5.45,6.09c0-1.14,1-1.91,3.44-2.19v-.16c0-.53-.28-.76-.87-.76a2.87,2.87,0,0,0-1.78.72l-.6-.77a3.78,3.78,0,0,1,2.55-1c1.41,0,1.9.68,1.9,1.91v2.18a3.62,3.62,0,0,0,.15,1.29H29.45a1.92,1.92,0,0,1-.12-.68,2.54,2.54,0,0,1-2,.76A1.33,1.33,0,0,1,25.89,31.28Zm3.44-.2V29.92c-1.46.2-2.24.56-2.24,1.13,0,.42.29.64.74.64A2.11,2.11,0,0,0,29.33,31.08Zm2.55-3.81h1.23V28A2.62,2.62,0,0,1,35,27.17a1.42,1.42,0,0,1,1.52,1.59v3.79H35.33V29.07c0-.59-.25-.86-.79-.86a2.14,2.14,0,0,0-1.43.69v3.65H31.88Zm5.79,2.66c0-1.83.91-2.76,2.26-2.76a2,2,0,0,1,1.51.67V25.19h1.22v6.07a3.36,3.36,0,0,0,.16,1.29H41.56a2,2,0,0,1-.12-.72,2.11,2.11,0,0,1-1.68.8C38.55,32.63,37.67,31.76,37.67,29.93Zm3.77,1V28.84a1.61,1.61,0,0,0-1.24-.66c-.93,0-1.3.6-1.3,1.77s.48,1.67,1.26,1.67A1.78,1.78,0,0,0,41.44,31Zm2.32-1a2.51,2.51,0,0,1,2.52-2.75c1.18,0,2.32.71,2.32,2.86v.29H45a1.31,1.31,0,0,0,1.41,1.37,1.91,1.91,0,0,0,1.48-.62l.65.64a2.85,2.85,0,0,1-2.22,1A2.46,2.46,0,0,1,43.75,29.92Zm3.71-.52c-.07-.81-.47-1.23-1.2-1.23A1.24,1.24,0,0,0,45,29.4Zm1.89,2.43.67-.75a2.6,2.6,0,0,0,1.66.63c.66,0,1.05-.17,1.05-.61s-.54-.56-1.17-.71c-.91-.21-2-.45-2-1.67,0-.93.8-1.55,2-1.55a3.1,3.1,0,0,1,2.17.75l-.59.8a2.65,2.65,0,0,0-1.49-.58c-.68,0-.9.24-.9.54s.53.56,1.15.7c.91.2,2,.43,2,1.66s-1,1.63-2.21,1.63A3.35,3.35,0,0,1,49.36,31.83Zm8.74-6.64h1.26l3.48,5.25h0V25.19H64v7.36H62.89l-3.61-5.36h0v5.36H58.1Zm7.17,4.73a2.58,2.58,0,1,1,5.15,0,2.58,2.58,0,1,1-5.15,0Zm3.92,0c0-1-.42-1.7-1.34-1.7s-1.34.64-1.34,1.7.41,1.72,1.34,1.72S69.19,31,69.19,29.92Zm2.34-2.65h1.22v.87h0a2.07,2.07,0,0,1,1.9-1h.08l0,1.12-.33,0a1.79,1.79,0,0,0-1.63.94v3.34H71.53Zm3.81,2.66c0-1.83.91-2.76,2.26-2.76a2,2,0,0,1,1.51.67V25.19h1.22v6.07a3.36,3.36,0,0,0,.16,1.29H79.24a2,2,0,0,1-.12-.72,2.11,2.11,0,0,1-1.68.8C76.23,32.63,75.35,31.76,75.35,29.93Zm3.77,1V28.84a1.61,1.61,0,0,0-1.24-.66c-.93,0-1.3.6-1.3,1.77s.48,1.67,1.26,1.67A1.78,1.78,0,0,0,79.12,31Zm2.63-3.69H83v.87h0a2.07,2.07,0,0,1,1.9-1H85l0,1.12-.33,0a1.79,1.79,0,0,0-1.63.94v3.34H81.74Zm4.11-2.08h1.23V28A2.62,2.62,0,0,1,89,27.17a1.42,1.42,0,0,1,1.52,1.59v3.79H89.31V29.07c0-.59-.25-.86-.79-.86a2.14,2.14,0,0,0-1.43.69v3.65H85.86Zm5.77,4.73a2.51,2.51,0,0,1,2.52-2.75c1.18,0,2.32.71,2.32,2.86v.29H92.85a1.31,1.31,0,0,0,1.41,1.37,1.91,1.91,0,0,0,1.48-.62l.65.64a2.85,2.85,0,0,1-2.22,1A2.46,2.46,0,0,1,91.62,29.92Zm3.71-.52c-.07-.81-.47-1.23-1.2-1.23a1.24,1.24,0,0,0-1.26,1.23Zm2.25-4.11h1.25v1.06H97.58Zm0,2h1.23v5.28H97.59Zm2.63,0h1.23V28a2.62,2.62,0,0,1,1.93-.82,1.42,1.42,0,0,1,1.52,1.59v3.79h-1.23V29.07c0-.59-.25-.86-.79-.86a2.14,2.14,0,0,0-1.43.69v3.65h-1.23Zm5.9,1.72h2.46v.88h-2.46Zm2.9-3.8h1.25l.94,3.81c.15.59.29,1.13.39,1.71h0c.1-.57.23-1.11.38-1.7l.89-3.82h1.19L115,29c.16.63.28,1.06.39,1.68h0c.11-.64.22-1,.36-1.65l.92-3.87h1.16l-1.94,7.36h-1.08l-1.32-5.64h0l-1.39,5.64H111Zm9.1,4.73a2.51,2.51,0,0,1,2.52-2.75c1.18,0,2.32.71,2.32,2.86v.29h-3.61a1.31,1.31,0,0,0,1.41,1.37,1.91,1.91,0,0,0,1.48-.62l.65.64a2.85,2.85,0,0,1-2.22,1A2.46,2.46,0,0,1,118.12,29.92Zm3.71-.52c-.07-.81-.47-1.23-1.2-1.23a1.24,1.24,0,0,0-1.26,1.23Zm1.89,2.43.67-.75a2.6,2.6,0,0,0,1.66.63c.66,0,1.05-.17,1.05-.61s-.54-.56-1.17-.71c-.91-.21-2-.45-2-1.67,0-.93.8-1.55,2-1.55a3.1,3.1,0,0,1,2.17.75l-.59.8a2.65,2.65,0,0,0-1.49-.58c-.68,0-.9.24-.9.54s.53.56,1.15.7c.91.2,2,.43,2,1.66s-1,1.63-2.21,1.63A3.34,3.34,0,0,1,123.72,31.83Zm6.1-.66V28.25h-.92v-1h.92V25.43H131v1.84h1.36v1H131v2.62c0,.57.17.8.78.8a2,2,0,0,0,.53-.07v1a6.05,6.05,0,0,1-.9.07C130.11,32.62,129.83,32.13,129.83,31.17Zm4.24-2.92h-.92v-1h.92v-.54c0-.89.37-1.57,1.71-1.57.23,0,.64,0,.73,0v.95a2.3,2.3,0,0,0-.42,0c-.44,0-.8.12-.8.69v.47h1.15v1h-1.15v4.31h-1.22Zm3,3c0-1.14,1-1.91,3.44-2.19v-.16c0-.53-.28-.76-.87-.76a2.87,2.87,0,0,0-1.78.72l-.6-.77a3.78,3.78,0,0,1,2.55-1c1.41,0,1.9.68,1.9,1.91v2.18a3.62,3.62,0,0,0,.15,1.29h-1.23a1.92,1.92,0,0,1-.12-.68,2.54,2.54,0,0,1-1.95.76A1.33,1.33,0,0,1,137.08,31.28Zm3.44-.2V29.92c-1.46.2-2.24.56-2.24,1.13,0,.42.29.64.74.64A2.11,2.11,0,0,0,140.52,31.08Zm2.58-5.89h1.23v7.36H143.1Zm2.36,4.73A2.51,2.51,0,0,1,148,27.17c1.18,0,2.32.71,2.32,2.86v.29h-3.61a1.31,1.31,0,0,0,1.41,1.37,1.91,1.91,0,0,0,1.48-.62l.65.64a2.85,2.85,0,0,1-2.22,1A2.46,2.46,0,0,1,145.46,29.92Zm3.71-.52c-.07-.81-.47-1.23-1.2-1.23a1.24,1.24,0,0,0-1.26,1.23Zm2.25-2.13h1.23V28a2.62,2.62,0,0,1,1.93-.82,1.42,1.42,0,0,1,1.52,1.59v3.79h-1.23V29.07c0-.59-.25-.86-.79-.86a2.14,2.14,0,0,0-1.43.69v3.65h-1.23Z" fill="#272724"/>
        <path d="M216.87,44.91a21.2,21.2,0,0,1-21.15-21.26V.21H238V23.65a21.2,21.2,0,0,1-21.14,21.26" fill="#fff" fill-rule="evenodd"/>
        <path d="M237.43,23.65a20.56,20.56,0,1,1-41.12,0V.8h41.12V23.65M238.23,0V23.65a21.36,21.36,0,1,1-42.71,0V0Z" fill="#272724" fill-rule="evenodd"/>
        <path d="M216.34,9.48V23.65a19.62,19.62,0,0,1-9.48,16.83,19.65,19.65,0,0,1-7-7.18,20.94,20.94,0,0,0,2.83-3.44c1.6-2.6,1.84-5.89,3.74-8.31,1.76-2.24,4.86-2.86,6.51-5.07s2.06-4.76,3.37-7m-19-7.62H213.5c-.6.66-1.18,1.33-1.72,2-2,2.71-1.83,6.5-3.89,9.16-1.8,2.32-4.84,2.93-6.52,5.07-1.91,2.43-2,5.77-3.82,8.26a19.86,19.86,0,0,1-.19-2.74Zm19.5,38.08a1.32,1.32,0,1,1,1.32-1.32A1.32,1.32,0,0,1,216.87,39.94Zm4.21-.79a2.12,2.12,0,0,1,.52,1,2.12,2.12,0,0,1-1,.51,1.24,1.24,0,0,0-.16-.89A1.28,1.28,0,0,0,221.09,39.15Zm-2.41-4.37a2.12,2.12,0,0,1,1.12-.18,2.13,2.13,0,0,1,.17,1.12,1.25,1.25,0,0,0-.9-.12A1.29,1.29,0,0,0,218.68,34.78Zm-4.9.94a2.13,2.13,0,0,1,.17-1.12,2.12,2.12,0,0,1,1.11.18,1.25,1.25,0,0,0-.4.82A1.28,1.28,0,0,0,213.78,35.72Zm-.63,5a2.11,2.11,0,0,1-1-.51,2.11,2.11,0,0,1,.51-1,1.25,1.25,0,0,0,.65.63A1.24,1.24,0,0,0,213.15,40.67Zm4.52,2.12a.8.8,0,1,1-1.6,0,1.25,1.25,0,0,0,.8-.43A1.28,1.28,0,0,0,217.67,42.79Z" fill="#009951"/>
        <path d="M218.93,38.62a2.06,2.06,0,1,1-2.06-2.06,2.06,2.06,0,0,1,2.06,2.06m-4.41,3.24c-.86-.63-1.19-1.72-.36-2.14a.34.34,0,0,0-.13-.4c-.92.15-1.3-.92-1-1.94s1.27-1.66,1.92-1a.34.34,0,0,0,.34-.25c-.43-.83.48-1.52,1.55-1.52s2,.69,1.55,1.52a.34.34,0,0,0,.34.25c.66-.66,1.59,0,1.92,1s0,2.09-1,1.94a.34.34,0,0,0-.13.4c.83.42.51,1.51-.36,2.14s-2,.6-2.14-.32a.34.34,0,0,0-.42,0C216.52,42.46,215.38,42.49,214.52,41.86Zm8.29-14.07h3.7c0-1.53-1.13-2.53-1.13-4.31a2.07,2.07,0,0,1,1.68-2.25,3.43,3.43,0,0,1,.8,1.11,7.92,7.92,0,0,0,.64,3.41s-.84.64-.84,3c0,0-3.34-.15-3.74.28h-.53v.75a3,3,0,0,1-2.14,0,2.07,2.07,0,0,1,.72-1.28h.2a.64.64,0,0,0,.64-.64A.59.59,0,0,0,222.8,27.79Zm-4.1-12a2.18,2.18,0,0,1-.4-1.39.66.66,0,0,0,.16-.12.64.64,0,0,0,0-.9l-.12-.1c.36-1.06,1.06-1.61,1.35-3.12h1.1l2.61,2.05a4.31,4.31,0,0,0-1,1.92L221,11.55c-.89,0-1.44.74-1,1.84l-.34.34.52.55A3,3,0,0,1,218.71,15.79Zm10.74,18.42a2,2,0,0,1,.71-1.28h.1a.64.64,0,0,0,.64-.64.63.63,0,0,0-.06-.27c1.75-3.13,1.29-3.58-1.43-5.8-.74-.61-1-2.38-1-4-1.08-2.52-4-2.23-5.1-4.71l1.28.07a1.52,1.52,0,0,0,1.33-.69c.2-.3,0-.72-.33-.61a1,1,0,0,1-1,.71l-3.17-.17c-.63.63-.5,1.53.61,2v.47h.76a3,3,0,0,1,0,2.14,2.33,2.33,0,0,1-1.28-.72c0-.07,0-.14,0-.2a.64.64,0,0,0-.64-.64l-.15,0c-.36-.57-.3-1.79-1.23-3.15l.7-.86,2.57-.87c.07-3,3.54-3.71,4.07-5.92a1.52,1.52,0,0,0,1.56-.92c.09-.18,0-.61-.41-.52-.26.73-.6.86-1.08.86-1.25,0-2.26-.21-2.43.35-.28.94-1.58.35-1.58.35L223.3,9h.08c.24,0,.44-.13.44-.28s-.19-.28-.44-.28-.44.13-.44.28v0l-.3.22a.44.44,0,0,1-.46-.44.28.28,0,0,0,0-.56.83.83,0,0,1,.35-.57l2.22-1.76A9.66,9.66,0,0,1,226,4.86c0-.48.15-1.12.15-1.57a1.91,1.91,0,0,1,.92.91,1.16,1.16,0,0,1,0,1,.4.4,0,0,0,.68-.29,1.7,1.7,0,0,0-.05-.68,15.17,15.17,0,0,0,4,.2,3.89,3.89,0,0,1-1.38,1A4.13,4.13,0,0,1,232.92,7a5.45,5.45,0,0,1-1.43.47c.9.78,1.25,1.95,2,2.42a4.1,4.1,0,0,1-2.46,0,3.77,3.77,0,0,0,1.46,1.72,11.28,11.28,0,0,1-2.45.77,3.85,3.85,0,0,0,.9,1.08,4.36,4.36,0,0,0-1.59.37,5.42,5.42,0,0,0,1.79,4.7c2.76,2.09,3.45,3.67,1.27,6.47a6.22,6.22,0,0,0,1,3.45c-.06.14-.37.82-.67,1.66a8.67,8.67,0,0,0-.58,2.8.47.47,0,0,0-.47.5v.76A3.33,3.33,0,0,1,229.45,34.21ZM224.73,6.52c.3.5,1.06,0,1.06,0S224.87,5.65,224.73,6.52Zm10.85,7.93c0,1.27-1.15,1.82-1.15,2.77,0,1.12,1.11,1.67,1.11,2.75a1.06,1.06,0,0,1-1.45,1.12.51.51,0,0,0,.36-.52c0-1.33-2.84-1.26-2.84-3.34,0-1.09.77-2,.77-2.6a1.06,1.06,0,0,0-.67-.93,1.27,1.27,0,0,1,1.81.47,3.22,3.22,0,0,0,.15-2.07,2.54,2.54,0,0,1,1.91,2.36ZM217.4,1.86h19v21.8a19.62,19.62,0,0,1-9.48,16.83,19.62,19.62,0,0,1-9.48-16.83Z" fill="#e12216" fill-rule="evenodd"/>
      </g>
    </g>
  </g>
</svg>
