<svg xmlns="http://www.w3.org/2000/svg" width="238.23" height="45.12" viewBox="0 0 2513.63 453.54"><defs><style>.cls-1{fill:#fff;}.cls-1,.cls-2,.cls-4{fill-rule:evenodd;}.cls-2,.cls-5{fill:#181716;}.cls-3{fill:#00963e;}.cls-4{fill:#e3000b;}</style></defs><title>NRW_MWIDE_RGB</title><g id="Ebene_2" data-name="Ebene 2"><g id="NRW_W_CMYK"><path id="Weiß" class="cls-1" d="M2299,451.41c-117.35,0-212.54-95.67-212.54-213.65V2.13H2511.5V237.76C2511.5,355.74,2416.31,451.41,2299,451.41Z"/><path id="Schwarz" class="cls-2" d="M2505.63,237.76c0,114.77-92.6,207.79-206.68,207.79s-206.68-93-206.68-207.79V8h413.35Zm8-237.76V237.76c0,119.15-96.14,215.79-214.68,215.79s-214.68-96.63-214.68-215.79V0Z"/><path id="Grün" class="cls-3" d="M2293.62,95.25V237.76a197.24,197.24,0,0,1-95.34,169.15,197.64,197.64,0,0,1-70-72.16c10.37-10.81,20.52-21.77,28.44-34.6,16.1-26.12,18.5-59.18,37.58-83.51,17.67-22.53,48.85-28.77,65.46-50.93C2275.6,144.59,2280.45,117.86,2293.62,95.25ZM2102.94,18.67h162.15c-6,6.63-11.9,13.4-17.29,20.58-20.44,27.28-18.42,65.35-39.06,92-18,23.33-48.61,29.44-65.5,51-19.14,24.43-20.38,58-38.41,83a199.93,199.93,0,0,1-1.89-27.51Zm196,382.76a13.22,13.22,0,1,1,13.22-13.22A13.22,13.22,0,0,1,2298.95,401.43Zm42.35-7.91a21.29,21.29,0,0,1,5.21,10.14,21.29,21.29,0,0,1-10.12,5.13,12.54,12.54,0,0,0-1.61-9A12.89,12.89,0,0,0,2341.3,393.52Zm-24.21-43.94a21.28,21.28,0,0,1,11.25-1.82A21.29,21.29,0,0,1,2330.1,359a12.53,12.53,0,0,0-9-1.25A12.89,12.89,0,0,0,2317.09,349.58ZM2267.82,359a21.3,21.3,0,0,1,1.75-11.27,21.3,21.3,0,0,1,11.2,1.8,12.55,12.55,0,0,0-4,8.21A12.89,12.89,0,0,0,2267.82,359Zm-6.3,49.76a21.27,21.27,0,0,1-10.12-5.13,21.3,21.3,0,0,1,5.17-10.1,12.55,12.55,0,0,0,6.52,6.3A12.55,12.55,0,0,0,2261.52,408.79ZM2307,430.12a8,8,0,1,1-16,0,12.54,12.54,0,0,0,8-4.3A12.92,12.92,0,0,0,2307,430.12Z"/><path id="Rot" class="cls-4" d="M2319.64,388.21a20.69,20.69,0,1,1-20.69-20.69A20.69,20.69,0,0,1,2319.64,388.21Zm-44.37,32.6c-8.69-6.31-11.94-17.27-3.58-21.5a3.43,3.43,0,0,0-1.32-4.06c-9.25,1.49-13.06-9.29-9.74-19.5s12.73-16.69,19.34-10a3.43,3.43,0,0,0,3.45-2.51c-4.28-8.34,4.8-15.29,15.54-15.29s19.81,7,15.53,15.29a3.43,3.43,0,0,0,3.45,2.51c6.61-6.64,16-.16,19.34,10.06s-.49,21-9.74,19.5a3.43,3.43,0,0,0-1.32,4.06c8.36,4.23,5.11,15.19-3.59,21.5s-20.11,6-21.55-3.24a3.43,3.43,0,0,0-4.27,0C2295.38,426.83,2284,427.12,2275.26,420.81Zm83.32-141.47h37.22c0-15.34-11.39-25.4-11.39-43.35,0-11.74,4.61-19.1,16.86-22.64a34.31,34.31,0,0,1,8.08,11.15c.11,15.71,2.73,26.5,6.48,34.3,0,0-8.46,6.44-8.46,30.12,0,0-33.58-1.54-37.61,2.84h-5.29v7.58c-8.27,2.72-16,2.81-21.48.28,0-6.74,7.23-12.87,7.23-12.87.75,0,1.37.12,2,.12a6.42,6.42,0,0,0,6.33-7.54Zm-41.18-120.6c-4-4-4-12.46-4-14a6.43,6.43,0,0,0,.34-11.21c3.62-10.68,10.68-16.23,13.54-31.39h11l26.27,20.61a43.28,43.28,0,0,0-10.36,19.33l-14-26c-9,0-14.48,7.43-9.83,18.51L2327,138l5.2,5.51C2328.32,151.19,2323.11,156.57,2317.4,158.73Zm108,185.12c0-6.61,6.49-12.32,7.14-12.87a6.43,6.43,0,0,0,6.82-9.06c17.62-31.44,13-36-14.35-58.31-7.47-6.11-9.78-24-9.78-40.37-10.85-25.36-40.19-22.42-51.25-47.31l12.82.7a15.26,15.26,0,0,0,13.38-6.89c2-3.05,0-7.22-3.27-6.1-1.49,4.11-5.51,7.37-10,7.13L2345.1,169c-6.33,6.3-5,15.41,6.11,20.17V194h7.6c2.71,8.59,2.8,16.29.29,21.48-6.06,0-12.89-7.23-12.89-7.23,0-.75.12-1.38.12-2a6.43,6.43,0,0,0-7.88-6.26c-3.61-5.73-3-18-12.37-31.63l7.07-8.6L2359,151c.75-30.33,35.6-37.34,40.95-59.49,7.46,0,12.12-2.21,15.73-9.29.94-1.83.5-6.15-4.17-5.22-2.6,7.35-6,8.64-10.87,8.64-12.56,0-22.69-2.11-24.38,3.48-2.84,9.44-15.93,3.52-15.93,3.52l3.2-2.33a6.67,6.67,0,0,0,.81,0c2.42,0,4.39-1.28,4.39-2.85s-2-2.85-4.39-2.85-4.39,1.28-4.39,2.85a1.89,1.89,0,0,0,0,.29L2357,90c-3.87,0-4.55-3-4.65-4.47a2.85,2.85,0,0,0,.12-5.68c.06-1.16.71-3.55,3.48-5.75l22.33-17.73c3.24-2.57,9.69-6,12.56-7.51-.35-4.86,1.49-11.27,1.49-15.81,0,0,6.57,2.81,9.25,9.2,2,4.72.73,7.66-.15,10,1.21,1.9,6.28,1.92,6.88-3a17.17,17.17,0,0,0-.53-6.81c8.69.94,20.93,3.92,39.74,2a39.16,39.16,0,0,1-13.87,9.91c9.37,2.22,20.9,6.83,26.66,16.42a54.92,54.92,0,0,1-14.35,4.75c9,7.83,12.51,19.55,20.21,24.29-10,2.77-18.2,2-24.68-.21,3.13,6.4,8,13.85,14.63,17.26a113.4,113.4,0,0,1-24.66,7.72c2.13,3.56,5.26,8,9.08,10.85a43.94,43.94,0,0,0-16,3.68c-.59,8.21-2.85,25.26,18,47.24,27.75,21,34.67,36.88,12.8,65.08,0,14.29,2.39,20,9.8,34.64-.64,1.43-3.67,8.29-6.7,16.69-3.32,9.2-5.81,19.31-5.81,28.19a4.68,4.68,0,0,0-4.71,5v7.6C2439.27,346.23,2430.5,346.34,2425.38,343.86ZM2378,65.52c3,5,10.64,0,10.64,0S2379.37,56.75,2378,65.52Zm109.11,79.73c0,12.78-11.56,18.31-11.56,27.86,0,11.3,11.17,16.75,11.17,27.65,0,11.27-8.86,13.17-14.6,11.23a5.11,5.11,0,0,0,3.58-5.26c0-13.35-28.59-12.65-28.59-33.62,0-11,7.78-19.69,7.78-26.16a10.66,10.66,0,0,0-6.71-9.39c5.85-4.15,15.68-1.61,18.21,4.75,2-5.29,3.89-13.16,1.5-20.81,13.44,5.15,19.19,13.9,19.22,23.69ZM2304.29,18.67H2495V237.76a197.24,197.24,0,0,1-95.34,169.15,197.24,197.24,0,0,1-95.34-169.15Z"/></g><g id="Ebene_4" data-name="Ebene 4"><path class="cls-5" d="M4.4,13.3H20.9L40.7,72h.2L60.1,13.3H76.9v74H64.8V32.1h-.2a150.62,150.62,0,0,1-4.4,15.1L45.8,87.31H34.7L20.4,47.2a126.58,126.58,0,0,1-4.5-15.6h-.2v55.7H4.4Z"/><path class="cls-5" d="M92.46,14.3h12.6V25H92.46Zm.1,19.9H105v53.1H92.56Z"/><path class="cls-5" d="M119,34.2h12.4v7.2a26.32,26.32,0,0,1,19.4-8.2c9.3,0,15.3,5.5,15.3,16v38.1h-12.4v-35c0-5.9-2.5-8.6-7.9-8.6s-9.9,2.8-14.4,6.9v36.7H119Z"/><path class="cls-5" d="M179.73,14.3h12.6V25h-12.6Zm.1,19.9h12.4v53.1h-12.4Z"/><path class="cls-5" d="M202.07,80l6.7-7.5a26.17,26.17,0,0,0,16.7,6.3c6.6,0,10.6-1.7,10.6-6.1s-5.4-5.6-11.8-7.1c-9.1-2.1-20-4.5-20-16.8,0-9.3,8-15.6,19.7-15.6,10.1,0,16.3,2.9,21.8,7.5l-5.9,8c-3.9-3.2-10.2-5.8-15-5.8-6.8,0-9,2.4-9,5.4,0,4.3,5.3,5.6,11.6,7,9.1,2,20.2,4.3,20.2,16.7,0,11.2-10.1,16.4-22.2,16.4C215.67,88.41,206.87,84.91,202.07,80Z"/><path class="cls-5" d="M263.42,73.41V44h-9.2V34.2h9.2V15.7h12.3V34.2h13.7V44h-13.7v26.3c0,5.7,1.7,8,7.8,8a20,20,0,0,0,5.3-.7v9.7a60.7,60.7,0,0,1-9,.7C266.32,88,263.42,83,263.42,73.41Z"/><path class="cls-5" d="M295.6,60.8c0-20.2,14.3-27.6,25.3-27.6,11.9,0,23.3,7.1,23.3,28.7v2.9H307.9c.5,9.6,6.4,13.8,14.2,13.8,6.9,0,10.9-2.3,14.9-6.2l6.5,6.4c-5.5,6.1-12.8,9.6-22.3,9.6C307.9,88.41,295.6,80.31,295.6,60.8Zm37.3-5.2c-.7-8.1-4.7-12.4-12.1-12.4-6,0-11.5,3.4-12.7,12.4Z"/><path class="cls-5" d="M355.49,34.2h12.3v8.7h.2c3.3-5.3,9-9.7,19.1-9.7h.8l-.4,11.3c-.6-.1-2.6-.2-3.3-.2-7.9,0-12.9,3.7-16.4,9.4v33.6h-12.3Z"/><path class="cls-5" d="M397,14.3h12.6V25H397Zm.1,19.9h12.4v53.1h-12.4Z"/><path class="cls-5" d="M423,72.31V34.2h12.4v35.2c0,5.9,2.5,8.6,7.9,8.6s9.9-2.8,14.4-6.9V34.2h12.4v53.1h-12.4v-7.2a26.32,26.32,0,0,1-19.4,8.2C429,88.31,423,82.81,423,72.31Z"/><path class="cls-5" d="M484,34.2h12.3v7.3a24.17,24.17,0,0,1,18.2-8.3c8.9,0,12.4,3.5,14.5,8.7,4.2-4.6,10.5-8.7,18.6-8.7,10.8,0,15.5,6.5,15.5,16v38.1h-12.3v-35c0-5.9-1.7-8.6-7.5-8.6-5,0-9,2.8-13.6,6.9v36.7h-12.3v-35c0-5.9-1.7-8.6-7.5-8.6-4.9,0-9,2.8-13.6,6.9v36.7H484Z"/><path class="cls-5" d="M611.13,44h-9.2V34.2h9.2V28.8c0-8.9,3.7-15.8,17.2-15.8,2.3,0,6.4.4,7.3.5V23a23,23,0,0,0-4.2-.4c-4.4,0-8,1.2-8,6.9v4.7H635V44h-11.6v43.3h-12.3Z"/><path class="cls-5" d="M643.73,72.31V34.2h12.4v35.2c0,5.9,2.5,8.6,7.9,8.6s9.9-2.8,14.4-6.9V34.2h12.4v53.1h-12.4v-7.2a26.32,26.32,0,0,1-19.4,8.2C649.73,88.31,643.73,82.81,643.73,72.31Zm8.1-55.5H663V28.9h-11.2Zm19.7,0h11.3V28.9h-11.3Z"/><path class="cls-5" d="M704.72,34.2H717v8.7h.2c3.3-5.3,9-9.7,19.1-9.7h.8l-.4,11.3c-.6-.1-2.6-.2-3.3-.2-7.9,0-12.9,3.7-16.4,9.4v33.6h-12.3Z"/><path class="cls-5" d="M772,13.3h12.6L794,51.6c1.5,5.9,2.9,11.4,3.9,17.2h.2c1-5.7,2.3-11.2,3.8-17.1l8.9-38.4h12L832,51.9c1.6,6.3,2.8,10.7,3.9,16.9h.2c1.1-6.4,2.2-10.3,3.6-16.6l9.2-38.9h11.7l-19.5,74h-10.9l-13.3-56.7h-.2l-14,56.7h-11Z"/><path class="cls-5" d="M870.71,14.3h12.6V25h-12.6Zm.1,19.9h12.4v53.1h-12.4Z"/><path class="cls-5" d="M897.21,34.2h12.3v8.7h.2c3.3-5.3,9-9.7,19.1-9.7h.8l-.4,11.3c-.6-.1-2.6-.2-3.3-.2-7.9,0-12.9,3.7-16.4,9.4v33.6h-12.3Z"/><path class="cls-5" d="M945.49,73.41V44h-9.2V34.2h9.2V15.7h12.3V34.2h13.7V44h-13.7v26.3c0,5.7,1.7,8,7.8,8a20,20,0,0,0,5.3-.7v9.7a60.7,60.7,0,0,1-9,.7C948.39,88,945.49,83,945.49,73.41Z"/><path class="cls-5" d="M978.87,80l6.7-7.5a26.17,26.17,0,0,0,16.7,6.3c6.6,0,10.6-1.7,10.6-6.1s-5.4-5.6-11.8-7.1c-9.1-2.1-20-4.5-20-16.8,0-9.3,8-15.6,19.7-15.6,10.1,0,16.3,2.9,21.8,7.5l-5.9,8c-3.9-3.2-10.2-5.8-15-5.8-6.8,0-9,2.4-9,5.4,0,4.3,5.3,5.6,11.6,7,9.1,2,20.2,4.3,20.2,16.7,0,11.2-10.1,16.4-22.2,16.4C992.47,88.41,983.67,84.91,978.87,80Z"/><path class="cls-5" d="M1032.58,60.8c0-20.3,13.7-27.6,25.5-27.6,13.2,0,18.8,7.3,22,15.5l-10.4,3.7c-2.1-6-5.9-8.9-11.8-8.9-7,0-12.9,4.6-12.9,17.3,0,11.3,4.6,17.5,12.7,17.5,5.6,0,9.5-1.7,12.4-9.2l10.2,3.7c-3.8,8.5-10.1,15.6-22.9,15.6C1045.08,88.41,1032.58,80.21,1032.58,60.8Z"/><path class="cls-5" d="M1090.17,13.3h12.4V41.4a26.32,26.32,0,0,1,19.4-8.2c9.3,0,15.3,5.5,15.3,16v38.1h-12.4v-35c0-5.9-2.5-8.6-7.9-8.6s-9.9,2.8-14.4,6.9v36.7h-12.4Z"/><path class="cls-5" d="M1147.38,74.51c0-11.5,9.8-19.2,34.6-22V50.9c0-5.3-2.8-7.6-8.7-7.6-7.4,0-13.4,3.6-17.9,7.2l-6-7.7a38,38,0,0,1,25.6-9.6c14.2,0,19.1,6.8,19.1,19.2v21.9c0,6.4.4,10.3,1.5,13h-12.4a19.25,19.25,0,0,1-1.2-6.8c-5.4,5.5-11.7,7.6-19.6,7.6C1153.78,88.11,1147.38,83.31,1147.38,74.51Zm34.6-2V60.8c-14.7,2-22.5,5.6-22.5,11.4,0,4.2,2.9,6.4,7.4,6.4A21.2,21.2,0,0,0,1182,72.51Z"/><path class="cls-5" d="M1211.85,44h-9.2V34.2h9.2V28.8c0-8.9,3.7-15.8,17.2-15.8,2.3,0,6.4.4,7.3.5V23a23,23,0,0,0-4.2-.4c-4.4,0-8,1.2-8,6.9v4.7h11.6V44h-11.6v43.3h-12.3Z"/><path class="cls-5" d="M1251.67,73.41V44h-9.2V34.2h9.2V15.7H1264V34.2h13.7V44H1264v26.3c0,5.7,1.7,8,7.8,8a20,20,0,0,0,5.3-.7v9.7a60.7,60.7,0,0,1-9,.7C1254.57,88,1251.67,83,1251.67,73.41Z"/><path class="cls-5" d="M1293.91,87.31h-5.3v-13h13.8v11.3l-6.3,12.9h-5.7Z"/><path class="cls-5" d="M1348.61,13.3h12.6v74h-12.6Z"/><path class="cls-5" d="M1376.77,34.2h12.4v7.2a26.32,26.32,0,0,1,19.4-8.2c9.3,0,15.3,5.5,15.3,16v38.1h-12.4v-35c0-5.9-2.5-8.6-7.9-8.6s-9.9,2.8-14.4,6.9v36.7h-12.4Z"/><path class="cls-5" d="M1437.47,34.2h12.4v7.2a26.33,26.33,0,0,1,19.4-8.2c9.3,0,15.3,5.5,15.3,16v38.1h-12.4v-35c0-5.9-2.5-8.6-7.9-8.6s-9.9,2.8-14.4,6.9v36.7h-12.4Z"/><path class="cls-5" d="M1495.43,60.8c0-19.6,12.9-27.6,25.9-27.6s25.9,8,25.9,27.6c0,19.4-13,27.6-25.9,27.6S1495.43,80.21,1495.43,60.8Zm39.4,0c0-9.9-4.2-17.1-13.5-17.1-8.9,0-13.5,6.4-13.5,17.1,0,10.1,4.1,17.3,13.5,17.3C1530.23,78.11,1534.83,71.71,1534.83,60.8Z"/><path class="cls-5" d="M1550.84,34.2h12.9l13,39.2h.2l12.9-39.2h11.9l-19.2,53.2H1570Z"/><path class="cls-5" d="M1606.27,74.51c0-11.5,9.8-19.2,34.6-22V50.9c0-5.3-2.8-7.6-8.7-7.6-7.4,0-13.4,3.6-17.9,7.2l-6-7.7a38,38,0,0,1,25.6-9.6c14.2,0,19.1,6.8,19.1,19.2v21.9c0,6.4.4,10.3,1.5,13h-12.4a19.24,19.24,0,0,1-1.2-6.8c-5.4,5.5-11.7,7.6-19.6,7.6C1612.67,88.11,1606.27,83.31,1606.27,74.51Zm34.6-2V60.8c-14.7,2-22.5,5.6-22.5,11.4,0,4.2,2.9,6.4,7.4,6.4A21.2,21.2,0,0,0,1640.87,72.51Z"/><path class="cls-5" d="M1670.55,73.41V44h-9.2V34.2h9.2V15.7h12.3V34.2h13.7V44h-13.7v26.3c0,5.7,1.7,8,7.8,8a20,20,0,0,0,5.3-.7v9.7a60.71,60.71,0,0,1-9,.7C1673.45,88,1670.55,83,1670.55,73.41Z"/><path class="cls-5" d="M1706.19,14.3h12.6V25h-12.6Zm.1,19.9h12.4v53.1h-12.4Z"/><path class="cls-5" d="M1730,60.8c0-19.6,12.9-27.6,25.9-27.6s25.9,8,25.9,27.6c0,19.4-13,27.6-25.9,27.6S1730,80.21,1730,60.8Zm39.4,0c0-9.9-4.2-17.1-13.5-17.1-8.9,0-13.5,6.4-13.5,17.1,0,10.1,4.1,17.3,13.5,17.3C1764.79,78.11,1769.4,71.71,1769.4,60.8Z"/><path class="cls-5" d="M1792.92,34.2h12.4v7.2a26.33,26.33,0,0,1,19.4-8.2c9.3,0,15.3,5.5,15.3,16v38.1h-12.4v-35c0-5.9-2.5-8.6-7.9-8.6s-9.9,2.8-14.4,6.9v36.7h-12.4Z"/><path class="cls-5" d="M1859.3,87.31H1854v-13h13.8v11.3l-6.3,12.9h-5.7Z"/><path class="cls-5" d="M4.4,133.3H25.5c23.2,0,38.4,10.8,38.4,36.7,0,26.4-15.5,37.3-38.4,37.3H4.4Zm22.2,62.8c16.9,0,24.8-7.4,24.8-26.1,0-17.8-8-25.1-25-25.1H16.9v51.2Z"/><path class="cls-5" d="M76.47,134.3h12.6V145H76.47Zm.1,19.9H89v53.1H76.57Z"/><path class="cls-5" d="M97.6,214.91c0-5.3,3.3-9.1,8.7-11.2a7,7,0,0,1-4.1-6.5c0-4,3.2-7.3,7.2-9.7a17.48,17.48,0,0,1-8.4-15.3c0-10.9,8.4-19,22.3-19,7.3,0,12.7,2.4,16.3,5.6a27.24,27.24,0,0,1,13.2-5.2v10a31.77,31.77,0,0,0-9.3,1.4,13.52,13.52,0,0,1,1.9,7.2c0,11.1-8.3,18.9-22.1,18.9a25,25,0,0,1-7.4-1.1c-1.6.9-2.7,2-2.7,3.4,0,2.1,1.4,2.8,6.1,3.2l9.4.6c15.7,1,21.9,5.2,21.9,14.5,0,10.9-11,16.2-27.4,16.2C104.9,227.91,97.6,222.61,97.6,214.91Zm42.1-2.1c0-3.8-2.7-5.2-13.5-5.9l-9.2-.6a17.31,17.31,0,0,1-3.2-.3c-3.5,1.6-4.9,4.1-4.9,6.8,0,4.7,5.4,6.2,16.2,6.2C134.1,219,139.7,216.61,139.7,212.81Zm-5.5-40.2c0-6.6-3.8-10.2-10.8-10.2-6.8,0-10.8,3.7-10.8,10.2s4.1,10,10.9,10S134.2,179.1,134.2,172.6Z"/><path class="cls-5" d="M162.1,134.3h12.6V145H162.1Zm.1,19.9h12.4v53.1H162.2Z"/><path class="cls-5" d="M192.9,193.41V164h-9.2v-9.8h9.2V135.7h12.3v18.5h13.7V164H205.2v26.3c0,5.7,1.7,8,7.8,8a20,20,0,0,0,5.3-.7v9.7a60.7,60.7,0,0,1-9,.7C195.8,208,192.9,203,192.9,193.41Z"/><path class="cls-5" d="M226.5,194.51c0-11.5,9.8-19.2,34.6-22v-1.6c0-5.3-2.8-7.6-8.7-7.6-7.4,0-13.4,3.6-17.9,7.2l-6-7.7a38,38,0,0,1,25.6-9.6c14.2,0,19.1,6.8,19.1,19.2v21.9c0,6.4.4,10.3,1.5,13H262.3a19.25,19.25,0,0,1-1.2-6.8c-5.4,5.5-11.7,7.6-19.6,7.6C232.9,208.11,226.5,203.31,226.5,194.51Zm34.6-2V180.8c-14.7,2-22.5,5.6-22.5,11.4,0,4.2,2.9,6.4,7.4,6.4A21.2,21.2,0,0,0,261.1,192.51Z"/><path class="cls-5" d="M287,133.3h12.4v74H287Z"/><path class="cls-5" d="M313.55,134.3h12.6V145h-12.6Zm.1,19.9h12.4v53.1h-12.4Z"/><path class="cls-5" d="M335.89,200l6.7-7.5a26.17,26.17,0,0,0,16.7,6.3c6.6,0,10.6-1.7,10.6-6.1s-5.4-5.6-11.8-7.1c-9.1-2.1-20-4.5-20-16.8,0-9.3,8-15.6,19.7-15.6,10.1,0,16.3,2.9,21.8,7.5l-5.9,8c-3.9-3.2-10.2-5.8-15-5.8-6.8,0-9,2.4-9,5.4,0,4.3,5.3,5.6,11.6,7,9.1,2,20.2,4.3,20.2,16.7,0,11.2-10.1,16.4-22.2,16.4C349.49,208.41,340.69,204.91,335.89,200Z"/><path class="cls-5" d="M392.39,134.3H405V145h-12.6Zm.1,19.9h12.4v53.1h-12.4Z"/><path class="cls-5" d="M416.19,180.8c0-20.2,14.3-27.6,25.3-27.6,11.9,0,23.3,7.1,23.3,28.7v2.9h-36.3c.5,9.6,6.4,13.8,14.2,13.8,6.9,0,10.9-2.3,14.9-6.2l6.5,6.4c-5.5,6.1-12.8,9.6-22.3,9.6C428.49,208.41,416.19,200.31,416.19,180.8Zm37.3-5.2c-.7-8.1-4.7-12.4-12.1-12.4-6,0-11.5,3.4-12.7,12.4Z"/><path class="cls-5" d="M476.09,154.2h12.3v8.7h.2c3.3-5.3,9-9.7,19.1-9.7h.8l-.4,11.3c-.6-.1-2.6-.2-3.3-.2-7.9,0-12.9,3.7-16.4,9.4v33.6h-12.3Z"/><path class="cls-5" d="M517.15,192.31V154.2h12.4v35.2c0,5.9,2.5,8.6,7.9,8.6s9.9-2.8,14.4-6.9V154.2h12.4v53.1h-12.4v-7.2a26.32,26.32,0,0,1-19.4,8.2C523.15,208.31,517.15,202.81,517.15,192.31Z"/><path class="cls-5" d="M578.14,154.2h12.4v7.2a26.32,26.32,0,0,1,19.4-8.2c9.3,0,15.3,5.5,15.3,16v38.1h-12.4v-35c0-5.9-2.5-8.6-7.9-8.6s-9.9,2.8-14.4,6.9v36.7h-12.4Z"/><path class="cls-5" d="M633.17,214.91c0-5.3,3.3-9.1,8.7-11.2a7,7,0,0,1-4.1-6.5c0-4,3.2-7.3,7.2-9.7a17.48,17.48,0,0,1-8.4-15.3c0-10.9,8.4-19,22.3-19,7.3,0,12.7,2.4,16.3,5.6a27.24,27.24,0,0,1,13.2-5.2v10a31.77,31.77,0,0,0-9.3,1.4,13.52,13.52,0,0,1,1.9,7.2c0,11.1-8.3,18.9-22.1,18.9a25,25,0,0,1-7.4-1.1c-1.6.9-2.7,2-2.7,3.4,0,2.1,1.4,2.8,6.1,3.2l9.4.6c15.7,1,21.9,5.2,21.9,14.5,0,10.9-11,16.2-27.4,16.2C640.47,227.91,633.17,222.61,633.17,214.91Zm42.1-2.1c0-3.8-2.7-5.2-13.5-5.9l-9.2-.6a17.31,17.31,0,0,1-3.2-.3c-3.5,1.6-4.9,4.1-4.9,6.8,0,4.7,5.4,6.2,16.2,6.2C669.67,219,675.27,216.61,675.27,212.81Zm-5.5-40.2c0-6.6-3.8-10.2-10.8-10.2-6.8,0-10.8,3.7-10.8,10.2s4.1,10,10.9,10S669.77,179.1,669.77,172.6Z"/><path class="cls-5" d="M727,192.31V154.2h12.4v35.2c0,5.9,2.5,8.6,7.9,8.6s9.9-2.8,14.4-6.9V154.2h12.4v53.1h-12.4v-7.2a26.32,26.32,0,0,1-19.4,8.2C733,208.31,727,202.81,727,192.31Z"/><path class="cls-5" d="M788,154.2h12.4v7.2a26.32,26.32,0,0,1,19.4-8.2c9.3,0,15.3,5.5,15.3,16v38.1h-12.4v-35c0-5.9-2.5-8.6-7.9-8.6s-9.9,2.8-14.4,6.9v36.7H788Z"/><path class="cls-5" d="M846.14,180.9c0-18.4,9.1-27.7,22.7-27.7a20.25,20.25,0,0,1,15.2,6.7V133.3h12.3v61c0,6.4.4,10.3,1.6,13h-12.7a19.93,19.93,0,0,1-1.2-7.2c-3.9,4.5-9,8-16.9,8C855,208.11,846.14,199.31,846.14,180.9Zm37.9,10.4V170a16.2,16.2,0,0,0-12.5-6.6c-9.3,0-13.1,6-13.1,17.8,0,11.2,4.8,16.8,12.7,16.8C876.24,198,881.14,194.81,884,191.31Z"/><path class="cls-5" d="M941.73,133.3h47.8v11.6h-35.3v18.4h25.9v11.1h-25.9v21.5h37.3v11.4h-49.8Z"/><path class="cls-5" d="M1001.83,154.2h12.4v7.2a26.32,26.32,0,0,1,19.4-8.2c9.3,0,15.3,5.5,15.3,16v38.1h-12.4v-35c0-5.9-2.5-8.6-7.9-8.6s-9.9,2.8-14.4,6.9v36.7h-12.4Z"/><path class="cls-5" d="M1059.79,180.8c0-20.2,14.3-27.6,25.3-27.6,11.9,0,23.3,7.1,23.3,28.7v2.9h-36.3c.5,9.6,6.4,13.8,14.2,13.8,6.9,0,10.9-2.3,14.9-6.2l6.5,6.4c-5.5,6.1-12.8,9.6-22.3,9.6C1072.09,208.41,1059.79,200.31,1059.79,180.8Zm37.3-5.2c-.7-8.1-4.7-12.4-12.1-12.4-6,0-11.5,3.4-12.7,12.4Z"/><path class="cls-5" d="M1119.69,154.2H1132v8.7h.2c3.3-5.3,9-9.7,19.1-9.7h.8l-.4,11.3c-.6-.1-2.6-.2-3.3-.2-7.9,0-12.9,3.7-16.4,9.4v33.6h-12.3Z"/><path class="cls-5" d="M1155.86,214.91c0-5.3,3.3-9.1,8.7-11.2a7,7,0,0,1-4.1-6.5c0-4,3.2-7.3,7.2-9.7a17.48,17.48,0,0,1-8.4-15.3c0-10.9,8.4-19,22.3-19,7.3,0,12.7,2.4,16.3,5.6a27.24,27.24,0,0,1,13.2-5.2v10a31.77,31.77,0,0,0-9.3,1.4,13.52,13.52,0,0,1,1.9,7.2c0,11.1-8.3,18.9-22.1,18.9a25,25,0,0,1-7.4-1.1c-1.6.9-2.7,2-2.7,3.4,0,2.1,1.4,2.8,6.1,3.2l9.4.6c15.7,1,21.9,5.2,21.9,14.5,0,10.9-11,16.2-27.4,16.2C1163.16,227.91,1155.86,222.61,1155.86,214.91Zm42.1-2.1c0-3.8-2.7-5.2-13.5-5.9l-9.2-.6a17.31,17.31,0,0,1-3.2-.3c-3.5,1.6-4.9,4.1-4.9,6.8,0,4.7,5.4,6.2,16.2,6.2C1192.36,219,1198,216.61,1198,212.81Zm-5.5-40.2c0-6.6-3.8-10.2-10.8-10.2-6.8,0-10.8,3.7-10.8,10.2s4.1,10,10.9,10S1192.46,179.1,1192.46,172.6Z"/><path class="cls-5" d="M1220.36,134.3H1233V145h-12.6Zm.1,19.9h12.4v53.1h-12.4Z"/><path class="cls-5" d="M1244.16,180.8c0-20.2,14.3-27.6,25.3-27.6,11.9,0,23.3,7.1,23.3,28.7v2.9h-36.3c.5,9.6,6.4,13.8,14.2,13.8,6.9,0,10.9-2.3,14.9-6.2l6.5,6.4c-5.5,6.1-12.8,9.6-22.3,9.6C1256.46,208.41,1244.16,200.31,1244.16,180.8Zm37.3-5.2c-.7-8.1-4.7-12.4-12.1-12.4-6,0-11.5,3.4-12.7,12.4Z"/><path class="cls-5" d="M0,300.9c0-18.4,9.1-27.7,22.7-27.7a20.24,20.24,0,0,1,15.2,6.7V253.3H50.2v61c0,6.4.4,10.3,1.6,13H39.1a20,20,0,0,1-1.2-7.2c-3.9,4.5-9,8-16.9,8C8.9,328.11,0,319.31,0,300.9Zm37.9,10.4V290a16.2,16.2,0,0,0-12.5-6.6c-9.3,0-13.1,6-13.1,17.8,0,11.2,4.8,16.8,12.7,16.8C30.1,318,35,314.8,37.9,311.3Z"/><path class="cls-5" d="M61.2,300.8c0-20.2,14.3-27.6,25.3-27.6,11.9,0,23.3,7.1,23.3,28.7v2.9H73.5c.5,9.6,6.4,13.8,14.2,13.8,6.9,0,10.9-2.3,14.9-6.2l6.5,6.4c-5.5,6.1-12.8,9.6-22.3,9.6C73.5,328.41,61.2,320.31,61.2,300.8Zm37.3-5.2c-.7-8.1-4.7-12.4-12.1-12.4-6,0-11.5,3.4-12.7,12.4Z"/><path class="cls-5" d="M117.5,320l6.7-7.5a26.17,26.17,0,0,0,16.7,6.3c6.6,0,10.6-1.7,10.6-6.1s-5.4-5.6-11.8-7.1c-9.1-2.1-20-4.5-20-16.8,0-9.3,8-15.6,19.7-15.6,10.1,0,16.3,2.9,21.8,7.5l-5.9,8c-3.9-3.2-10.2-5.8-15-5.8-6.8,0-9,2.4-9,5.4,0,4.3,5.3,5.6,11.6,7,9.1,2,20.2,4.3,20.2,16.7,0,11.2-10.1,16.4-22.2,16.4C131.1,328.41,122.3,324.91,117.5,320Z"/><path class="cls-5" d="M205.4,253.3h12.5v62.6H252v11.4H205.4Z"/><path class="cls-5" d="M260.22,314.51c0-11.5,9.8-19.2,34.6-22v-1.6c0-5.3-2.8-7.6-8.7-7.6-7.4,0-13.4,3.6-17.9,7.2l-6-7.7a38,38,0,0,1,25.6-9.6c14.2,0,19.1,6.8,19.1,19.2v21.9c0,6.4.4,10.3,1.5,13H296a19.26,19.26,0,0,1-1.2-6.8c-5.4,5.5-11.7,7.6-19.6,7.6C266.62,328.11,260.22,323.31,260.22,314.51Zm34.6-2V300.8c-14.7,2-22.5,5.6-22.5,11.4,0,4.2,2.9,6.4,7.4,6.4A21.21,21.21,0,0,0,294.82,312.51Z"/><path class="cls-5" d="M320.43,274.2h12.4v7.2a26.32,26.32,0,0,1,19.4-8.2c9.3,0,15.3,5.5,15.3,16v38.1h-12.4v-35c0-5.9-2.5-8.6-7.9-8.6s-9.9,2.8-14.4,6.9v36.7h-12.4Z"/><path class="cls-5" d="M378.61,300.9c0-18.4,9.1-27.7,22.7-27.7a20.24,20.24,0,0,1,15.2,6.7V253.3h12.3v61c0,6.4.4,10.3,1.6,13h-12.7a20,20,0,0,1-1.2-7.2c-3.9,4.5-9,8-16.9,8C387.51,328.11,378.61,319.31,378.61,300.9Zm37.9,10.4V290a16.2,16.2,0,0,0-12.5-6.6c-9.3,0-13.1,6-13.1,17.8,0,11.2,4.8,16.8,12.7,16.8C408.72,318,413.62,314.8,416.52,311.3Z"/><path class="cls-5" d="M439.81,300.8c0-20.2,14.3-27.6,25.3-27.6,11.9,0,23.3,7.1,23.3,28.7v2.9h-36.3c.5,9.6,6.4,13.8,14.2,13.8,6.9,0,10.9-2.3,14.9-6.2l6.5,6.4c-5.5,6.1-12.8,9.6-22.3,9.6C452.11,328.41,439.81,320.31,439.81,300.8Zm37.3-5.2c-.7-8.1-4.7-12.4-12.1-12.4-6,0-11.5,3.4-12.7,12.4Z"/><path class="cls-5" d="M496.11,320l6.7-7.5a26.17,26.17,0,0,0,16.7,6.3c6.6,0,10.6-1.7,10.6-6.1s-5.4-5.6-11.8-7.1c-9.1-2.1-20-4.5-20-16.8,0-9.3,8-15.6,19.7-15.6,10.1,0,16.3,2.9,21.8,7.5l-5.9,8c-3.9-3.2-10.2-5.8-15-5.8-6.8,0-9,2.4-9,5.4,0,4.3,5.3,5.6,11.6,7,9.1,2,20.2,4.3,20.2,16.7,0,11.2-10.1,16.4-22.2,16.4C509.71,328.41,500.91,324.91,496.11,320Z"/><path class="cls-5" d="M584,253.3h12.7l35,52.8h.2V253.3h11.6v74h-11.4l-36.3-53.9h-.2v53.9H584Z"/><path class="cls-5" d="M656.12,300.8c0-19.6,12.9-27.6,25.9-27.6s25.9,8,25.9,27.6c0,19.4-13,27.6-25.9,27.6S656.12,320.21,656.12,300.8Zm39.4,0c0-9.9-4.2-17.1-13.5-17.1-8.9,0-13.5,6.4-13.5,17.1,0,10.1,4.1,17.3,13.5,17.3C690.92,318.11,695.52,311.71,695.52,300.8Z"/><path class="cls-5" d="M719,274.2h12.3v8.7h.2c3.3-5.3,9-9.7,19.1-9.7h.8l-.4,11.3c-.6-.1-2.6-.2-3.3-.2-7.9,0-12.9,3.7-16.4,9.4v33.6H719Z"/><path class="cls-5" d="M757.37,300.9c0-18.4,9.1-27.7,22.7-27.7a20.24,20.24,0,0,1,15.2,6.7V253.3h12.3v61c0,6.4.4,10.3,1.6,13h-12.7a20,20,0,0,1-1.2-7.2c-3.9,4.5-9,8-16.9,8C766.27,328.11,757.37,319.31,757.37,300.9Zm37.9,10.4V290a16.2,16.2,0,0,0-12.5-6.6c-9.3,0-13.1,6-13.1,17.8,0,11.2,4.8,16.8,12.7,16.8C787.47,318,792.37,314.8,795.27,311.3Z"/><path class="cls-5" d="M821.68,274.2H834v8.7h.2c3.3-5.3,9-9.7,19.1-9.7h.8l-.4,11.3c-.6-.1-2.6-.2-3.3-.2-7.9,0-12.9,3.7-16.4,9.4v33.6h-12.3Z"/><path class="cls-5" d="M863,253.3h12.4v28.1a26.32,26.32,0,0,1,19.4-8.2c9.3,0,15.3,5.5,15.3,16v38.1h-12.4v-35c0-5.9-2.5-8.6-7.9-8.6s-9.9,2.8-14.4,6.9v36.7H863Z"/><path class="cls-5" d="M921,300.8c0-20.2,14.3-27.6,25.3-27.6,11.9,0,23.3,7.1,23.3,28.7v2.9h-36.3c.5,9.6,6.4,13.8,14.2,13.8,6.9,0,10.9-2.3,14.9-6.2l6.5,6.4c-5.5,6.1-12.8,9.6-22.3,9.6C933.27,328.41,921,320.31,921,300.8Zm37.3-5.2c-.7-8.1-4.7-12.4-12.1-12.4-6,0-11.5,3.4-12.7,12.4Z"/><path class="cls-5" d="M980.87,254.3h12.6V265h-12.6Zm.1,19.9h12.4v53.1H981Z"/><path class="cls-5" d="M1007.38,274.2h12.4v7.2a26.32,26.32,0,0,1,19.4-8.2c9.3,0,15.3,5.5,15.3,16v38.1h-12.4v-35c0-5.9-2.5-8.6-7.9-8.6s-9.9,2.8-14.4,6.9v36.7h-12.4Z"/><path class="cls-5" d="M1066.7,291.5h24.7v8.8h-24.7Z"/><path class="cls-5" d="M1095.88,253.3h12.6l9.4,38.3c1.5,5.9,2.9,11.4,3.9,17.2h.2c1-5.7,2.3-11.2,3.8-17.1l8.9-38.4h12l9.2,38.6c1.6,6.3,2.8,10.7,3.9,16.9h.2c1.1-6.4,2.2-10.3,3.6-16.6l9.2-38.9h11.7l-19.5,74h-10.9l-13.3-56.7h-.2l-14,56.7h-11Z"/><path class="cls-5" d="M1187.33,300.8c0-20.2,14.3-27.6,25.3-27.6,11.9,0,23.3,7.1,23.3,28.7v2.9h-36.3c.5,9.6,6.4,13.8,14.2,13.8,6.9,0,10.9-2.3,14.9-6.2l6.5,6.4c-5.5,6.1-12.8,9.6-22.3,9.6C1199.63,328.41,1187.33,320.31,1187.33,300.8Zm37.3-5.2c-.7-8.1-4.7-12.4-12.1-12.4-6,0-11.5,3.4-12.7,12.4Z"/><path class="cls-5" d="M1243.63,320l6.7-7.5a26.17,26.17,0,0,0,16.7,6.3c6.6,0,10.6-1.7,10.6-6.1s-5.4-5.6-11.8-7.1c-9.1-2.1-20-4.5-20-16.8,0-9.3,8-15.6,19.7-15.6,10.1,0,16.3,2.9,21.8,7.5l-5.9,8c-3.9-3.2-10.2-5.8-15-5.8-6.8,0-9,2.4-9,5.4,0,4.3,5.3,5.6,11.6,7,9.1,2,20.2,4.3,20.2,16.7,0,11.2-10.1,16.4-22.2,16.4C1257.23,328.41,1248.43,324.91,1243.63,320Z"/><path class="cls-5" d="M1305,313.41V284h-9.2v-9.8h9.2V255.7h12.3v18.5H1331V284h-13.7v26.3c0,5.7,1.7,8,7.8,8a20,20,0,0,0,5.3-.7v9.7a60.86,60.86,0,0,1-9,.7C1307.88,328,1305,323,1305,313.41Z"/><path class="cls-5" d="M1347.62,284h-9.2v-9.8h9.2v-5.4c0-8.9,3.7-15.8,17.2-15.8,2.3,0,6.4.4,7.3.5V263a23.06,23.06,0,0,0-4.2-.4c-4.4,0-8,1.2-8,6.9v4.7h11.6V284h-11.6v43.3h-12.3Z"/><path class="cls-5" d="M1377.86,314.51c0-11.5,9.8-19.2,34.6-22v-1.6c0-5.3-2.8-7.6-8.7-7.6-7.4,0-13.4,3.6-17.9,7.2l-6-7.7a38,38,0,0,1,25.6-9.6c14.2,0,19.1,6.8,19.1,19.2v21.9c0,6.4.4,10.3,1.5,13h-12.4a19.25,19.25,0,0,1-1.2-6.8c-5.4,5.5-11.7,7.6-19.6,7.6C1384.26,328.11,1377.86,323.31,1377.86,314.51Zm34.6-2V300.8c-14.7,2-22.5,5.6-22.5,11.4,0,4.2,2.9,6.4,7.4,6.4A21.21,21.21,0,0,0,1412.46,312.51Z"/><path class="cls-5" d="M1438.39,253.3h12.4v74h-12.4Z"/><path class="cls-5" d="M1462.15,300.8c0-20.2,14.3-27.6,25.3-27.6,11.9,0,23.3,7.1,23.3,28.7v2.9h-36.3c.5,9.6,6.4,13.8,14.2,13.8,6.9,0,10.9-2.3,14.9-6.2l6.5,6.4c-5.5,6.1-12.8,9.6-22.3,9.6C1474.45,328.41,1462.15,320.31,1462.15,300.8Zm37.3-5.2c-.7-8.1-4.7-12.4-12.1-12.4-6,0-11.5,3.4-12.7,12.4Z"/><path class="cls-5" d="M1522,274.2h12.4v7.2a26.32,26.32,0,0,1,19.4-8.2c9.3,0,15.3,5.5,15.3,16v38.1h-12.4v-35c0-5.9-2.5-8.6-7.9-8.6s-9.9,2.8-14.4,6.9v36.7H1522Z"/></g></g></svg>